<svg width="40" height="40" viewBox="0 0 40 40" fill="none" xmlns="http://www.w3.org/2000/svg">
<circle cx="20" cy="20" r="20" fill="#444444"/>
<path d="M20 3.96082L22.4407 7.72982L26.1379 5.18173L26.9505 9.59785L31.3414 8.65858L30.4022 13.0495L34.8183 13.8621L32.2702 17.5593L36.0392 20L32.2702 22.4407L34.8183 26.1379L30.4022 26.9505L31.3414 31.3414L26.9505 30.4022L26.1379 34.8183L22.4407 32.2702L20 36.0392L17.5593 32.2702L13.8621 34.8183L13.0495 30.4022L8.65858 31.3414L9.59785 26.9505L5.18173 26.1379L7.72982 22.4407L3.96082 20L7.72982 17.5593L5.18173 13.8621L9.59785 13.0495L8.65858 8.65858L13.0495 9.59785L13.8621 5.18173L17.5593 7.72982L20 3.96082Z" fill="#B35DE8"/>
<path d="M16.8908 25.7604C16.8908 25.7604 18.7436 26.8089 20.0662 26.4132C21.4027 26.0134 22.9368 23.9177 22.9368 23.9177" stroke="#222222" stroke-linecap="round"/>
<mask id="mask0_70_1148" style="mask-type:alpha" maskUnits="userSpaceOnUse" x="11" y="15" width="8" height="5">
<path d="M18.4709 19.1632C18.4709 18.235 18.1156 17.3447 17.4832 16.6883C16.8508 16.032 15.9931 15.6632 15.0988 15.6632C14.2045 15.6632 13.3468 16.032 12.7144 16.6883C12.0821 17.3447 11.7268 18.2349 11.7268 19.1632L18.4709 19.1632Z" fill="#676767"/>
</mask>
<g mask="url(#mask0_70_1148)">
<path d="M18.4709 19.1632C18.4709 18.235 18.1156 17.3447 17.4832 16.6883C16.8508 16.032 15.9931 15.6632 15.0988 15.6632C14.2045 15.6632 13.3468 16.032 12.7144 16.6883C12.0821 17.3447 11.7268 18.2349 11.7268 19.1632L18.4709 19.1632Z" fill="white"/>
<path d="M18.4709 19.1632C18.4709 18.235 18.1156 17.3447 17.4832 16.6883C16.8508 16.032 15.9931 15.6632 15.0988 15.6632C14.2045 15.6632 13.3468 16.032 12.7144 16.6883C12.0821 17.3447 11.7268 18.2349 11.7268 19.1632L18.4709 19.1632Z" fill="white"/>
<path d="M15.0988 19.1632C15.0988 18.4859 14.8396 17.8363 14.3782 17.3574C13.9168 16.8784 13.2909 16.6094 12.6384 16.6094C11.9859 16.6094 11.36 16.8784 10.8986 17.3574C10.4372 17.8363 10.178 18.4859 10.178 19.1632L15.0988 19.1632Z" fill="black"/>
</g>
<mask id="mask1_70_1148" style="mask-type:alpha" maskUnits="userSpaceOnUse" x="21" y="15" width="8" height="5">
<path d="M28.2563 19.1632C28.2563 18.235 27.901 17.3447 27.2687 16.6883C26.6363 16.032 25.7786 15.6632 24.8843 15.6632C23.99 15.6632 23.1323 16.032 22.4999 16.6883C21.8675 17.3447 21.5122 18.2349 21.5122 19.1632L28.2563 19.1632Z" fill="#676767"/>
</mask>
<g mask="url(#mask1_70_1148)">
<path d="M28.2563 19.1632C28.2563 18.235 27.901 17.3447 27.2687 16.6883C26.6363 16.032 25.7786 15.6632 24.8843 15.6632C23.99 15.6632 23.1323 16.032 22.4999 16.6883C21.8675 17.3447 21.5122 18.2349 21.5122 19.1632L28.2563 19.1632Z" fill="white"/>
<path d="M28.2563 19.1632C28.2563 18.235 27.901 17.3447 27.2687 16.6883C26.6363 16.032 25.7786 15.6632 24.8843 15.6632C23.99 15.6632 23.1323 16.032 22.4999 16.6883C21.8675 17.3447 21.5122 18.2349 21.5122 19.1632L28.2563 19.1632Z" fill="white"/>
<path d="M24.8843 19.1632C24.8843 18.4859 24.625 17.8363 24.1636 17.3574C23.7022 16.8784 23.0764 16.6094 22.4238 16.6094C21.7713 16.6094 21.1455 16.8784 20.6841 17.3574C20.2226 17.8363 19.9634 18.4859 19.9634 19.1632L24.8843 19.1632Z" fill="black"/>
</g>
</svg>
