<svg width="40" height="40" viewBox="0 0 40 40" fill="none" xmlns="http://www.w3.org/2000/svg">
<circle cx="20" cy="20" r="20" fill="#444444"/>
<path d="M27.1075 6.79079L27.3018 12.2471L32.7599 12.1143L30.1999 16.9367L34.9933 19.5507L30.3651 22.4471L33.2092 27.1075L27.7529 27.3017L27.8857 32.7599L23.0633 30.1999L20.4493 34.9933L17.5529 30.365L12.8924 33.2092L12.6982 27.7528L7.24008 27.8857L9.80006 23.0633L5.00673 20.4493L9.63495 17.5529L6.79081 12.8924L12.2471 12.6982L12.1143 7.24007L16.9367 9.80005L19.5507 5.00671L22.4471 9.63493L27.1075 6.79079Z" fill="#BED243"/>
<path d="M23.1221 22.8155C23.232 24.4688 21.9809 25.898 20.3277 26.0079C18.6745 26.1178 17.2452 24.8667 17.1353 23.2135" stroke="#222222" stroke-linecap="round"/>
<circle cx="15.4096" cy="17.6791" r="2.24803" transform="rotate(28.2836 15.4096 17.6791)" fill="white"/>
<path fill-rule="evenodd" clip-rule="evenodd" d="M16.995 19.2738C16.7834 19.231 16.5743 19.1568 16.3743 19.0491C15.281 18.4608 14.8716 17.0976 15.4599 16.0043C15.5675 15.8043 15.701 15.6272 15.8541 15.4749C14.9087 15.2839 13.9107 15.7206 13.43 16.6139C12.8417 17.7073 13.2511 19.0705 14.3444 19.6588C15.2378 20.1395 16.3113 19.9541 16.995 19.2738Z" fill="#222222"/>
<circle cx="24.1275" cy="17.2644" r="2.24803" transform="rotate(28.2836 24.1275 17.2644)" fill="white"/>
<path fill-rule="evenodd" clip-rule="evenodd" d="M25.7129 18.8591C25.5013 18.8163 25.2922 18.7421 25.0922 18.6345C23.9989 18.0462 23.5895 16.683 24.1778 15.5896C24.2854 15.3896 24.419 15.2125 24.572 15.0602C23.6266 14.8692 22.6286 15.3059 22.1479 16.1993C21.5596 17.2926 21.969 18.6558 23.0623 19.2441C23.9557 19.7248 25.0292 19.5394 25.7129 18.8591Z" fill="#222222"/>
</svg>
