<svg width="41" height="40" viewBox="0 0 41 40" fill="none" xmlns="http://www.w3.org/2000/svg">
<circle cx="20.2105" cy="20" r="20" fill="#444444"/>
<path d="M17.9018 4.72577L20.6131 9.5657C21.4681 11.0919 23.4422 11.5658 24.8968 10.5941L29.5099 7.51261L28.0047 12.8521C27.5301 14.5359 28.5908 16.2669 30.3065 16.6084L35.7474 17.6913L30.9075 20.4026C29.3813 21.2576 28.9073 23.2317 29.879 24.6863L32.9605 29.2994L27.621 27.7942C25.9373 27.3196 24.2063 28.3804 23.8648 30.0961L22.7818 35.5369L20.0705 30.697C19.2156 29.1708 17.2415 28.6969 15.7868 29.6686L11.1738 32.7501L12.6789 27.4106C13.1536 25.7269 12.0928 23.9958 10.3771 23.6543L4.93622 22.5714L9.77615 19.8601C11.3023 19.0051 11.7763 17.031 10.8046 15.5764L7.72307 10.9633L13.0626 12.4685C14.7463 12.9431 16.4773 11.8823 16.8188 10.1666L17.9018 4.72577Z" fill="#43CBD7"/>
<path d="M24.294 21C25.1741 22.4038 24.7496 24.2552 23.3459 25.1353C21.9421 26.0155 20.0906 25.591 19.2105 24.1872" stroke="#222222" stroke-linecap="round"/>
<circle cx="15.0685" cy="20.1314" r="2.24803" fill="white"/>
<path fill-rule="evenodd" clip-rule="evenodd" d="M17.2202 20.7844C17.0135 20.847 16.7943 20.8807 16.5671 20.8807C15.3256 20.8807 14.3191 19.8742 14.3191 18.6327C14.3191 18.4056 14.3528 18.1863 14.4154 17.9796C13.4924 18.2594 12.8204 19.1169 12.8204 20.1314C12.8204 21.3729 13.8269 22.3794 15.0685 22.3794C16.0829 22.3794 16.9404 21.7074 17.2202 20.7844Z" fill="#222222"/>
<circle cx="22.5491" cy="15.6353" r="2.24803" fill="white"/>
<path fill-rule="evenodd" clip-rule="evenodd" d="M24.7008 16.2883C24.4941 16.351 24.2749 16.3846 24.0477 16.3846C22.8062 16.3846 21.7997 15.3782 21.7997 14.1366C21.7997 13.9095 21.8334 13.6902 21.896 13.4836C20.973 13.7634 20.301 14.6209 20.301 15.6353C20.301 16.8768 21.3075 17.8833 22.5491 17.8833C23.5635 17.8833 24.421 17.2114 24.7008 16.2883Z" fill="#222222"/>
</svg>
