<svg width="40" height="40" viewBox="0 0 40 40" fill="none" xmlns="http://www.w3.org/2000/svg">
<circle cx="20" cy="20" r="20" fill="#444444"/>
<path d="M28.1066 5.83948L29.2671 14.7854L36.7494 19.8244L29.5822 25.3023L28.9595 34.3017L20.6319 30.8337L12.5269 34.7941L11.3664 25.8481L3.88409 20.8092L11.0513 15.3312L11.674 6.33188L20.0016 9.79988L28.1066 5.83948Z" fill="#FEB21F"/>
<path d="M23.6397 22.6412C23.7257 23.9344 22.4552 25.0719 20.8019 25.1818C19.1487 25.2916 17.7389 24.3324 17.6529 23.0392" stroke="#222222" stroke-linecap="round"/>
<path d="M17.0072 17.574C17.0799 18.6676 16.2523 19.6131 15.1587 19.6858C14.0651 19.7584 13.1197 18.9309 13.047 17.8373" stroke="#222222" stroke-linecap="round"/>
<path d="M26.9602 16.9999C27.0329 18.0935 26.2053 19.039 25.1117 19.1117C24.0181 19.1843 23.0727 18.3568 23 17.2632" stroke="#222222" stroke-linecap="round"/>
</svg>
