<svg width="19" height="19" viewBox="0 0 19 19" fill="none" xmlns="http://www.w3.org/2000/svg">
<g id="star">
<path id="Vector (Stroke)" fill-rule="evenodd" clip-rule="evenodd" d="M9.31594 1.43347C9.6014 1.43347 9.86212 1.59553 9.98847 1.8515L12.1316 6.19332L16.9244 6.89386C17.2068 6.93514 17.4413 7.13314 17.5294 7.40465C17.6174 7.67615 17.5437 7.97409 17.3392 8.17324L13.8718 11.5505L14.6901 16.3217C14.7384 16.6031 14.6227 16.8875 14.3917 17.0553C14.1608 17.2231 13.8545 17.2452 13.6019 17.1123L9.31594 14.8584L5.03003 17.1123C4.77734 17.2452 4.47112 17.2231 4.24014 17.0553C4.00916 16.8875 3.89347 16.6031 3.94173 16.3217L4.76005 11.5505L1.29264 8.17324C1.08818 7.97409 1.01447 7.67615 1.10251 7.40465C1.19054 7.13314 1.42505 6.93514 1.70747 6.89386L6.50024 6.19332L8.64341 1.8515C8.76976 1.59553 9.03048 1.43347 9.31594 1.43347ZM9.31594 3.87791L7.67097 7.21044C7.56182 7.43158 7.35093 7.58492 7.10691 7.62059L3.42725 8.15842L6.08924 10.7512C6.26614 10.9235 6.34689 11.1719 6.30515 11.4153L5.67708 15.0772L8.96685 13.3472C9.18539 13.2322 9.44649 13.2322 9.66503 13.3472L12.9548 15.0772L12.3267 11.4153C12.285 11.1719 12.3657 10.9235 12.5426 10.7512L15.2046 8.15842L11.525 7.62059C11.281 7.58492 11.0701 7.43158 10.9609 7.21044L9.31594 3.87791Z" fill="#34CEFF"/>
</g>
</svg>
