<svg width="40" height="40" viewBox="0 0 40 40" fill="none" xmlns="http://www.w3.org/2000/svg">
<circle cx="20" cy="20" r="20" fill="#444444"/>
<rect x="4" y="13.8975" width="32" height="14.0502" fill="#43CBD7"/>
<mask id="mask0_72_1176" style="mask-type:alpha" maskUnits="userSpaceOnUse" x="17" y="21" width="7" height="5">
<path d="M22.7042 21.846C23.5423 22.4182 22.712 23.8574 22.1398 24.6955C21.5677 25.5336 20.4245 25.7493 19.5864 25.1771C18.7482 24.605 17.4311 23.7632 18.0032 22.9251C18.2486 22.5656 20.1778 23.1019 20.5642 22.9845C21.0786 22.8283 22.2256 21.5193 22.7042 21.846Z" fill="#D9D9D9"/>
</mask>
<g mask="url(#mask0_72_1176)">
<circle cx="20.6224" cy="23.6597" r="3.04431" transform="rotate(-55.6807 20.6224 23.6597)" fill="#222222"/>
<circle cx="20.3937" cy="25.3653" r="1.83742" transform="rotate(-55.6807 20.3937 25.3653)" fill="#E80F0F"/>
</g>
<mask id="mask1_72_1176" style="mask-type:alpha" maskUnits="userSpaceOnUse" x="24" y="17" width="7" height="5">
<path d="M24.2339 17.999C24.2339 18.9273 24.5891 19.8175 25.2215 20.4739C25.8539 21.1303 26.7116 21.499 27.6059 21.499C28.5002 21.499 29.3579 21.1303 29.9903 20.4739C30.6227 19.8175 30.9779 18.9273 30.9779 17.999L24.2339 17.999Z" fill="#676767"/>
</mask>
<g mask="url(#mask1_72_1176)">
<path d="M24.2339 17.999C24.2339 18.9273 24.5891 19.8175 25.2215 20.4739C25.8539 21.1303 26.7116 21.499 27.6059 21.499C28.5002 21.499 29.3579 21.1303 29.9903 20.4739C30.6227 19.8175 30.9779 18.9273 30.9779 17.999L24.2339 17.999Z" fill="white"/>
<path d="M24.2339 17.999C24.2339 18.9273 24.5891 19.8175 25.2215 20.4739C25.8539 21.1303 26.7116 21.499 27.6059 21.499C28.5002 21.499 29.3579 21.1303 29.9903 20.4739C30.6227 19.8175 30.9779 18.9273 30.9779 17.999L24.2339 17.999Z" fill="white"/>
<path d="M27.6059 17.9991C27.6059 18.6764 27.8651 19.3259 28.3266 19.8049C28.788 20.2838 29.4138 20.5529 30.0663 20.5529C30.7189 20.5529 31.3447 20.2838 31.8061 19.8049C32.2675 19.3259 32.5268 18.6764 32.5268 17.9991L27.6059 17.9991Z" fill="black"/>
</g>
<mask id="mask2_72_1176" style="mask-type:alpha" maskUnits="userSpaceOnUse" x="9" y="17" width="7" height="5">
<path d="M9.00272 17.999C9.00272 18.9273 9.35798 19.8175 9.99036 20.4739C10.6227 21.1303 11.4804 21.499 12.3747 21.499C13.2691 21.499 14.1268 21.1303 14.7591 20.4739C15.3915 19.8175 15.7468 18.9273 15.7468 17.999L9.00272 17.999Z" fill="#676767"/>
</mask>
<g mask="url(#mask2_72_1176)">
<path d="M9.00272 17.999C9.00272 18.9273 9.35798 19.8175 9.99036 20.4739C10.6227 21.1303 11.4804 21.499 12.3747 21.499C13.2691 21.499 14.1268 21.1303 14.7591 20.4739C15.3915 19.8175 15.7468 18.9273 15.7468 17.999L9.00272 17.999Z" fill="white"/>
<path d="M9.00272 17.999C9.00272 18.9273 9.35798 19.8175 9.99036 20.4739C10.6227 21.1303 11.4804 21.499 12.3747 21.499C13.2691 21.499 14.1268 21.1303 14.7591 20.4739C15.3915 19.8175 15.7468 18.9273 15.7468 17.999L9.00272 17.999Z" fill="white"/>
<path d="M12.3747 17.9991C12.3747 18.6764 12.634 19.3259 13.0954 19.8049C13.5568 20.2838 14.1826 20.5529 14.8352 20.5529C15.4877 20.5529 16.1135 20.2838 16.575 19.8049C17.0364 19.3259 17.2956 18.6764 17.2956 17.9991L12.3747 17.9991Z" fill="black"/>
</g>
</svg>
