<svg width="40" height="40" viewBox="0 0 40 40" fill="none" xmlns="http://www.w3.org/2000/svg">
<circle cx="20" cy="20" r="20" fill="#444444"/>
<path d="M27.5729 7.89102L31.0641 14.1824L34.7058 20.3879L31.0028 26.557L27.4496 32.8135L20.2555 32.6912L13.0606 32.7423L9.56946 26.4509L5.92776 20.2454L9.63072 14.0763L13.1839 7.81979L20.378 7.94211L27.5729 7.89102Z" fill="#13E2FE"/>
<circle cx="14.1127" cy="20" r="3.32681" transform="rotate(-136.019 14.1127 20)" fill="white"/>
<path fill-rule="evenodd" clip-rule="evenodd" d="M12.4924 17.0935C12.7769 17.2391 13.045 17.4286 13.2868 17.662C14.6089 18.9379 14.6464 21.044 13.3705 22.3661C13.1371 22.6079 12.8759 22.8068 12.5969 22.9625C13.8673 23.6131 15.4641 23.3905 16.5065 22.3103C17.7824 20.9882 17.745 18.8821 16.4229 17.6062C15.3426 16.5637 13.7389 16.398 12.4924 17.0935Z" fill="#222222"/>
<circle cx="26.5208" cy="20" r="3.32681" transform="rotate(-136.019 26.5208 20)" fill="white"/>
<path fill-rule="evenodd" clip-rule="evenodd" d="M24.9006 17.0935C25.185 17.2391 25.4531 17.4286 25.695 17.662C27.0171 18.9379 27.0545 21.044 25.7786 22.3661C25.5453 22.6079 25.2841 22.8068 25.005 22.9625C26.2755 23.6131 27.8722 23.3905 28.9147 22.3103C30.1906 20.9882 30.1531 18.8821 28.831 17.6062C27.7508 16.5637 26.1471 16.398 24.9006 17.0935Z" fill="#222222"/>
<path d="M18.5404 22.0585C18.5404 22.0585 19.6385 23.5832 20.5019 23.5902C21.3744 23.5972 22.4896 22.0585 22.4896 22.0585" stroke="#222222" stroke-linecap="round"/>
</svg>
