<svg width="40" height="40" viewBox="0 0 40 40" fill="none" xmlns="http://www.w3.org/2000/svg">
<circle cx="20" cy="20" r="20" fill="#444444"/>
<path d="M36.7058 21.6105L28.9865 26.2783L27.3908 35.1569L19.4887 30.8057L11.0018 33.8632L10.819 24.8442L3.9277 19.023L11.647 14.3552L13.2426 5.47654L21.1447 9.82776L29.6317 6.7703L29.8145 15.7893L36.7058 21.6105Z" fill="#F85BCC"/>
<mask id="mask0_72_1202" style="mask-type:alpha" maskUnits="userSpaceOnUse" x="16" y="23" width="8" height="6">
<path d="M23.6155 25.212C24.143 26.3436 22.1919 27.4238 20.9569 27.9996C19.7218 28.5754 18.2929 28.1248 17.7654 26.9932C17.2378 25.8615 16.3678 24.1461 17.6029 23.5703C18.1327 23.3233 19.9028 25.0715 20.4175 25.175C21.1027 25.3127 23.3142 24.5658 23.6155 25.212Z" fill="#D9D9D9"/>
</mask>
<g mask="url(#mask0_72_1202)">
<ellipse cx="20.0016" cy="25.9507" rx="4.08798" ry="3.74564" transform="rotate(-24.9947 20.0016 25.9507)" fill="#444444"/>
<ellipse cx="18.532" cy="27.6852" rx="2.46734" ry="2.26072" transform="rotate(-24.9947 18.532 27.6852)" fill="#FF3535"/>
</g>
<circle cx="3.32681" cy="3.32681" r="3.32681" transform="matrix(0.275637 -0.961262 -0.961262 -0.275637 27.7126 22.0645)" fill="white"/>
<path fill-rule="evenodd" clip-rule="evenodd" d="M25.3805 14.6222C25.2071 14.8907 25.0697 15.1888 24.9771 15.5119C24.4706 17.2781 25.4918 19.1204 27.258 19.6269C27.5811 19.7195 27.9067 19.761 28.2262 19.7562C27.4517 20.9552 25.9578 21.5612 24.5147 21.1474C22.7485 20.641 21.7273 18.7987 22.2338 17.0325C22.6476 15.5894 23.9532 14.6437 25.3805 14.6222Z" fill="#222222"/>
<circle cx="3.32681" cy="3.32681" r="3.32681" transform="matrix(0.275637 -0.961262 -0.961262 -0.275637 17.4828 22.0642)" fill="white"/>
<path fill-rule="evenodd" clip-rule="evenodd" d="M15.1506 14.622C14.9772 14.8904 14.8399 15.1886 14.7472 15.5117C14.2408 17.2779 15.262 19.1202 17.0281 19.6266C17.3512 19.7192 17.6768 19.7608 17.9964 19.756C17.2218 20.9549 15.7279 21.561 14.2849 21.1472C12.5187 20.6408 11.4975 18.7984 12.0039 17.0323C12.4177 15.5892 13.7234 14.6434 15.1506 14.622Z" fill="#222222"/>
</svg>
