<svg width="40" height="40" viewBox="0 0 40 40" fill="none" xmlns="http://www.w3.org/2000/svg">
<circle cx="20" cy="20" r="20" fill="#444444"/>
<circle cx="20" cy="20" r="15.1755" fill="#05EE9A"/>
<circle cx="3.32681" cy="3.32681" r="3.32681" transform="matrix(0.275637 -0.961262 -0.961262 -0.275637 28.8018 21.115)" fill="white"/>
<path fill-rule="evenodd" clip-rule="evenodd" d="M26.4697 13.6728C26.2962 13.9412 26.1589 14.2394 26.0662 14.5625C25.5598 16.3286 26.581 18.1709 28.3472 18.6774C28.6703 18.77 28.9959 18.8116 29.3154 18.8067C28.5409 20.0057 27.047 20.6118 25.6039 20.198C23.8377 19.6915 22.8165 17.8492 23.323 16.0831C23.7368 14.64 25.0424 13.6942 26.4697 13.6728Z" fill="#222222"/>
<circle cx="3.32681" cy="3.32681" r="3.32681" transform="matrix(0.275637 -0.961262 -0.961262 -0.275637 15.8018 21.1147)" fill="white"/>
<path fill-rule="evenodd" clip-rule="evenodd" d="M13.4697 13.6725C13.2963 13.941 13.1589 14.2391 13.0663 14.5622C12.5598 16.3284 13.581 18.1707 15.3472 18.6771C15.6703 18.7698 15.9959 18.8113 16.3154 18.8065C15.5409 20.0055 14.047 20.6115 12.6039 20.1977C10.8377 19.6913 9.81653 17.849 10.323 16.0828C10.7368 14.6397 12.0424 13.694 13.4697 13.6725Z" fill="#222222"/>
<path d="M18 25.5668C18 25.5668 19.1123 27.0915 19.9868 27.0985C20.8704 27.1055 22 25.5668 22 25.5668" stroke="#222222" stroke-linecap="round"/>
</svg>
