<svg width="36" height="32" viewBox="0 0 36 32" fill="none" xmlns="http://www.w3.org/2000/svg">
<path d="M26.0713 0L27.3141 9.58146L35.328 14.9784L27.6517 20.8455L26.9847 30.4842L18.0655 26.7698L9.38468 31.0116L8.1418 21.4301L0.12793 16.0332L7.80427 10.1661L8.47122 0.527387L17.3904 4.24175L26.0713 0Z" fill="#FFD748"/>
<path d="M21.2871 17.9954C21.3792 19.3805 20.0184 20.5987 18.2478 20.7164C16.4771 20.8341 14.9671 19.8067 14.875 18.4216" stroke="#222222" stroke-linecap="round"/>
<path d="M14.1829 12.5682C14.2608 13.7394 13.3744 14.752 12.2031 14.8299C11.0319 14.9077 10.0193 14.0214 9.94141 12.8501" stroke="#222222" stroke-linecap="round"/>
<path d="M24.8431 11.9532C24.9209 13.1244 24.0346 14.137 22.8633 14.2149C21.692 14.2928 20.6794 13.4064 20.6016 12.2351" stroke="#222222" stroke-linecap="round"/>
</svg>
