<svg width="40" height="40" viewBox="0 0 40 40" fill="none" xmlns="http://www.w3.org/2000/svg">
<circle cx="20" cy="20" r="20" fill="#444444"/>
<circle cx="20" cy="21.6581" r="10.636" fill="#05EE9A"/>
<mask id="mask0_72_1189" style="mask-type:alpha" maskUnits="userSpaceOnUse" x="14" y="23" width="12" height="5">
<path d="M25.2375 24.5302C25.2375 26.0591 22.8926 27.2984 20 27.2984C17.1074 27.2984 14.7625 26.0591 14.7625 24.5302C14.7625 21.5522 17.1074 24.9643 20 24.9643C22.8926 24.9643 25.2375 21.4813 25.2375 24.5302Z" fill="#D9D9D9"/>
</mask>
<g mask="url(#mask0_72_1189)">
<path d="M25.2375 24.5302C25.2375 26.0591 22.8926 27.2984 20 27.2984C17.1074 27.2984 14.7625 26.0591 14.7625 24.5302C14.7625 21.5522 17.1074 24.9643 20 24.9643C22.8926 24.9643 25.2375 21.4813 25.2375 24.5302Z" fill="white"/>
<path d="M25.2375 28.1587C25.2375 29.6876 22.8926 30.927 20 30.927C17.1074 30.927 14.7625 29.6876 14.7625 28.1587C14.7625 25.1807 16.9102 25.4436 19.8028 25.4436C22.6954 25.4436 25.2375 25.1099 25.2375 28.1587Z" fill="#FF3535"/>
</g>
<circle cx="4.02591" cy="4.02591" r="4.02591" transform="matrix(0.275637 -0.961262 -0.961262 -0.275637 30.647 19.9797)" fill="white"/>
<path fill-rule="evenodd" clip-rule="evenodd" d="M27.8249 10.9735C27.615 11.2984 27.4488 11.6593 27.3367 12.0503C26.7238 14.1876 27.9596 16.4171 30.0969 17.03C30.4879 17.1421 30.8819 17.1923 31.2685 17.1865C30.3312 18.6374 28.5234 19.3707 26.7771 18.87C24.6398 18.2571 23.404 16.0277 24.0169 13.8903C24.5177 12.144 26.0977 10.9995 27.8249 10.9735Z" fill="#20654C"/>
<circle cx="4.02591" cy="4.02591" r="4.02591" transform="matrix(0.275637 -0.961262 -0.961262 -0.275637 14.9152 19.9795)" fill="white"/>
<path fill-rule="evenodd" clip-rule="evenodd" d="M12.0931 10.9733C11.8832 11.2982 11.717 11.659 11.6048 12.0501C10.992 14.1874 12.2278 16.4169 14.3651 17.0297C14.756 17.1418 15.1501 17.1921 15.5367 17.1863C14.5994 18.6371 12.7916 19.3705 11.0453 18.8698C8.908 18.2569 7.67219 16.0274 8.28506 13.8901C8.78582 12.1437 10.3659 10.9992 12.0931 10.9733Z" fill="#20654C"/>
</svg>
