<svg width="40" height="40" viewBox="0 0 40 40" fill="none" xmlns="http://www.w3.org/2000/svg">
<circle cx="20" cy="20" r="20" fill="#444444"/>
<path d="M22.4025 30.1959C20.159 33.2346 15.9259 34.111 12.6366 32.1104C9.34736 30.1098 8.17863 25.9479 9.84508 22.5582L9.81955 22.5428C6.33784 20.4251 5.23205 15.8859 7.3497 12.4042C9.46734 8.92252 14.0065 7.81673 17.4882 9.93437L17.4907 9.93587C19.6525 6.59373 24.0963 5.56098 27.5185 7.64243C30.9407 9.72389 32.0675 14.1448 30.0941 17.6015L30.0966 17.603C33.5783 19.7207 34.6841 24.2599 32.5665 27.7416C30.4488 31.2233 25.9096 32.3291 22.4279 30.2114C22.4194 30.2062 22.4109 30.2011 22.4025 30.1959Z" fill="#D867BD"/>
<circle cx="15.0696" cy="18.6307" r="2.24803" transform="rotate(-111.108 15.0696 18.6307)" fill="white"/>
<path fill-rule="evenodd" clip-rule="evenodd" d="M14.9039 16.3882C15.0368 16.5585 15.1472 16.7509 15.229 16.9628C15.6761 18.121 15.0996 19.4224 13.9413 19.8695C13.7295 19.9513 13.5128 19.9988 13.2974 20.0148C13.8909 20.7752 14.9328 21.0932 15.8792 20.7279C17.0374 20.2808 17.6139 18.9794 17.1668 17.8212C16.8015 16.8748 15.8658 16.3168 14.9039 16.3882Z" fill="#222222"/>
<circle cx="23.534" cy="16.5028" r="2.24803" transform="rotate(-111.108 23.534 16.5028)" fill="white"/>
<path fill-rule="evenodd" clip-rule="evenodd" d="M23.3684 14.2603C23.5012 14.4305 23.6116 14.6229 23.6934 14.8348C24.1405 15.9931 23.564 17.2945 22.4058 17.7416C22.1939 17.8234 21.9772 17.8709 21.7619 17.8869C22.3553 18.6473 23.3972 18.9653 24.3436 18.6C25.5019 18.1529 26.0783 16.8515 25.6312 15.6932C25.2659 14.7469 24.3303 14.1889 23.3684 14.2603Z" fill="#222222"/>
<mask id="mask0_69_1066" style="mask-type:alpha" maskUnits="userSpaceOnUse" x="18" y="21" width="7" height="5">
<path d="M23.6656 21.9196C24.5037 22.4918 23.6734 23.931 23.1012 24.7691C22.5291 25.6073 21.3859 25.8229 20.5478 25.2507C19.7096 24.6786 18.3925 23.8369 18.9646 22.9987C19.21 22.6392 21.1392 23.1755 21.5256 23.0581C22.04 22.9019 23.187 21.5929 23.6656 21.9196Z" fill="#D9D9D9"/>
</mask>
<g mask="url(#mask0_69_1066)">
<circle cx="21.5838" cy="23.7333" r="3.04431" transform="rotate(-55.6807 21.5838 23.7333)" fill="#222222"/>
<circle cx="21.3551" cy="25.4389" r="1.83742" transform="rotate(-55.6807 21.3551 25.4389)" fill="#E80F0F"/>
</g>
</svg>
