<svg width="19" height="11" viewBox="0 0 19 11" fill="none" xmlns="http://www.w3.org/2000/svg">
<path fill-rule="evenodd" clip-rule="evenodd" d="M18.5967 0.653264C18.8896 0.946157 18.8896 1.42103 18.5967 1.71392L11.4717 8.83892C11.1788 9.13182 10.704 9.13182 10.4111 8.83892L7.19141 5.61925L2.09674 10.7139C1.80384 11.0068 1.32897 11.0068 1.03608 10.7139C0.743183 10.421 0.743183 9.94616 1.03608 9.65326L6.66108 4.02826C6.95397 3.73537 7.42884 3.73537 7.72174 4.02826L10.9414 7.24793L17.5361 0.653264C17.829 0.36037 18.3038 0.36037 18.5967 0.653264Z" fill="#AB56FF"/>
<path fill-rule="evenodd" clip-rule="evenodd" d="M12.8164 1.18359C12.8164 0.76938 13.1522 0.433594 13.5664 0.433594H18.0664C18.4806 0.433594 18.8164 0.76938 18.8164 1.18359V5.68359C18.8164 6.09781 18.4806 6.43359 18.0664 6.43359C17.6522 6.43359 17.3164 6.09781 17.3164 5.68359V1.93359H13.5664C13.1522 1.93359 12.8164 1.59781 12.8164 1.18359Z" fill="#AB56FF"/>
</svg>
