<svg width="42" height="27" viewBox="0 0 42 27" fill="none" xmlns="http://www.w3.org/2000/svg">
<path d="M42 27C42 19.8392 39.7875 12.9716 35.8492 7.90812C31.911 2.84464 26.5695 5.40629e-07 21 0C15.4305 -5.40629e-07 10.089 2.84463 6.15076 7.90811C2.21249 12.9716 8.40978e-07 19.8392 0 27L42 27Z" fill="#E08BCD"/>
<mask id="mask0_34_543" style="mask-type:alpha" maskUnits="userSpaceOnUse" x="15" y="17" width="12" height="5">
<path d="M26.1429 17.2144C26.1429 17.8147 26.0098 18.4091 25.7514 18.9638C25.4929 19.5184 25.1141 20.0223 24.6366 20.4468C24.159 20.8713 23.5921 21.2081 22.9681 21.4378C22.3441 21.6675 21.6754 21.7858 21 21.7858C20.3246 21.7858 19.6559 21.6675 19.0319 21.4378C18.408 21.2081 17.841 20.8713 17.3635 20.4468C16.8859 20.0223 16.5071 19.5184 16.2486 18.9638C15.9902 18.4091 15.8571 17.8147 15.8571 17.2144L26.1429 17.2144Z" fill="black"/>
</mask>
<g mask="url(#mask0_34_543)">
<path d="M26.1429 17.2144C26.1429 17.8147 26.0098 18.4091 25.7514 18.9638C25.4929 19.5184 25.1141 20.0223 24.6366 20.4468C24.159 20.8713 23.5921 21.2081 22.9681 21.4378C22.3441 21.6675 21.6754 21.7858 21 21.7858C20.3246 21.7858 19.6559 21.6675 19.0319 21.4378C18.408 21.2081 17.841 20.8713 17.3635 20.4468C16.8859 20.0223 16.5071 19.5184 16.2486 18.9638C15.9902 18.4091 15.8571 17.8147 15.8571 17.2144L26.1429 17.2144Z" fill="black"/>
<path d="M26.1429 24.0715C26.1429 23.4712 26.0098 22.8768 25.7514 22.3221C25.4929 21.7675 25.1141 21.2635 24.6366 20.839C24.159 20.4145 23.5921 20.0778 22.9681 19.8481C22.3441 19.6183 21.6754 19.5001 21 19.5001C20.3246 19.5001 19.6559 19.6183 19.0319 19.8481C18.408 20.0778 17.841 20.4145 17.3635 20.839C16.8859 21.2635 16.5071 21.7675 16.2486 22.3221C15.9902 22.8768 15.8571 23.4712 15.8571 24.0715L26.1429 24.0715Z" fill="#F41B1B"/>
</g>
<path d="M10 13C10 13 10.5833 10.0001 13.5 10C16.4167 9.99996 17 13 17 13" stroke="black" stroke-linecap="round"/>
<path d="M25 13C25 13 25.5833 10.0001 28.5 10C31.4167 9.99996 32 13 32 13" stroke="black" stroke-linecap="round"/>
</svg>
