<svg width="45" height="27" viewBox="0 0 45 27" fill="none" xmlns="http://www.w3.org/2000/svg">
<path d="M21.7318 0.921867C22.1316 0.442113 22.8684 0.442111 23.2682 0.921866L43.6332 25.3598C44.1759 26.0111 43.7128 27 42.865 27H2.13504C1.2872 27 0.824048 26.0111 1.36682 25.3598L21.7318 0.921867Z" fill="#60D272"/>
<circle cx="15.248" cy="16.2479" r="2.24803" transform="rotate(-104.158 15.248 16.2479)" fill="white"/>
<path fill-rule="evenodd" clip-rule="evenodd" d="M15.3549 14.0019C15.4662 14.1869 15.5525 14.3913 15.608 14.6115C15.9117 15.8153 15.1819 17.0374 13.9781 17.3411C13.7579 17.3966 13.5371 17.4176 13.3214 17.4074C13.8184 18.234 14.8142 18.6758 15.7978 18.4277C17.0017 18.124 17.7314 16.9019 17.4277 15.6981C17.1796 14.7145 16.3184 14.0474 15.3549 14.0019Z" fill="#222222"/>
<circle cx="29.248" cy="16.2479" r="2.24803" transform="rotate(-104.158 29.248 16.2479)" fill="white"/>
<path fill-rule="evenodd" clip-rule="evenodd" d="M29.3549 14.0019C29.4662 14.1869 29.5524 14.3913 29.608 14.6115C29.9117 15.8153 29.1819 17.0374 27.9781 17.3411C27.7579 17.3966 27.5371 17.4176 27.3214 17.4074C27.8184 18.234 28.8142 18.6758 29.7978 18.4277C31.0017 18.124 31.7314 16.9019 31.4277 15.6981C31.1796 14.7145 30.3183 14.0474 29.3549 14.0019Z" fill="#222222"/>
<path d="M19 19C19 19 19.5833 22.9999 22.5 23C25.4167 23.0001 26 19 26 19" stroke="black" stroke-linecap="round"/>
</svg>
