<?xml version="1.0" encoding="UTF-8"?>
<svg width="397px" height="82px" viewBox="0 0 397 82" version="1.1" xmlns="http://www.w3.org/2000/svg" xmlns:xlink="http://www.w3.org/1999/xlink">
    <title>Group</title>
    <g id="Page-1" stroke="none" stroke-width="1" fill="none" fill-rule="evenodd">
        <g id="Group" transform="translate(0.423309, 0.730560)" fill="#FFFFFF" fill-rule="nonzero">
            <path d="M23.856291,43.00544 L33.377391,44.93104 C41.721691,46.64274 49.424191,49.85204 49.424191,57.87544 C49.424191,65.36404 42.363591,70.17804 32.307591,70.17804 C21.395791,70.17804 14.228191,64.72214 11.981591,54.13124 L1.0658141e-14,54.13124 C1.818641,70.39204 13.907191,80.34104 31.879691,80.34104 C46.963691,80.34104 61.726691,72.31764 61.726691,56.91264 C61.726691,41.29374 48.140391,36.58674 35.730891,34.01924 L26.530691,32.09364 C19.898091,30.70294 14.763091,27.38654 14.763091,20.96784 C14.763091,12.83744 24.498091,10.16294 30.167991,10.16294 C37.549491,10.16294 46.000891,12.94444 48.461391,22.14464 L60.228991,22.14464 C57.233591,6.5257 44.931091,0 30.702891,0 C17.651491,0 2.353531,6.84664 2.353531,21.50274 C2.353531,34.55414 12.837491,40.75894 23.856291,43.00544 Z" id="Path"></path>
            <path d="M123.902691,50.38694 C123.902691,29.52614 109.567691,20.32594 95.874691,20.32594 C82.288391,20.32594 67.953191,29.52614 67.953191,50.38694 C67.953191,71.14084 82.288391,80.34104 95.874691,80.34104 C109.567691,80.34104 123.902691,71.14084 123.902691,50.38694 Z M95.874691,70.92684 C87.530291,70.92684 79.720891,64.61514 79.720891,50.38694 C79.720891,35.83784 87.530291,29.74004 95.874691,29.74004 C104.325691,29.74004 112.135691,36.05184 112.135691,50.38694 C112.135691,64.40124 104.325691,70.92684 95.874691,70.92684 Z" id="Shape"></path>
            <path d="M162.289691,32.84244 L162.289691,21.28874 C161.326691,21.18174 160.149691,21.18174 159.186691,21.18174 C152.019691,21.28874 146.242691,25.03304 143.246691,31.55874 L143.246691,21.39574 L132.334691,21.39574 L132.334691,78.95034 L143.460691,78.95034 L143.460691,48.78234 C143.460691,36.69374 147.953691,32.52154 156.512691,32.52154 C158.330691,32.52154 160.256691,32.62854 162.289691,32.84244 Z" id="Path"></path>
            <path d="M219.473691,50.38694 C219.473691,29.52614 205.138691,20.32594 191.444691,20.32594 C177.858691,20.32594 163.523691,29.52614 163.523691,50.38694 C163.523691,71.14084 177.858691,80.34104 191.444691,80.34104 C205.138691,80.34104 219.473691,71.14084 219.473691,50.38694 Z M191.444691,70.92684 C183.100691,70.92684 175.291691,64.61514 175.291691,50.38694 C175.291691,35.83784 183.100691,29.74004 191.444691,29.74004 C199.896691,29.74004 207.705691,36.05184 207.705691,50.38694 C207.705691,64.40124 199.896691,70.92684 191.444691,70.92684 Z" id="Shape"></path>
            <path d="M239.031691,1.39072 L227.905691,1.39072 L227.905691,78.95034 L239.031691,78.95034 L239.031691,70.81994 C242.561691,76.70374 248.552691,80.34104 257.003691,80.34104 C270.375691,80.34104 281.822691,69.10824 281.822691,50.28004 C281.822691,31.55874 270.375691,20.32594 257.003691,20.32594 C248.552691,20.32594 242.561691,23.96324 239.031691,29.84704 L239.031691,1.39072 Z M254.436691,71.03384 C245.877691,71.03384 238.603691,64.50814 238.603691,50.28004 C238.603691,36.05184 245.877691,29.63314 254.436691,29.63314 C263.636691,29.63314 269.948691,37.33554 269.948691,50.28004 C269.948691,63.22444 263.636691,71.03384 254.436691,71.03384 Z" id="Shape"></path>
            <path d="M286.788691,63.43834 C286.788691,73.92234 295.668691,80.34104 307.328691,80.34104 C316.635691,80.34104 323.161691,77.13164 326.584691,71.35484 C326.798691,74.99204 327.119691,76.70374 327.547691,78.95034 L338.245691,78.95034 C337.175691,73.81534 336.640691,66.75474 336.640691,58.19644 C336.640691,55.73594 336.854691,45.78694 336.854691,44.39614 C337.068691,27.17264 328.510691,20.00504 313.640691,20.00504 C300.482691,20.00504 290.426691,27.38654 289.463691,39.58214 L300.696691,39.58214 C301.123691,32.52154 305.510691,28.56334 313.212691,28.56334 C320.273691,28.56334 325.622691,31.98664 325.622691,42.14964 L325.622691,43.32634 C303.263691,45.67994 286.788691,49.42414 286.788691,63.43834 Z M326.157691,51.56374 L326.157691,55.73594 C326.157691,67.18264 318.989691,71.78274 309.789691,71.78274 C303.049691,71.78274 298.877691,68.46634 298.877691,63.22444 C298.877691,55.73594 308.291691,53.27544 326.157691,51.56374 Z" id="Shape"></path>
            <path d="M359.047691,29.74004 L359.047691,21.39574 L347.922691,21.39574 L347.922691,78.95034 L359.047691,78.95034 L359.047691,48.03344 C359.047691,36.58674 363.755691,29.63314 373.383691,29.63314 C383.867691,29.63314 385.257691,37.33554 385.257691,45.67994 L385.257691,78.95034 L396.383691,78.95034 L396.383691,42.68454 C396.383691,29.31214 391.034691,20.32594 377.127691,20.32594 C368.141691,20.32594 362.364691,24.07024 359.047691,29.74004 Z" id="Path"></path>
        </g>
    </g>
</svg>