<svg width="397" height="82" viewBox="0 0 397 82" fill="none" xmlns="http://www.w3.org/2000/svg">
<path d="M24.2796 43.736L33.8007 45.6616C42.145 47.3733 49.8475 50.5826 49.8475 58.606C49.8475 66.0946 42.7869 70.9086 32.7309 70.9086C21.8191 70.9086 14.6515 65.4527 12.4049 54.8618H0.423309C2.24195 71.1226 14.3305 81.0716 32.303 81.0716C47.387 81.0716 62.15 73.0482 62.15 57.6432C62.15 42.0243 48.5637 37.3173 36.1542 34.7498L26.954 32.8242C20.3214 31.4335 15.1864 28.1171 15.1864 21.6984C15.1864 13.568 24.9214 10.8935 30.5913 10.8935C37.9728 10.8935 46.4242 13.675 48.8847 22.8752H60.6523C57.6569 7.25626 45.3544 0.73056 31.1262 0.73056C18.0748 0.73056 2.77684 7.5772 2.77684 22.2333C2.77684 35.2847 13.2608 41.4895 24.2796 43.736Z" fill="black"/>
<path d="M124.326 51.1175C124.326 30.2567 109.991 21.0565 96.298 21.0565C82.7117 21.0565 68.3765 30.2567 68.3765 51.1175C68.3765 71.8714 82.7117 81.0716 96.298 81.0716C109.991 81.0716 124.326 71.8714 124.326 51.1175ZM96.298 71.6574C87.9536 71.6574 80.1442 65.3457 80.1442 51.1175C80.1442 36.5684 87.9536 30.4706 96.298 30.4706C104.749 30.4706 112.559 36.7824 112.559 51.1175C112.559 65.1318 104.749 71.6574 96.298 71.6574Z" fill="black"/>
<path d="M162.713 33.573V22.0193C161.75 21.9123 160.573 21.9123 159.61 21.9123C152.443 22.0193 146.666 25.7636 143.67 32.2893V22.1263H132.758V79.6809H143.884V49.5129C143.884 37.4243 148.377 33.2521 156.936 33.2521C158.754 33.2521 160.68 33.3591 162.713 33.573Z" fill="black"/>
<path d="M219.897 51.1175C219.897 30.2567 205.562 21.0565 191.868 21.0565C178.282 21.0565 163.947 30.2567 163.947 51.1175C163.947 71.8714 178.282 81.0716 191.868 81.0716C205.562 81.0716 219.897 71.8714 219.897 51.1175ZM191.868 71.6574C183.524 71.6574 175.715 65.3457 175.715 51.1175C175.715 36.5684 183.524 30.4706 191.868 30.4706C200.32 30.4706 208.129 36.7824 208.129 51.1175C208.129 65.1318 200.32 71.6574 191.868 71.6574Z" fill="black"/>
<path d="M239.455 2.12128H228.329V79.6809H239.455V71.5505C242.985 77.4343 248.976 81.0716 257.427 81.0716C270.799 81.0716 282.246 69.8388 282.246 51.0106C282.246 32.2893 270.799 21.0565 257.427 21.0565C248.976 21.0565 242.985 24.6938 239.455 30.5776V2.12128ZM254.86 71.7644C246.301 71.7644 239.027 65.2387 239.027 51.0106C239.027 36.7824 246.301 30.3637 254.86 30.3637C264.06 30.3637 270.372 38.0661 270.372 51.0106C270.372 63.955 264.06 71.7644 254.86 71.7644Z" fill="black"/>
<path d="M287.212 64.1689C287.212 74.6529 296.092 81.0716 307.752 81.0716C317.059 81.0716 323.585 77.8622 327.008 72.0854C327.222 75.7226 327.543 77.4343 327.971 79.6809H338.669C337.599 74.5459 337.064 67.4853 337.064 58.927C337.064 56.4665 337.278 46.5175 337.278 45.1267C337.492 27.9032 328.934 20.7356 314.064 20.7356C300.906 20.7356 290.85 28.1171 289.887 40.3127H301.12C301.547 33.2521 305.934 29.2939 313.636 29.2939C320.697 29.2939 326.046 32.7172 326.046 42.8802V44.0569C303.687 46.4105 287.212 50.1547 287.212 64.1689ZM326.581 52.2943V56.4665C326.581 67.9132 319.413 72.5133 310.213 72.5133C303.473 72.5133 299.301 69.1969 299.301 63.955C299.301 56.4665 308.715 54.006 326.581 52.2943Z" fill="black"/>
<path d="M359.471 30.4706V22.1263H348.346V79.6809H359.471V48.764C359.471 37.3173 364.179 30.3637 373.807 30.3637C384.291 30.3637 385.681 38.0661 385.681 46.4105V79.6809H396.807V43.4151C396.807 30.0427 391.458 21.0565 377.551 21.0565C368.565 21.0565 362.788 24.8008 359.471 30.4706Z" fill="black"/>
</svg>
