<svg width="504" height="87" viewBox="0 0 504 87" fill="none" xmlns="http://www.w3.org/2000/svg">
<path d="M130.494 46.5133L140.015 48.4389C148.359 50.1506 156.062 53.3599 156.062 61.3833C156.062 68.8718 149.001 73.6859 138.945 73.6859C128.033 73.6859 120.866 68.23 118.619 57.6391H106.637C108.456 73.8998 120.545 83.8489 138.517 83.8489C153.601 83.8489 168.364 75.8255 168.364 60.4205C168.364 44.8016 154.778 40.0946 142.368 37.5271L133.168 35.6015C126.536 34.2107 121.401 30.8944 121.401 24.4757C121.401 16.3453 131.136 13.6708 136.805 13.6708C144.187 13.6708 152.638 16.4523 155.099 25.6524H166.867C163.871 10.0335 151.569 3.50781 137.34 3.50781C124.289 3.50781 108.991 10.3545 108.991 25.0106C108.991 38.062 119.475 44.2667 130.494 46.5133Z" fill="black"/>
<path d="M231.544 53.895C231.544 33.0342 217.208 23.834 203.515 23.834C189.929 23.834 175.594 33.0342 175.594 53.895C175.594 74.6489 189.929 83.8491 203.515 83.8491C217.208 83.8491 231.544 74.6489 231.544 53.895ZM203.515 74.4349C195.171 74.4349 187.361 68.1232 187.361 53.895C187.361 39.3459 195.171 33.2481 203.515 33.2481C211.966 33.2481 219.776 39.5599 219.776 53.895C219.776 67.9092 211.966 74.4349 203.515 74.4349Z" fill="black"/>
<path d="M268.927 36.3502V24.7965C267.964 24.6895 266.787 24.6895 265.824 24.6895C258.657 24.7965 252.88 28.5408 249.884 35.0665V24.9035H238.973V82.458H250.098V52.29C250.098 40.2014 254.592 36.0293 263.15 36.0293C264.968 36.0293 266.894 36.1363 268.927 36.3502Z" fill="black"/>
<path d="M327.11 53.895C327.11 33.0342 312.775 23.834 299.082 23.834C285.495 23.834 271.16 33.0342 271.16 53.895C271.16 74.6489 285.495 83.8491 299.082 83.8491C312.775 83.8491 327.11 74.6489 327.11 53.895ZM299.082 74.4349C290.737 74.4349 282.928 68.1232 282.928 53.895C282.928 39.3459 290.737 33.2481 299.082 33.2481C307.533 33.2481 315.342 39.5599 315.342 53.895C315.342 67.9092 307.533 74.4349 299.082 74.4349Z" fill="black"/>
<path d="M346.669 4.89844H335.543V82.458H346.669V74.3277C350.199 80.2115 356.19 83.8488 364.641 83.8488C378.014 83.8488 389.46 72.616 389.46 53.7877C389.46 35.0665 378.014 23.8337 364.641 23.8337C356.19 23.8337 350.199 27.471 346.669 33.3548V4.89844ZM362.074 74.5416C353.516 74.5416 346.241 68.0159 346.241 53.7877C346.241 39.5596 353.516 33.1409 362.074 33.1409C371.274 33.1409 377.586 40.8433 377.586 53.7877C377.586 66.7322 371.274 74.5416 362.074 74.5416Z" fill="black"/>
<path d="M395.43 66.947C395.43 77.4309 404.309 83.8497 415.969 83.8497C425.277 83.8497 431.802 80.6403 435.226 74.8634C435.44 78.5007 435.761 80.2124 436.188 82.4589H446.886C445.817 77.324 445.282 70.2634 445.282 61.7051C445.282 59.2446 445.496 49.2955 445.496 47.9048C445.71 30.6812 437.151 23.5137 422.281 23.5137C409.123 23.5137 399.067 30.8952 398.104 43.0908H409.337C409.765 36.0302 414.151 32.072 421.853 32.072C428.914 32.072 434.263 35.4953 434.263 45.6583V46.835C411.904 49.1886 395.43 52.9328 395.43 66.947ZM434.798 55.0724V59.2446C434.798 70.6913 427.63 75.2914 418.43 75.2914C411.69 75.2914 407.518 71.975 407.518 66.7331C407.518 59.2446 416.932 56.784 434.798 55.0724Z" fill="black"/>
<path d="M465.689 33.2481V24.9038H454.562V82.4583H465.689V51.5415C465.689 40.0948 470.395 33.1412 480.023 33.1412C490.507 33.1412 491.897 40.8436 491.897 49.188V82.4583H503.023V46.1926C503.023 32.8202 497.674 23.834 483.767 23.834C474.781 23.834 469.005 27.5783 465.689 33.2481Z" fill="black"/>
<path d="M27.4899 51.5401L60.4386 75.455C52.9645 79.7192 42.1089 79.3509 35.2189 74.35L11.8135 57.3619C9.59862 55.7542 9.59862 53.1478 11.8135 51.5401C16.1424 48.3981 23.161 48.3981 27.4899 51.5401Z" fill="black" stroke="black" stroke-width="4"/>
<path d="M46.6766 13.0079L70.082 29.9961C72.2969 31.6037 72.2969 34.2102 70.082 35.8178C65.7531 38.9598 58.7346 38.9598 54.4056 35.8178L21.457 11.903C28.9311 7.63864 39.7866 8.00695 46.6766 13.0079Z" fill="black" stroke="black" stroke-width="4"/>
<path d="M65.4574 70.0887L17.6095 35.3597C10.7196 30.3588 10.2121 22.4796 16.0872 17.0547L63.9351 51.7838C70.825 56.7846 71.3325 64.6639 65.4574 70.0887Z" fill="black" stroke="black" stroke-width="4"/>
</svg>
