<svg width="1496" height="375" viewBox="0 0 1496 375" fill="none" xmlns="http://www.w3.org/2000/svg">
<g clip-path="url(#clip0_1_2)">
<path d="M218.9 0.700012C243.8 0.700012 267.9 5.60001 290.7 15.2C302.8 20.3 314.4 26.8 325.2 34.4L322.9 35.6L293.3 50.7C270.7 38.1 245 31.5 218.9 31.5C218.5 31.5 218.1 31.5 217.7 31.5C197.6 31.7 178 35.7 159.5 43.4C141 51.2 124.4 62.3 110.2 76.5C81.2 105.6 65.2 144.2 65.2 185.2C65.2 191.9 65.6 198.6 66.5 205.3L66.8 207.4L68.7 206.4L324.2 76.1L377.1 49.1L437 18.5V53.1L375.3 84.6L345 100L75.7 237.5L74.5 238.2L60.7 245.2L46.7 252.3V252.2L45.4 252.8L0.599976 275.7V241.1L15.8 233.4C28.5 226.9 36.1 213.5 35 199.2C34.7 194.5 34.5 189.8 34.5 185.1C34.5 160.2 39.4 136 49 113.2C58.3 91.2 71.6 71.5 88.5 54.5C105.4 37.6 125.1 24.2 147.1 14.9C169.8 5.60001 194 0.700012 218.9 0.700012Z" fill="#0F0F0F"/>
<path d="M437.1 99.4V134L421.9 141.7C409.2 148.2 401.6 161.6 402.7 175.9C403.1 180.6 403.2 185.4 403.2 190.1C403.2 215 398.3 239.2 388.7 262C379.4 284 366.1 303.7 349.2 320.7C332.3 337.7 312.5 351 290.6 360.3C267.9 369.9 243.7 374.8 218.8 374.8C193.9 374.8 169.8 369.9 147 360.3C134.8 355.1 123.2 348.6 112.4 341L143 325.4L144.2 324.8C166.8 337.4 192.6 344.1 218.8 344.1C219.2 344.1 219.5 344.1 219.9 344.1C240 344 259.6 340 278.1 332.2C296.6 324.4 313.2 313.3 327.4 299.1C356.4 270.1 372.4 231.4 372.4 190.4C372.4 183.7 372 176.9 371.1 170.2L370.8 168.1L368.9 169.1L113.2 299.2L60.3 326.2L0.599976 356.6V322L62.1 290.6L92.4 275.2L437.1 99.4Z" fill="#0F0F0F"/>
<path d="M745.6 127.5H711.8C703.3 98.8 675.3 89.2 650.3 89.2C631.2 89.2 597.7 97.7 597.7 125.4C597.7 147.3 615.1 158.2 638 163.3L666.7 169.8C704.6 178 750 192.3 750 242.2C750 290.7 704.9 316.3 655.7 316.3C597.3 316.3 560.4 284.5 553.9 235H588.1C594.6 269.2 618.5 286.9 656.4 286.9C692.9 286.9 714.1 269.5 714.1 245.2C714.1 219.2 691.9 208.3 660.8 201.5L630.1 195C596.3 187.5 562.1 168.7 562.1 127.4C562.1 80.3 611.6 59.8 651.6 59.8C696.1 59.9 736 79.7 745.6 127.5Z" fill="#0F0F0F"/>
<path d="M826.9 82.1V128.2H861.7V153.1H826.9V262C826.9 281.1 828.3 285.9 846 285.9H861.7V311.9H839.2C804 311.9 795.8 304 795.8 265.8V153.1H766.8V128.2H795.8V82.1H826.9Z" fill="#0F0F0F"/>
<path d="M966.9 289.1C994.2 289.1 1009.2 276.8 1017.1 258.7H1049.2C1040.7 290.5 1011.6 316.4 966.9 316.4C908.8 316.4 876.7 274.7 876.7 220.4C876.7 162.3 915.6 125.1 965.8 125.1C1021.8 125.1 1055.6 172.2 1051.5 230.3H910.1C911.6 269.9 939.6 289.1 966.9 289.1ZM1018.8 203.7C1018.1 177.7 998.7 151.8 965.9 151.8C938.2 151.8 913.3 166.8 910.6 203.7H1018.8Z" fill="#0F0F0F"/>
<path d="M1081 311.9V64.3H1112.1V311.9H1081Z" fill="#0F0F0F"/>
<path d="M1150.3 311.9V64.3H1181.4V311.9H1150.3Z" fill="#0F0F0F"/>
<path d="M1334.4 198.9V194.5C1334.4 161 1315.6 149.8 1292.7 149.8C1267.1 149.8 1252.1 163.8 1250.7 186.3H1218.6C1221.7 146.7 1256.5 124.5 1292.4 124.5C1342.9 124.5 1365.8 148.7 1365.5 200.3L1365.2 242.6C1364.9 273.3 1366.6 294.5 1370 311.9H1338.6C1337.6 305.1 1336.6 297.6 1336.2 286.6C1324.9 305.4 1305.8 316.3 1273.4 316.3C1238.9 316.3 1210.2 297.2 1210.2 263.4C1210.1 220.1 1258.9 207.4 1334.4 198.9ZM1244.6 262.8C1244.6 280.2 1257.9 291.8 1280.1 291.8C1309.1 291.8 1336.8 278.5 1336.8 235.1V223.5C1280.4 229.3 1244.6 237.5 1244.6 262.8Z" fill="#0F0F0F"/>
<path d="M1478.5 159.3C1449.8 159.3 1435.5 175.4 1435.5 215.7V312H1404.4V128.2H1434.8V160.3C1444 139.5 1462.8 127.9 1486.7 127.2C1489.8 127.2 1492.5 127.2 1495.9 127.5V160.6C1489.4 160 1483.6 159.3 1478.5 159.3Z" fill="#0F0F0F"/>
</g>
<defs>
<clipPath id="clip0_1_2">
<rect width="1496" height="375" fill="white"/>
</clipPath>
</defs>
</svg>
