<svg width="507" height="98" viewBox="0 0 507 98" fill="none" xmlns="http://www.w3.org/2000/svg">
<path d="M14.5105 0.818359L0.980469 14.3497L35.7611 49.1144L0.980469 83.8982L14.5105 97.4104L62.8021 49.1144L14.5105 0.818359Z" stroke="#322D3E" stroke-width="0.67" stroke-miterlimit="10"/>
<path opacity="0.94" d="M63.4877 49.1144L28.707 83.8982L42.2371 97.4104L90.5286 49.1144L42.2371 0.818359L28.707 14.3497L63.4877 49.1144Z" stroke="#322D3E" stroke-width="0.67" stroke-miterlimit="10"/>
<path opacity="0.88" d="M91.2181 49.1144L56.4375 83.8982L69.9675 97.4104L118.259 49.1144L69.9675 0.818359L56.4375 14.3497L91.2181 49.1144Z" stroke="#322D3E" stroke-width="0.67" stroke-miterlimit="10"/>
<path opacity="0.81" d="M118.945 49.1144L84.1641 83.8982L97.6941 97.4104L145.986 49.1144L97.6941 0.818359L84.1641 14.3497L118.945 49.1144Z" stroke="#322D3E" stroke-width="0.67" stroke-miterlimit="10"/>
<path opacity="0.75" d="M146.679 49.1144L111.898 83.8982L125.428 97.4104L173.701 49.1144L125.428 0.818359L111.898 14.3497L146.679 49.1144Z" stroke="#322D3E" stroke-width="0.67" stroke-miterlimit="10"/>
<path opacity="0.69" d="M174.406 49.1144L139.625 83.8982L153.155 97.4104L201.427 49.1144L153.155 0.818359L139.625 14.3497L174.406 49.1144Z" stroke="#322D3E" stroke-width="0.67" stroke-miterlimit="10"/>
<path opacity="0.62" d="M202.136 49.1144L167.355 83.8982L180.866 97.4104L229.158 49.1144L180.866 0.818359L167.355 14.3497L202.136 49.1144Z" stroke="#322D3E" stroke-width="0.67" stroke-miterlimit="10"/>
<path opacity="0.56" d="M229.863 49.1144L195.082 83.8982L208.593 97.4104L256.885 49.1144L208.593 0.818359L195.082 14.3497L229.863 49.1144Z" stroke="#322D3E" stroke-width="0.67" stroke-miterlimit="10"/>
<path opacity="0.5" d="M257.593 49.1144L222.812 83.8982L236.323 97.4104L284.615 49.1144L236.323 0.818359L222.812 14.3497L257.593 49.1144Z" stroke="#322D3E" stroke-width="0.67" stroke-miterlimit="10"/>
<path opacity="0.44" d="M285.324 49.1144L250.543 83.8982L264.054 97.4104L312.345 49.1144L264.054 0.818359L250.543 14.3497L285.324 49.1144Z" stroke="#322D3E" stroke-width="0.67" stroke-miterlimit="10"/>
<path opacity="0.38" d="M313.05 49.1144L278.27 83.8982L291.78 97.4104L340.072 49.1144L291.78 0.818359L278.27 14.3497L313.05 49.1144Z" stroke="#322D3E" stroke-width="0.67" stroke-miterlimit="10"/>
<path opacity="0.31" d="M340.781 49.1144L306 83.8982L319.511 97.4104L367.802 49.1144L319.511 0.818359L306 14.3497L340.781 49.1144Z" stroke="#322D3E" stroke-width="0.67" stroke-miterlimit="10"/>
<path opacity="0.25" d="M368.507 49.1144L333.727 83.8982L347.238 97.4104L395.529 49.1144L347.238 0.818359L333.727 14.3497L368.507 49.1144Z" stroke="#322D3E" stroke-width="0.67" stroke-miterlimit="10"/>
<path opacity="0.19" d="M396.238 49.1144L361.457 83.8982L374.968 97.4104L423.26 49.1144L374.968 0.818359L361.457 14.3497L396.238 49.1144Z" stroke="#322D3E" stroke-width="0.67" stroke-miterlimit="10"/>
<path opacity="0.12" d="M423.964 49.1144L389.184 83.8982L402.695 97.4104L450.986 49.1144L402.695 0.818359L389.184 14.3497L423.964 49.1144Z" stroke="#322D3E" stroke-width="0.67" stroke-miterlimit="10"/>
<path opacity="0.06" d="M451.695 49.1144L416.914 83.8982L430.425 97.4104L478.717 49.1144L430.425 0.818359L416.914 14.3497L451.695 49.1144Z" stroke="#322D3E" stroke-width="0.67" stroke-miterlimit="10"/>
</svg>
