<svg width="986" height="282" viewBox="0 0 986 282" fill="none" xmlns="http://www.w3.org/2000/svg">
<path d="M0.00390625 288.81C0.806536 288.409 1.51361 287.836 2.27802 287.339C4.8388 291.429 7.62889 292.595 10.591 290.951C12.9224 289.651 13.9544 286.498 12.5784 284.032C12.0242 283.039 10.8776 281.701 9.97945 281.662C7.60978 281.586 5.221 282.14 2.50735 282.484C1.76205 281.318 0.921198 280.42 0.0230165 279.809V288.81H0.00390625Z" fill="#131313"/>
<path d="M5.37388 259.991C4.07439 257.984 1.99137 257.124 0.00390625 257.602V278.147C0.672765 278.013 1.32251 277.727 1.91493 277.325C4.74325 275.357 4.64769 272.337 1.64739 268.171C6.10007 265.208 7.17025 262.838 5.35477 259.991H5.37388Z" fill="#131313"/>
<path d="M32.7415 285.141C35.9138 288.868 36.0476 292.155 33.2766 294.2C30.8687 295.977 27.4098 295.366 25.8619 292.881C23.9508 289.823 25.193 287.033 29.0151 284.873C28.4991 282.427 27.7156 280.191 27.6773 277.936C27.6773 276.98 29.0724 275.738 30.1234 275.088C32.3785 273.693 35.3023 274.725 36.6591 277.133C38.2453 279.962 37.156 282.236 32.7224 285.141H32.7415Z" fill="#131313"/>
<path d="M10.0527 270.156C12.9575 270.156 15.2507 272.488 15.1742 275.393C15.0978 278.183 12.8619 280.381 10.0718 280.381C7.18617 280.381 4.89294 278.03 4.95027 275.144C5.0076 272.354 7.26261 270.156 10.0527 270.156Z" fill="#131313"/>
<path d="M21.2746 282.505C18.6947 282.563 16.1721 280.174 16.0575 277.555C15.9619 274.975 18.3316 272.414 20.9306 272.281C23.6251 272.147 26.2432 274.631 26.2623 277.345C26.2815 279.945 23.8545 282.429 21.2555 282.486L21.2746 282.505Z" fill="#131313"/>
<path d="M17.202 264.231C17.1447 266.907 14.6795 269.258 12.0231 269.162C9.3477 269.067 7.01625 266.563 7.15002 263.907C7.28379 261.326 9.63435 259.09 12.1951 259.109C14.8706 259.109 17.2593 261.556 17.202 264.231Z" fill="#131313"/>
<path d="M28.3221 266.297C28.3029 268.973 25.8568 271.343 23.2005 271.285C20.5251 271.228 18.1745 268.743 18.2892 266.087C18.3847 263.507 20.7162 261.252 23.2961 261.232C25.9715 261.232 28.3603 263.621 28.3412 266.297H28.3221Z" fill="#131313"/>
<path d="M43.3064 276.082C45.9628 276.005 48.428 278.375 48.4662 281.051C48.5044 283.727 46.1156 286.135 43.4402 286.135C40.8794 286.135 38.5289 283.88 38.4142 281.299C38.2996 278.643 40.631 276.158 43.3064 276.082Z" fill="#131313"/>
<path d="M3.25265 246.42C2.08692 246.401 0.940308 246.936 0.00390625 247.758V255.097C0.921198 255.919 2.06781 256.454 3.21443 256.435C5.67965 256.397 8.16398 253.912 8.16398 251.447C8.16398 249.001 5.71787 246.478 3.23354 246.44L3.25265 246.42Z" fill="#131313"/>
<path d="M19.1674 252.976C19.1865 255.594 16.9315 257.868 14.3134 257.907C11.6953 257.926 9.40204 255.67 9.38293 253.052C9.36382 250.453 11.6188 248.14 14.2369 248.121C16.855 248.102 19.1483 250.357 19.1674 252.976Z" fill="#131313"/>
<path d="M34.424 273.272C31.8059 273.272 29.5318 270.998 29.5509 268.38C29.5509 265.761 31.8441 263.487 34.4431 263.506C37.0612 263.506 39.3353 265.78 39.3162 268.399C39.3162 271.017 37.0421 273.291 34.424 273.272Z" fill="#131313"/>
<path d="M59.4412 283.231C59.4412 285.849 57.1671 288.123 54.549 288.104C51.9309 288.104 49.6568 285.83 49.6759 283.212C49.6759 280.593 51.95 278.319 54.5681 278.338C57.1862 278.357 59.4603 280.612 59.4412 283.231Z" fill="#131313"/>
<path d="M45.3356 274.652C42.4308 274.557 40.7109 272.607 40.8829 269.626C41.0358 266.835 42.8895 265.192 45.756 265.287C48.6608 265.383 50.3807 267.332 50.2087 270.314C50.0558 273.104 48.2021 274.748 45.3356 274.652Z" fill="#131313"/>
<path d="M9.42863 240.383C9.39041 243.25 7.61316 244.97 4.74662 244.97C1.78454 244.97 -0.0118251 243.078 0.102836 240.096C0.198388 237.268 2.03297 235.567 4.91862 235.643C7.76604 235.72 9.48596 237.516 9.44774 240.402L9.42863 240.383Z" fill="#131313"/>
<path d="M29.5671 255.137C29.5671 258.08 27.7134 259.877 24.7514 259.819C21.923 259.762 20.2031 257.985 20.2031 255.137C20.2031 252.194 22.0568 250.397 25.0189 250.454C27.8472 250.512 29.5671 252.289 29.5671 255.137Z" fill="#131313"/>
<path d="M36.1238 252.591C38.9712 252.649 40.7102 254.426 40.6911 257.293C40.6911 260.236 38.7801 262.033 35.7798 261.918C32.9706 261.803 31.2698 259.968 31.3462 257.083C31.4227 254.254 33.2381 252.534 36.1238 252.591Z" fill="#131313"/>
<path d="M61.0006 285.274C61.0388 282.407 62.797 280.668 65.6635 280.668C68.6256 280.668 70.422 282.56 70.3264 285.542C70.2309 288.37 68.4154 290.071 65.5298 290.014C62.6823 289.956 60.9624 288.16 61.0006 285.274Z" fill="#131313"/>
<path d="M56.1092 276.732C53.4338 276.732 51.4654 274.744 51.4845 272.049C51.4845 269.354 53.472 267.405 56.1665 267.424C58.8611 267.424 60.8103 269.412 60.7912 272.106C60.7912 274.801 58.8037 276.751 56.1092 276.732Z" fill="#131313"/>
<path d="M20.5289 242.104C20.4142 244.761 18.3503 246.653 15.6749 246.557C13.0186 246.462 11.1267 244.378 11.2222 241.703C11.3178 239.046 13.4008 237.154 16.0762 237.25C18.7325 237.345 20.6244 239.428 20.5098 242.104H20.5289Z" fill="#131313"/>
<path d="M51.7939 258.975C51.7366 261.556 49.5389 263.601 46.959 263.505C44.3791 263.409 42.3725 261.192 42.5063 258.593C42.6401 256.109 44.7231 254.178 47.2074 254.197C49.8064 254.236 51.8512 256.376 51.7939 258.975Z" fill="#131313"/>
<path d="M0.00390625 211.904V219.931C1.37984 219.186 2.35447 217.772 2.43091 216.128C2.50735 214.351 1.4945 212.726 0.00390625 211.923V211.904Z" fill="#131313"/>
<path d="M26.9697 248.6C24.5045 248.581 22.4215 246.517 22.4023 244.032C22.4023 241.452 24.5809 239.312 27.1608 239.407C29.626 239.503 31.6517 241.624 31.5944 244.109C31.537 246.574 29.4349 248.619 26.9697 248.6Z" fill="#131313"/>
<path d="M42.7141 246.036C42.7714 248.502 40.7457 250.623 38.2805 250.719C35.8153 250.795 33.6558 248.827 33.5412 246.361C33.4074 243.8 35.5286 241.564 38.1085 241.545C40.5737 241.545 42.6759 243.571 42.7141 246.036Z" fill="#131313"/>
<path d="M33.6948 232.853C33.6948 235.319 31.6691 237.402 29.2039 237.459C26.6431 237.517 24.4646 235.338 24.541 232.777C24.5983 230.312 26.7005 228.286 29.1657 228.305C31.6309 228.324 33.6948 230.388 33.6948 232.853Z" fill="#131313"/>
<path d="M49.365 243.67C51.8302 243.727 53.8559 245.83 53.8368 248.295C53.8177 250.856 51.5818 252.959 49.021 252.825C46.5749 252.691 44.5874 250.531 44.683 248.066C44.7785 245.62 46.9189 243.594 49.365 243.67Z" fill="#131313"/>
<path d="M71.8586 274.114C71.9159 276.579 69.8902 278.701 67.425 278.796C64.9598 278.873 62.8003 276.885 62.6857 274.42C62.5519 271.859 64.6732 269.623 67.253 269.604C69.7183 269.604 71.8204 271.629 71.8777 274.114H71.8586Z" fill="#131313"/>
<path d="M17.9471 226.717C20.4123 226.679 22.5144 228.705 22.5909 231.17C22.6673 233.636 20.6607 235.776 18.1955 235.872C15.6156 235.968 13.418 233.846 13.418 231.285C13.418 228.82 15.4819 226.736 17.9471 226.717Z" fill="#131313"/>
<path d="M11.468 229.279C11.4107 231.745 9.32768 233.79 6.84335 233.771C4.26347 233.771 2.16134 231.516 2.29511 228.955C2.42888 226.489 4.58834 224.501 7.05356 224.597C9.51878 224.693 11.5254 226.814 11.468 229.279Z" fill="#131313"/>
<path d="M62.8615 260.926C62.8615 263.391 60.8358 265.493 58.3706 265.551C55.7907 265.608 53.6313 263.448 53.6886 260.868C53.7459 258.403 55.8481 256.358 58.3133 256.377C60.7785 256.396 62.8424 258.46 62.8615 260.926Z" fill="#131313"/>
<path d="M82.98 275.777C82.98 278.243 80.9543 280.326 78.4891 280.383C75.9092 280.441 73.7497 278.262 73.8262 275.701C73.8835 273.235 75.9856 271.21 78.4509 271.229C80.9161 271.248 82.98 273.312 82.98 275.796V275.777Z" fill="#131313"/>
<path d="M64.8086 263.085C64.8086 260.62 66.8534 258.537 69.3186 258.499C71.8794 258.46 74.0388 260.639 73.9624 263.2C73.886 265.666 71.7838 267.672 69.3186 267.634C66.8534 267.596 64.8086 265.532 64.8086 263.066V263.085Z" fill="#131313"/>
<path d="M94.021 277.86C94.0592 280.383 92.0335 282.428 89.511 282.428C86.9884 282.428 84.9818 280.383 85.0201 277.86C85.0583 275.433 86.9693 273.502 89.3963 273.426C91.9189 273.35 93.9828 275.337 94.021 277.86Z" fill="#131313"/>
<path d="M60.2599 254.334C57.7374 254.277 55.769 252.156 55.8837 249.652C55.9792 247.148 58.1196 245.199 60.623 245.333C63.0309 245.466 64.9037 247.473 64.8655 249.881C64.8273 252.385 62.7634 254.392 60.2408 254.334H60.2599Z" fill="#131313"/>
<path d="M44.7405 234.932C44.7787 237.455 42.7721 239.5 40.2496 239.481C37.8417 239.481 35.8542 237.589 35.7587 235.181C35.644 232.677 37.6124 230.556 40.1349 230.498C42.6575 230.422 44.7214 232.409 44.7596 234.932H44.7405Z" fill="#131313"/>
<path d="M13.4976 217.983C13.5358 220.506 11.5101 222.551 8.98754 222.551C6.46499 222.551 4.45841 220.506 4.49663 217.983C4.53485 215.556 6.44587 213.625 8.87287 213.549C11.3954 213.473 13.4593 215.46 13.4976 217.983Z" fill="#131313"/>
<path d="M71.473 256.434C69.1225 256.415 66.9248 254.141 67.0395 251.79C67.135 249.535 69.2945 247.471 71.5495 247.471C73.9 247.49 76.0977 249.764 75.983 252.115C75.8875 254.37 73.728 256.453 71.473 256.434Z" fill="#131313"/>
<path d="M80.7053 260.2C83.0941 260.315 85.1771 262.665 84.986 264.997C84.7949 267.271 82.559 269.259 80.3231 269.144C77.9343 269.03 75.8513 266.679 76.0615 264.347C76.2526 262.054 78.4694 260.085 80.7244 260.2H80.7053Z" fill="#131313"/>
<path d="M55.8427 237.036C55.9 239.387 53.6832 241.623 51.3136 241.604C49.0586 241.585 46.9373 239.483 46.88 237.209C46.8227 234.858 49.0586 232.622 51.4091 232.641C53.6641 232.66 55.7854 234.762 55.8427 237.036Z" fill="#131313"/>
<path d="M24.5998 220.181C24.5998 222.532 22.3257 224.73 19.9943 224.653C17.7202 224.577 15.6562 222.436 15.6562 220.181C15.6562 217.811 17.9304 215.633 20.2618 215.709C22.5168 215.785 24.5998 217.945 24.5998 220.181Z" fill="#131313"/>
<path d="M31.3446 217.39C33.7525 217.447 35.6635 219.454 35.6061 221.843C35.5488 224.251 33.5422 226.162 31.1535 226.105C28.7456 226.048 26.8346 224.041 26.8919 221.652C26.9492 219.244 28.9558 217.333 31.3446 217.39Z" fill="#131313"/>
<path d="M0.175898 200.455C0.175898 200.455 0.061237 200.455 0.00390625 200.455V209.151C2.29713 209.151 4.24638 207.335 4.34193 205.004C4.45659 202.596 2.58379 200.57 0.175898 200.455Z" fill="#131313"/>
<path d="M100.657 284.395C98.2496 284.395 96.2812 282.464 96.2812 280.056C96.2812 277.648 98.2114 275.68 100.619 275.68C103.027 275.68 104.996 277.61 104.996 280.018C104.996 282.426 103.065 284.376 100.657 284.395Z" fill="#131313"/>
<path d="M58.1596 238.527C58.2743 236.271 60.6248 234.188 62.8225 234.379C64.9628 234.571 66.9694 236.807 66.8547 238.909C66.7401 241.164 64.3704 243.247 62.1919 243.056C60.0324 242.865 58.064 240.629 58.1596 238.527Z" fill="#131313"/>
<path d="M46.1928 223.755C46.2692 225.972 44.0524 228.227 41.8165 228.227C39.6953 228.227 37.5549 226.124 37.4785 223.984C37.402 221.767 39.6188 219.512 41.8547 219.512C43.976 219.512 46.1163 221.614 46.1928 223.755Z" fill="#131313"/>
<path d="M91.6809 262.436C93.9168 262.455 96.0954 264.748 95.9807 266.965C95.8852 269.106 93.7066 271.17 91.5854 271.151C89.3495 271.132 87.1709 268.838 87.2856 266.621C87.3811 264.5 89.5597 262.416 91.6809 262.455V262.436Z" fill="#131313"/>
<path d="M14.72 206.936C14.72 209.344 12.981 211.065 10.5731 211.065C8.16523 211.065 6.44531 209.325 6.44531 206.917C6.44531 204.509 8.18434 202.789 10.5922 202.789C13.0001 202.789 14.72 204.528 14.72 206.936Z" fill="#131313"/>
<path d="M106.888 268.859C106.908 271.306 105.188 273.045 102.741 273.026C100.41 273.026 98.7283 271.401 98.6328 269.089C98.5372 266.642 100.219 264.846 102.646 264.789C105.092 264.731 106.85 266.432 106.888 268.859Z" fill="#131313"/>
<path d="M86.7669 254.047C86.7669 256.455 85.0661 258.194 82.6582 258.213C80.2503 258.213 78.5113 256.512 78.4922 254.104C78.4922 251.677 80.193 249.957 82.6009 249.938C85.0088 249.938 86.7478 251.639 86.7669 254.047Z" fill="#131313"/>
<path d="M25.8455 209.172C25.7881 211.58 23.9727 213.281 21.5266 213.186C19.2142 213.09 17.5898 211.408 17.5898 209.058C17.5898 206.611 19.3289 204.891 21.775 204.91C24.202 204.949 25.9028 206.726 25.8455 209.172Z" fill="#131313"/>
<path d="M77.223 240.858C77.223 243.305 75.4457 245.006 72.9996 244.948C70.5726 244.891 68.8909 243.114 68.9673 240.667C69.0438 238.355 70.7255 236.73 73.0569 236.711C75.503 236.692 77.2421 238.431 77.223 240.858Z" fill="#131313"/>
<path d="M111.701 285.754C109.274 285.716 107.573 283.958 107.63 281.492C107.688 279.065 109.503 277.402 111.949 277.498C114.262 277.594 115.886 279.275 115.886 281.626C115.886 284.053 114.128 285.793 111.701 285.754Z" fill="#131313"/>
<path d="M57.0851 226.03C57.0851 228.457 55.3079 230.177 52.8618 230.12C50.5303 230.062 48.8868 228.419 48.8295 226.087C48.7722 223.641 50.4921 221.882 52.9191 221.863C55.3652 221.863 57.0851 223.583 57.0851 226.03Z" fill="#131313"/>
<path d="M99.3928 244.607C99.3737 246.881 97.6347 248.582 95.3606 248.601C93.0864 248.601 91.3474 246.9 91.3092 244.626C91.271 242.237 93.0864 240.44 95.4752 240.497C97.7493 240.555 99.4119 242.313 99.3928 244.607Z" fill="#131313"/>
<path d="M88.27 243.057C88.2127 245.351 86.4737 247.032 84.1805 247.013C81.7917 246.994 80.0335 245.121 80.1673 242.713C80.282 240.439 82.0974 238.795 84.3907 238.891C86.6839 238.986 88.3274 240.745 88.2892 243.057H88.27Z" fill="#131313"/>
<path d="M16.7642 195.831C16.7451 198.125 15.0252 199.826 12.7319 199.845C10.4387 199.845 8.69968 198.163 8.66146 195.869C8.60413 193.48 10.4387 191.665 12.8275 191.722C15.1207 191.779 16.8024 193.538 16.7833 195.831H16.7642Z" fill="#131313"/>
<path d="M1.76205 190.137C1.13141 190.118 0.538993 190.232 0.00390625 190.443V197.954C0.462552 198.145 0.978528 198.259 1.51361 198.259C3.80684 198.298 5.56498 196.616 5.64143 194.322C5.69876 192.029 4.05528 190.232 1.76205 190.137Z" fill="#131313"/>
<path d="M59.1303 214.811C59.1685 217.104 57.4868 218.863 55.2127 218.92C52.9195 218.977 51.1422 217.334 51.0466 215.059C50.9511 212.67 52.7283 210.816 55.098 210.816C57.3912 210.816 59.1112 212.517 59.1494 214.811H59.1303Z" fill="#131313"/>
<path d="M44.0755 216.814C41.7823 216.871 39.9859 215.228 39.8904 212.934C39.7948 210.545 41.5721 208.672 43.9609 208.692C46.2541 208.692 47.9931 210.412 48.0122 212.686C48.0314 214.979 46.3497 216.738 44.0755 216.795V216.814Z" fill="#131313"/>
<path d="M36.9033 210.583C36.9224 212.953 35.126 214.75 32.7563 214.692C30.4822 214.654 28.8005 212.934 28.7814 210.679C28.7623 208.29 30.5587 206.512 32.9283 206.57C35.2024 206.608 36.8841 208.328 36.9033 210.602V210.583Z" fill="#131313"/>
<path d="M113.958 266.965C116.252 267.004 117.933 268.743 117.933 271.036C117.933 273.33 116.213 275.05 113.939 275.088C111.55 275.107 109.754 273.272 109.83 270.883C109.907 268.609 111.665 266.927 113.958 266.965Z" fill="#131313"/>
<path d="M126.956 283.803C126.917 286.097 125.198 287.798 122.904 287.798C120.515 287.798 118.738 285.944 118.853 283.536C118.948 281.262 120.745 279.618 123.038 279.675C125.331 279.752 126.994 281.491 126.956 283.803Z" fill="#131313"/>
<path d="M68.149 227.518C68.1872 229.811 66.5055 231.57 64.2123 231.646C61.919 231.703 60.1227 230.06 60.0271 227.785C59.9316 225.377 61.7088 223.523 64.0976 223.523C66.3908 223.523 68.1107 225.224 68.149 227.518Z" fill="#131313"/>
<path d="M108.398 257.793C108.398 260.086 106.697 261.806 104.404 261.844C102.015 261.883 100.219 260.048 100.295 257.659C100.372 255.384 102.111 253.703 104.404 253.741C106.697 253.779 108.398 255.499 108.398 257.793Z" fill="#131313"/>
<path d="M75.3189 225.646C77.593 225.703 79.2747 227.443 79.2556 229.736C79.2365 232.125 77.3637 233.864 74.9749 233.749C72.7008 233.616 71.0764 231.819 71.172 229.526C71.2675 227.251 73.0448 225.589 75.338 225.646H75.3189Z" fill="#131313"/>
<path d="M97.2933 255.671C97.2933 257.945 95.6116 259.665 93.3375 259.723C90.9678 259.78 89.1523 258.022 89.1523 255.652C89.1523 253.282 90.9869 251.524 93.3566 251.6C95.6116 251.677 97.2933 253.397 97.2742 255.671H97.2933Z" fill="#131313"/>
<path d="M23.7941 201.967C21.5009 201.967 19.8001 200.246 19.7619 197.953C19.7428 195.564 21.5773 193.767 23.9661 193.863C26.2402 193.939 27.9028 195.717 27.8646 198.01C27.8073 200.285 26.0682 201.986 23.7941 201.967Z" fill="#131313"/>
<path d="M34.9773 204.068C32.8369 204.068 30.9068 202.119 30.9259 199.997C30.9641 197.857 32.9516 195.945 35.0728 196.022C37.0985 196.079 38.9522 197.952 38.9904 199.959C39.0287 202.08 37.0985 204.068 34.9773 204.068Z" fill="#131313"/>
<path d="M137.982 285.869C137.982 287.894 136.205 289.748 134.16 289.825C132.039 289.901 130.09 288.009 130.09 285.869C130.09 283.728 132.039 281.836 134.16 281.912C136.186 281.989 137.982 283.843 137.982 285.869Z" fill="#131313"/>
<path d="M66.0927 220.943C63.9523 220.867 62.1178 218.86 62.2706 216.738C62.4044 214.693 64.3154 212.973 66.3411 213.031C68.4815 213.107 70.316 215.114 70.1632 217.235C70.0294 219.28 68.1184 221 66.0927 220.943Z" fill="#131313"/>
<path d="M128.445 272.508C128.502 274.629 126.61 276.579 124.47 276.559C122.444 276.559 120.609 274.744 120.552 272.718C120.495 270.596 122.406 268.647 124.527 268.666C126.553 268.666 128.387 270.463 128.445 272.508Z" fill="#131313"/>
<path d="M86.4014 227.881C88.5417 227.92 90.4145 229.888 90.2999 232.01C90.2043 234.055 88.3315 235.813 86.3058 235.775C84.1655 235.737 82.2927 233.768 82.4073 231.647C82.5029 229.621 84.3757 227.843 86.4014 227.881Z" fill="#131313"/>
<path d="M3.78773 179.128C2.12514 179.09 0.596324 180.236 0.00390625 181.784V184.422C0.577213 185.874 2.01048 187.002 3.59663 187.04C5.62232 187.098 7.51423 185.358 7.62889 183.313C7.76266 181.192 5.92808 179.204 3.78773 179.147V179.128Z" fill="#131313"/>
<path d="M77.3044 222.512C75.3743 222.512 73.4251 220.544 73.3868 218.613C73.3677 216.587 75.4699 214.542 77.4764 214.638C79.4066 214.734 81.3176 216.759 81.2603 218.671C81.2029 220.601 79.2155 222.531 77.2853 222.512H77.3044Z" fill="#131313"/>
<path d="M46.0427 205.559C44.1126 205.559 42.1442 203.591 42.1251 201.66C42.106 199.615 44.2081 197.589 46.2338 197.685C48.164 197.78 50.075 199.806 50.0177 201.718C49.9603 203.648 47.9729 205.578 46.0427 205.559Z" fill="#131313"/>
<path d="M110.401 246.747C110.344 248.677 108.356 250.608 106.426 250.589C104.4 250.589 102.375 248.429 102.528 246.422C102.661 244.492 104.725 242.619 106.617 242.714C108.547 242.81 110.458 244.836 110.401 246.747Z" fill="#131313"/>
<path d="M119.42 259.934C119.42 261.864 117.451 263.832 115.521 263.851C113.476 263.871 111.451 261.768 111.546 259.742C111.642 257.812 113.667 255.901 115.578 255.958C117.509 256.016 119.439 258.003 119.42 259.934Z" fill="#131313"/>
<path d="M14.9509 180.733C16.881 180.809 18.8112 182.816 18.773 184.727C18.7347 186.772 16.5753 188.76 14.5878 188.607C12.6577 188.454 10.7849 186.371 10.8995 184.479C11.0142 182.548 13.059 180.656 14.97 180.733H14.9509Z" fill="#131313"/>
<path d="M29.8892 186.716C29.9465 188.627 28.0355 190.653 26.1053 190.73C24.0988 190.825 21.9966 188.761 22.0158 186.735C22.054 184.805 24.0223 182.855 25.9334 182.855C27.8444 182.855 29.8318 184.786 29.8892 186.716Z" fill="#131313"/>
<path d="M101.29 233.903C101.309 235.967 99.5127 237.783 97.4488 237.783C95.3849 237.783 93.5885 235.929 93.6459 233.884C93.6841 231.935 95.404 230.215 97.3533 230.138C99.398 230.081 101.271 231.858 101.29 233.922V233.903Z" fill="#131313"/>
<path d="M130.413 261.5C130.413 263.545 128.578 265.361 126.533 265.304C124.488 265.265 122.711 263.392 122.788 261.347C122.864 259.398 124.603 257.697 126.533 257.659C128.578 257.621 130.413 259.417 130.413 261.481V261.5Z" fill="#131313"/>
<path d="M40.9018 188.989C40.8444 191.034 38.9716 192.811 36.9268 192.716C34.882 192.62 33.143 190.709 33.2768 188.683C33.3914 186.734 35.1687 185.071 37.1179 185.09C39.1627 185.09 40.9591 186.963 40.9209 189.008L40.9018 188.989Z" fill="#131313"/>
<path d="M68.3989 202.042C70.4437 202.08 72.221 203.953 72.1445 205.998C72.0681 208.043 70.1571 209.782 68.1314 209.667C66.1821 209.553 64.5195 207.794 64.5195 205.845C64.5195 203.8 66.3541 202.003 68.418 202.042H68.3989Z" fill="#131313"/>
<path d="M57.1793 207.565C55.1154 207.565 53.319 205.711 53.3763 203.666C53.4146 201.602 55.3065 199.844 57.3513 199.92C59.3005 199.997 61.0013 201.736 61.0395 203.705C61.0778 205.749 59.2432 207.584 57.1984 207.584L57.1793 207.565Z" fill="#131313"/>
<path d="M135.63 278.568C133.586 278.568 131.77 276.752 131.789 274.707C131.808 272.662 133.662 270.866 135.707 270.923C137.656 270.981 139.376 272.701 139.414 274.65C139.472 276.695 137.675 278.549 135.611 278.568H135.63Z" fill="#131313"/>
<path d="M92.0591 220.677C92.0591 222.913 90.6641 224.327 88.409 224.308C86.1732 224.289 84.7781 222.856 84.8546 220.6C84.931 218.383 86.1349 217.199 88.3517 217.122C90.5876 217.046 92.04 218.46 92.04 220.696L92.0591 220.677Z" fill="#131313"/>
<path d="M117.681 252.381C115.445 252.419 114.012 251.024 114.012 248.788C114.012 246.552 115.426 245.118 117.662 245.175C119.879 245.233 121.102 246.399 121.197 248.616C121.293 250.852 119.898 252.323 117.681 252.362V252.381Z" fill="#131313"/>
<path d="M9.40494 172.056C9.34761 174.273 7.89524 175.668 5.64023 175.534C3.42344 175.419 2.25772 174.196 2.2195 171.979C2.18128 169.743 3.61454 168.329 5.85044 168.348C8.08634 168.348 9.46228 169.8 9.40494 172.056Z" fill="#131313"/>
<path d="M105.054 235.337C105.149 233.292 106.64 231.935 108.723 231.992C110.882 232.068 112.296 233.693 112.105 235.853C111.933 237.878 110.385 239.197 108.322 239.044C106.277 238.911 104.939 237.382 105.054 235.317V235.337Z" fill="#131313"/>
<path d="M137.693 267.141C135.629 267.141 134.215 265.707 134.195 263.643C134.176 261.483 135.705 259.993 137.884 260.069C139.929 260.146 141.305 261.617 141.247 263.681C141.19 265.726 139.757 267.141 137.693 267.122V267.141Z" fill="#131313"/>
<path d="M19.954 173.49C19.9731 175.554 18.5972 177.006 16.5333 177.064C14.4694 177.121 12.9788 175.745 12.8832 173.7C12.7877 171.521 14.2783 169.973 16.4378 169.992C18.5017 169.992 19.9349 171.407 19.954 173.49Z" fill="#131313"/>
<path d="M27.6357 172.133C29.6996 172.19 31.0755 173.642 31.0564 175.707C31.0373 177.866 29.4703 179.319 27.2917 179.185C25.266 179.07 23.9092 177.56 24.0047 175.477C24.0812 173.432 25.5718 172.075 27.6357 172.133Z" fill="#131313"/>
<path d="M150.263 276.906C150.244 278.97 148.83 280.384 146.766 280.384C144.702 280.384 143.269 279.008 143.212 276.944C143.173 274.784 144.683 273.274 146.843 273.332C148.906 273.389 150.282 274.841 150.263 276.906Z" fill="#131313"/>
<path d="M51.1994 190.403C51.2568 192.467 49.8808 193.957 47.8169 194.034C45.6384 194.129 44.0904 192.62 44.1096 190.46C44.1096 188.396 45.5428 186.962 47.6067 186.943C49.6706 186.943 51.123 188.339 51.1803 190.384L51.1994 190.403Z" fill="#131313"/>
<path d="M62.3258 192.716C62.2685 194.78 60.8161 196.156 58.7522 196.137C56.5928 196.118 55.1404 194.551 55.2742 192.372C55.3888 190.346 56.9176 188.989 58.9815 189.085C61.0263 189.161 62.3832 190.652 62.3449 192.716H62.3258Z" fill="#131313"/>
<path d="M82.4638 207.568C82.4065 209.632 80.9541 211.008 78.8902 210.989C76.7308 210.97 75.2784 209.383 75.3931 207.224C75.5077 205.198 77.0365 203.841 79.1004 203.936C81.1452 204.013 82.5212 205.504 82.4638 207.587V207.568Z" fill="#131313"/>
<path d="M103.12 222.781C103.139 224.845 101.744 226.297 99.6989 226.355C97.5394 226.412 96.0106 224.902 96.068 222.724C96.1253 220.679 97.5586 219.264 99.6225 219.283C101.686 219.283 103.101 220.717 103.12 222.781Z" fill="#131313"/>
<path d="M132.223 250.473C132.166 252.346 130.408 253.97 128.554 253.856C126.681 253.76 125.018 251.964 125.248 250.11C125.496 248.103 126.719 246.937 128.764 246.861C130.637 246.803 132.28 248.581 132.223 250.454V250.473Z" fill="#131313"/>
<path d="M38.5506 181.288C36.6778 181.211 35.0726 179.472 35.1681 177.599C35.2828 175.726 37.06 174.063 38.9137 174.312C40.9203 174.579 42.086 175.783 42.1434 177.828C42.2007 179.721 40.4234 181.345 38.5506 181.269V181.288Z" fill="#131313"/>
<path d="M123.211 237.574C123.268 239.447 121.606 241.224 119.733 241.148C117.688 241.071 116.484 239.886 116.236 237.88C116.007 236.026 117.688 234.248 119.561 234.172C121.434 234.076 123.154 235.701 123.211 237.574Z" fill="#131313"/>
<path d="M73.4066 194.837C73.3493 196.71 71.6103 198.334 69.7375 198.239C67.8647 198.143 66.2021 196.366 66.4314 194.512C66.6798 192.505 67.9029 191.34 69.9477 191.263C71.8205 191.206 73.464 192.983 73.4066 194.856V194.837Z" fill="#131313"/>
<path d="M89.9369 213.071C88.0641 213.014 86.4397 211.275 86.5353 209.402C86.6308 207.529 88.4081 205.866 90.2618 206.095C92.2683 206.344 93.4341 207.567 93.5105 209.612C93.5678 211.485 91.7906 213.129 89.9178 213.071H89.9369Z" fill="#131313"/>
<path d="M60.9455 178.037C62.9329 178.343 64.2706 179.394 64.2898 181.439C64.2898 183.465 63.0476 184.688 61.0219 184.86C59.1682 185.032 57.3719 183.236 57.5247 181.382C57.6967 179.337 58.958 178.286 60.9455 178.037Z" fill="#131313"/>
<path d="M7.6671 157.416C9.40614 157.664 10.6674 158.716 10.8012 160.78C10.9158 162.653 9.11948 164.411 7.26579 164.239C5.2401 164.029 4.07438 162.825 4.01705 160.761C3.95972 158.983 5.64142 157.416 7.6671 157.416Z" fill="#131313"/>
<path d="M152.272 265.99C152.023 267.73 150.953 269.067 148.908 269.106C146.864 269.125 145.66 267.863 145.469 265.857C145.297 264.003 147.074 262.283 148.947 262.321C150.724 262.359 152.291 263.984 152.272 265.99Z" fill="#131313"/>
<path d="M21.9818 162.919C21.7143 164.926 20.6632 166.187 18.6184 166.34C16.7647 166.493 14.9684 164.696 15.1403 162.843C15.3123 160.817 16.5354 159.555 18.5802 159.574C20.625 159.574 21.6952 160.931 21.9818 162.919Z" fill="#131313"/>
<path d="M84.4867 196.443C84.1236 198.411 83.0534 199.654 80.9895 199.711C79.1167 199.768 77.3968 197.914 77.6643 196.08C77.9319 194.073 79.1931 192.85 81.2379 192.964C83.2636 193.079 84.3147 194.436 84.5058 196.462L84.4867 196.443Z" fill="#131313"/>
<path d="M29.5879 161.088C31.5754 161.317 32.8558 162.349 33.0469 164.394C33.2189 166.229 31.4607 168.064 29.6071 167.93C27.5814 167.777 26.3201 166.573 26.301 164.547C26.2819 162.502 27.6196 161.432 29.5879 161.088Z" fill="#131313"/>
<path d="M134.292 239.867C133.948 241.835 132.877 243.078 130.813 243.173C128.96 243.25 127.221 241.396 127.45 239.561C127.718 237.554 128.96 236.312 130.985 236.407C133.011 236.503 134.062 237.86 134.272 239.867H134.292Z" fill="#131313"/>
<path d="M157.854 274.992C159.842 275.279 161.18 276.33 161.218 278.375C161.256 280.42 159.995 281.624 157.988 281.834C156.134 282.025 154.338 280.229 154.472 278.375C154.625 276.33 155.867 275.279 157.873 274.992H157.854Z" fill="#131313"/>
<path d="M104.578 212.018C104.272 213.757 103.202 214.999 101.138 215.076C99.2651 215.152 97.5452 213.298 97.7745 211.464C98.0421 209.457 99.2651 208.31 101.31 208.291C103.068 208.291 104.616 210.03 104.559 211.999L104.578 212.018Z" fill="#131313"/>
<path d="M140.028 249.058C141.996 249.46 143.219 250.549 143.239 252.613C143.239 254.486 141.366 256.149 139.531 255.862C137.544 255.537 136.321 254.276 136.493 252.231C136.645 250.205 138.021 249.192 140.028 249.039V249.058Z" fill="#131313"/>
<path d="M110.1 220.965C112.106 221.194 113.387 222.226 113.578 224.271C113.75 226.125 111.992 227.941 110.138 227.807C108.093 227.673 106.832 226.45 106.813 224.424C106.794 222.36 108.131 221.29 110.119 220.965H110.1Z" fill="#131313"/>
<path d="M121.545 223.123C123.284 223.372 124.622 224.423 124.66 226.468C124.698 228.494 123.437 229.717 121.431 229.908C119.596 230.099 117.857 228.302 117.895 226.468C117.933 224.709 119.558 223.123 121.545 223.123Z" fill="#131313"/>
<path d="M53.2071 180.178C52.9395 181.917 51.8694 183.178 49.8246 183.293C47.9518 183.388 46.1936 181.573 46.4038 179.719C46.6332 177.693 47.8562 176.527 49.901 176.489C51.6783 176.451 53.2262 178.152 53.2071 180.178Z" fill="#131313"/>
<path d="M40.8025 163.359C42.6562 163.359 44.1277 164.888 44.0704 166.742C44.013 168.596 42.4842 170.087 40.6305 169.934C38.7004 169.781 37.6111 168.634 37.4964 166.704C37.4009 164.85 38.9297 163.359 40.8025 163.379V163.359Z" fill="#131313"/>
<path d="M75.317 183.579C75.317 185.433 73.8455 186.905 71.9918 186.885C70.1381 186.866 68.6284 185.337 68.7622 183.483C68.8959 181.534 70.0234 180.445 71.9536 180.311C73.7882 180.177 75.317 181.706 75.317 183.56V183.579Z" fill="#131313"/>
<path d="M95.461 198.508C95.4228 200.362 93.894 201.853 92.0403 201.719C90.1102 201.566 89.0018 200.439 88.8871 198.508C88.7916 196.654 90.3013 195.145 92.155 195.145C94.0087 195.145 95.4801 196.654 95.4419 198.508H95.461Z" fill="#131313"/>
<path d="M112.314 209.992C114.187 210.298 115.372 211.292 115.525 213.222C115.658 214.942 113.862 216.7 112.161 216.49C110.269 216.261 109.046 215.114 109.103 213.184C109.161 211.273 110.441 210.26 112.314 209.992Z" fill="#131313"/>
<path d="M141.534 244.375C139.681 244.298 138.534 243.4 138.457 241.508C138.381 239.654 139.317 238.469 141.228 238.373C143.216 238.278 144.401 239.291 144.439 241.317C144.477 243.209 143.407 244.183 141.553 244.355L141.534 244.375Z" fill="#131313"/>
<path d="M162.995 267.251C162.919 269.086 162.02 270.232 160.128 270.309C158.275 270.385 157.09 269.43 156.994 267.538C156.899 265.55 157.931 264.365 159.956 264.346C161.848 264.327 162.823 265.378 162.995 267.27V267.251Z" fill="#131313"/>
<path d="M153.995 254.658C153.861 256.551 152.867 257.602 150.975 257.602C148.95 257.602 147.899 256.417 147.994 254.41C148.09 252.518 149.256 251.562 151.109 251.62C153.001 251.677 153.918 252.824 153.995 254.658Z" fill="#131313"/>
<path d="M171.995 280.572C171.881 282.426 170.925 283.535 169.052 283.554C167.027 283.554 165.957 282.445 166.014 280.439C166.071 278.547 167.18 277.553 169.052 277.591C170.944 277.629 171.881 278.719 172.015 280.572H171.995Z" fill="#131313"/>
<path d="M51.9282 165.75C53.8966 165.922 54.9286 166.935 54.8903 168.827C54.8521 170.853 53.6482 171.866 51.6607 171.751C49.7497 171.637 48.8515 170.432 48.9088 168.598C48.9853 166.686 50.1701 165.846 51.9091 165.75H51.9282Z" fill="#131313"/>
<path d="M97.2761 187.326C97.0659 189.18 96.0913 190.308 94.2185 190.25C92.3457 190.193 91.2946 189.046 91.3711 187.173C91.4284 185.434 92.4986 184.402 94.2567 184.383C96.1486 184.364 97.1042 185.492 97.2953 187.326H97.2761Z" fill="#131313"/>
<path d="M106.292 200.476C106.139 202.33 105.222 203.477 103.311 203.515C101.552 203.534 100.444 202.521 100.348 200.782C100.234 198.909 101.266 197.724 103.139 197.609C105.03 197.514 106.043 198.622 106.292 200.476Z" fill="#131313"/>
<path d="M63.0667 167.375C64.9204 167.585 66.0479 168.579 65.9715 170.471C65.9141 172.363 64.7293 173.395 62.8565 173.319C61.1175 173.242 60.0855 172.153 60.0664 170.414C60.0664 168.522 61.1939 167.566 63.0476 167.375H63.0667Z" fill="#131313"/>
<path d="M132.458 225.646C134.311 225.856 135.439 226.85 135.382 228.742C135.324 230.634 134.139 231.666 132.267 231.59C130.509 231.513 129.477 230.424 129.477 228.666C129.477 226.774 130.604 225.799 132.458 225.627V225.646Z" fill="#131313"/>
<path d="M161.983 253.742C163.818 253.857 165.003 254.774 165.041 256.666C165.079 258.539 163.99 259.648 162.098 259.667C160.359 259.667 159.27 258.654 159.174 256.915C159.078 255.042 160.129 254.01 161.983 253.742Z" fill="#131313"/>
<path d="M86.1697 185.662C85.9404 187.63 84.9275 188.739 83.0356 188.681C81.2775 188.624 80.2264 187.573 80.2073 185.814C80.1882 183.941 81.2583 182.795 83.1503 182.776C85.0613 182.757 85.9786 183.961 86.1888 185.662H86.1697Z" fill="#131313"/>
<path d="M31.8015 150.421C33.6552 150.632 34.7636 151.626 34.7063 153.518C34.6298 155.391 33.4641 156.442 31.5913 156.346C29.8523 156.27 28.8203 155.18 28.8203 153.422C28.8203 151.53 29.9478 150.574 31.8015 150.402V150.421Z" fill="#131313"/>
<path d="M20.5442 148.814C22.3979 148.948 23.5636 149.885 23.5827 151.777C23.5827 153.669 22.4935 154.758 20.6015 154.758C18.8434 154.758 17.7732 153.707 17.6777 151.968C17.5821 150.076 18.6714 149.063 20.5442 148.814Z" fill="#131313"/>
<path d="M8.94523 153.132C8.1426 152.004 6.88132 150.972 6.652 149.73C6.32712 147.953 7.60751 146.768 9.4612 146.729C11.3149 146.691 12.6526 147.819 12.3851 149.596C12.194 150.839 10.99 151.928 10.2256 153.094H8.94523V153.132Z" fill="#131313"/>
<path d="M123.345 218.383C121.492 218.135 120.402 217.122 120.498 215.23C120.574 213.491 121.645 212.439 123.403 212.439C125.276 212.439 126.384 213.529 126.384 215.402C126.384 217.313 125.199 218.23 123.365 218.364L123.345 218.383Z" fill="#131313"/>
<path d="M143.027 233.559C142.244 232.489 140.983 231.514 140.772 230.348C140.448 228.552 141.747 227.367 143.62 227.405C145.359 227.424 146.601 228.571 146.314 230.234C146.123 231.419 144.939 232.432 144.193 233.54C143.792 233.54 143.41 233.54 143.008 233.559H143.027Z" fill="#131313"/>
<path d="M137.865 218.002C136.814 218.805 135.858 220.028 134.673 220.277C133.03 220.64 131.826 219.436 131.711 217.716C131.597 215.862 132.705 214.505 134.501 214.734C135.667 214.887 136.718 216.091 137.827 216.817C137.827 217.2 137.846 217.601 137.865 217.983V218.002Z" fill="#131313"/>
<path d="M117.743 203.17C116.692 203.973 115.718 205.196 114.552 205.464C112.889 205.827 111.685 204.642 111.571 202.903C111.456 201.049 112.545 199.673 114.38 199.902C115.565 200.055 116.616 201.259 117.705 201.985C117.705 202.387 117.724 202.769 117.743 203.17Z" fill="#131313"/>
<path d="M54.5225 154.339C55.306 155.391 56.5673 156.365 56.7775 157.531C57.1024 159.328 55.822 160.513 53.9492 160.494C52.2101 160.494 50.968 159.328 51.2355 157.665C51.4266 156.48 52.6115 155.448 53.3376 154.359C53.7198 154.359 54.1212 154.339 54.5034 154.32L54.5225 154.339Z" fill="#131313"/>
<path d="M183.446 283.172C182.395 283.975 181.421 285.198 180.255 285.466C178.592 285.829 177.388 284.644 177.274 282.905C177.159 281.051 178.267 279.694 180.083 279.904C181.268 280.057 182.3 281.261 183.408 281.988C183.408 282.389 183.427 282.771 183.446 283.172Z" fill="#131313"/>
<path d="M46.1908 156.174C45.1015 156.919 44.0696 158.142 42.9038 158.314C41.0884 158.563 39.9609 157.225 40.0564 155.371C40.1329 153.632 41.3368 152.428 42.9994 152.772C44.1842 153.02 45.1588 154.224 46.229 155.008C46.229 155.409 46.229 155.791 46.2099 156.193L46.1908 156.174Z" fill="#131313"/>
<path d="M170.586 272.757C169.803 271.687 168.541 270.712 168.331 269.547C168.006 267.75 169.306 266.565 171.179 266.584C172.918 266.603 174.16 267.75 173.892 269.432C173.701 270.617 172.516 271.649 171.771 272.738C171.37 272.738 170.987 272.738 170.586 272.757Z" fill="#131313"/>
<path d="M77.4591 173.108C76.3698 173.853 75.357 175.057 74.1722 175.267C72.5096 175.573 71.3438 174.331 71.3056 172.592C71.2674 170.719 72.414 169.419 74.2295 169.706C75.3952 169.897 76.3889 171.139 77.4782 171.923C77.4782 172.324 77.4782 172.706 77.4782 173.108H77.4591Z" fill="#131313"/>
<path d="M14.931 139.144C13.8608 139.909 12.867 141.113 11.6822 141.323C10.0196 141.648 8.8539 140.406 8.79657 138.686C8.72013 136.832 9.86674 135.513 11.6822 135.781C12.8479 135.953 13.8608 137.195 14.931 137.959C14.931 138.342 14.931 138.743 14.931 139.125V139.144Z" fill="#131313"/>
<path d="M84.7999 177.903C83.9973 176.852 82.7742 175.896 82.5258 174.73C82.1627 173.087 83.3667 171.883 85.0675 171.768C86.9212 171.653 88.278 172.762 88.0487 174.558C87.8958 175.724 86.6918 176.775 85.9656 177.884C85.5834 177.884 85.1821 177.903 84.7999 177.922V177.903Z" fill="#131313"/>
<path d="M3.29087 136.317C3.02332 135.151 1.80027 134.195 0.997639 133.125L0.00390625 133.163V139.26C0.233229 139.298 0.481662 139.298 0.749205 139.279C2.46913 139.164 3.65396 137.96 3.29087 136.317Z" fill="#131313"/>
<path d="M108.725 189.927C107.673 190.729 106.718 191.953 105.552 192.201C103.909 192.564 102.705 191.36 102.59 189.659C102.475 187.805 103.584 186.448 105.38 186.678C106.546 186.831 107.597 188.035 108.686 188.761C108.686 189.143 108.705 189.544 108.725 189.927Z" fill="#131313"/>
<path d="M153.21 240.169C153.956 241.258 155.179 242.29 155.351 243.456C155.599 245.272 154.261 246.4 152.408 246.304C150.669 246.228 149.465 245.023 149.809 243.361C150.057 242.176 151.261 241.201 152.045 240.131H153.23L153.21 240.169Z" fill="#131313"/>
<path d="M26.7599 140.866C24.8297 142.07 23.6258 143.408 22.5556 143.313C21.6192 143.236 20.7975 141.554 19.9375 140.599C20.9503 139.681 21.8867 138.191 23.0142 138.057C23.8933 137.942 25.0017 139.471 26.7599 140.866Z" fill="#131313"/>
<path d="M157.797 232.811C156.785 233.557 155.714 234.952 154.778 234.875C153.784 234.799 152.905 233.308 151.969 232.429C152.848 231.493 153.631 229.964 154.606 229.83C155.542 229.696 156.689 231.015 157.74 231.703C157.74 232.085 157.759 232.448 157.778 232.83L157.797 232.811Z" fill="#131313"/>
<path d="M128.676 204.739C127.663 205.484 126.593 206.879 125.657 206.803C124.663 206.726 123.784 205.236 122.848 204.356C123.727 203.42 124.51 201.872 125.504 201.738C126.44 201.604 127.606 202.923 128.657 203.611C128.657 203.993 128.657 204.356 128.676 204.739Z" fill="#131313"/>
<path d="M163.223 248.715C162.478 247.702 161.083 246.632 161.159 245.695C161.236 244.701 162.707 243.115 163.605 243.077C164.504 243.039 166.071 244.529 166.223 245.523C166.357 246.46 165.039 247.606 164.351 248.677C163.968 248.677 163.605 248.696 163.223 248.715Z" fill="#131313"/>
<path d="M34.0186 139.202C34.7066 140.253 36.0252 141.4 35.8915 142.336C35.7386 143.33 34.2097 144.114 33.2733 144.974C32.3943 144.037 30.9228 143.158 30.8272 142.164C30.7508 141.228 32.1458 140.157 32.8911 139.145C33.2733 139.145 33.6364 139.164 34.0186 139.183V139.202Z" fill="#131313"/>
<path d="M61.5382 158.562C62.5893 157.874 63.755 156.555 64.6914 156.689C65.6851 156.842 66.4687 158.371 67.3286 159.307C66.3922 160.168 65.5131 161.658 64.5194 161.735C63.5639 161.811 62.5128 160.416 61.5 159.671L61.5573 158.543L61.5382 158.562Z" fill="#131313"/>
<path d="M175.817 258.787C174.804 259.533 173.734 260.928 172.797 260.852C171.804 260.775 170.925 259.284 169.988 258.405C170.867 257.469 171.651 255.94 172.645 255.787C173.581 255.653 174.728 256.972 175.779 257.66C175.779 258.042 175.798 258.405 175.817 258.787Z" fill="#131313"/>
<path d="M182.905 268.476C183.593 269.527 184.912 270.693 184.759 271.629C184.606 272.623 183.077 273.387 182.141 274.267C181.281 273.33 179.79 272.451 179.714 271.457C179.638 270.521 181.033 269.45 181.778 268.438L182.905 268.476Z" fill="#131313"/>
<path d="M145.108 221.939C144.477 220.984 143.349 220.009 143.388 219.072C143.426 218.232 144.859 216.741 145.49 216.836C146.445 216.97 147.802 218.136 147.955 219.034C148.089 219.875 146.904 220.965 146.292 221.939H145.108Z" fill="#131313"/>
<path d="M137.312 203.572C137.904 204.547 139.089 205.617 138.936 206.458C138.764 207.356 137.426 208.522 136.471 208.656C135.84 208.732 134.407 207.241 134.388 206.4C134.349 205.483 135.496 204.508 136.108 203.553C136.509 203.553 136.91 203.553 137.312 203.572Z" fill="#131313"/>
<path d="M54.8895 149.295C54.3162 148.301 53.1696 147.192 53.3416 146.371C53.5327 145.472 54.9086 144.364 55.8833 144.268C56.5139 144.192 57.8898 145.74 57.8898 146.581C57.8898 147.498 56.7241 148.435 56.0744 149.371L54.8895 149.314V149.295Z" fill="#131313"/>
<path d="M117.148 188.723C117.759 189.697 118.963 190.768 118.81 191.609C118.658 192.526 117.32 193.692 116.364 193.826C115.734 193.921 114.3 192.43 114.243 191.589C114.205 190.653 115.332 189.678 115.944 188.723C116.345 188.723 116.747 188.723 117.148 188.723Z" fill="#131313"/>
<path d="M45.1419 141.59C45.7343 142.565 46.8427 143.578 46.7663 144.514C46.709 145.336 45.2184 146.788 44.5877 146.693C43.6322 146.521 42.3327 145.317 42.1989 144.418C42.0843 143.578 43.3073 142.526 43.938 141.59C44.3393 141.59 44.7406 141.609 45.1228 141.628L45.1419 141.59Z" fill="#131313"/>
<path d="M96.5151 173.355C97.1266 174.33 98.3114 175.4 98.1777 176.241C98.0248 177.158 96.668 178.324 95.7125 178.458C95.0818 178.554 93.6485 177.044 93.6103 176.203C93.5721 175.266 94.6996 174.292 95.3302 173.336C95.7316 173.336 96.1329 173.336 96.5342 173.336L96.5151 173.355Z" fill="#131313"/>
<path d="M194.047 284.911C193.072 285.504 191.983 286.708 191.161 286.555C190.263 286.383 189.098 285.045 188.964 284.09C188.887 283.459 190.378 282.025 191.219 281.987C192.155 281.949 193.13 283.096 194.085 283.726V284.93L194.047 284.911Z" fill="#131313"/>
<path d="M78.5852 161.868C77.6488 162.518 76.6933 163.664 75.7569 163.645C74.9161 163.626 73.3873 162.212 73.4637 161.581C73.5784 160.626 74.725 159.249 75.6232 159.077C76.464 158.905 77.5533 160.09 78.547 160.683C78.547 161.084 78.5661 161.466 78.5852 161.868Z" fill="#131313"/>
<path d="M174.841 250.549C173.733 248.962 172.548 248.026 172.625 247.223C172.72 246.363 174.02 245.025 174.784 245.025C175.568 245.025 176.886 246.325 176.982 247.185C177.077 247.988 175.912 248.962 174.822 250.549H174.841Z" fill="#131313"/>
<path d="M165.916 237.84C164.77 236.292 163.566 235.375 163.623 234.572C163.7 233.712 164.961 232.336 165.744 232.317C166.528 232.298 167.885 233.578 167.999 234.419C168.114 235.241 166.967 236.215 165.916 237.84Z" fill="#131313"/>
<path d="M187.188 260.563C185.563 261.595 184.57 262.742 183.767 262.627C182.907 262.493 181.627 261.155 181.665 260.372C181.684 259.588 183.06 258.327 183.92 258.27C184.742 258.212 185.64 259.416 187.188 260.582V260.563Z" fill="#131313"/>
<path d="M24.3906 132.932C23.2822 131.364 22.0974 130.409 22.1929 129.606C22.2885 128.746 23.5689 127.408 24.3524 127.408C25.1359 127.408 26.4545 128.708 26.5501 129.568C26.6456 130.371 25.4799 131.345 24.3906 132.932Z" fill="#131313"/>
<path d="M13.3421 124.084C14.3931 125.709 15.5398 126.702 15.406 127.505C15.2722 128.365 13.9536 129.034 13.151 129.779C12.4057 128.977 11.1062 128.212 11.0488 127.352C10.9915 126.53 12.1955 125.632 13.3421 124.084Z" fill="#131313"/>
<path d="M130.489 193.27C128.864 194.321 127.87 195.468 127.068 195.334C126.208 195.2 124.927 193.862 124.966 193.079C124.985 192.295 126.361 191.034 127.221 190.977C128.042 190.919 128.941 192.123 130.489 193.27Z" fill="#131313"/>
<path d="M110.386 178.363C108.78 179.452 107.806 180.618 107.003 180.503C106.143 180.389 104.844 179.07 104.844 178.286C104.844 177.503 106.201 176.203 107.061 176.127C107.882 176.05 108.819 177.235 110.386 178.363Z" fill="#131313"/>
<path d="M192.94 269.795C193.991 271.419 195.118 272.413 195.004 273.216C194.87 274.076 193.551 274.745 192.749 275.49C192.003 274.688 190.704 273.923 190.647 273.063C190.589 272.241 191.793 271.343 192.94 269.795Z" fill="#131313"/>
<path d="M90.2412 163.437C88.6742 164.545 87.7186 165.749 86.916 165.654C86.056 165.558 84.7183 164.278 84.6992 163.494C84.6992 162.71 85.9987 161.392 86.8587 161.277C87.6613 161.181 88.6359 162.347 90.2412 163.437Z" fill="#131313"/>
<path d="M70.0823 148.837C68.4388 149.85 67.426 150.959 66.6234 150.825C65.7825 150.672 64.5212 149.296 64.5594 148.512C64.5977 147.729 66.0118 146.505 66.8718 146.448C67.6935 146.41 68.5726 147.633 70.0823 148.818V148.837Z" fill="#131313"/>
<path d="M156.957 224.519C155.811 222.99 154.683 222.149 154.664 221.27C154.645 220.505 155.964 219.034 156.556 219.11C157.473 219.206 158.811 220.257 158.945 221.098C159.098 221.901 157.951 222.914 156.957 224.538V224.519Z" fill="#131313"/>
<path d="M150.555 208.636C148.95 209.649 147.918 210.796 147.134 210.662C146.294 210.509 145.243 209.191 145.128 208.292C145.051 207.7 146.523 206.362 147.268 206.381C148.147 206.381 149.007 207.528 150.536 208.655L150.555 208.636Z" fill="#131313"/>
<path d="M118.062 183.79C117.011 182.108 115.921 181.152 115.979 180.273C116.036 179.528 117.393 178.305 118.157 178.305C118.922 178.305 120.24 179.604 120.259 180.35C120.279 181.248 119.17 182.146 118.062 183.79Z" fill="#131313"/>
<path d="M101.249 165.042C99.7202 166.093 98.8029 167.221 97.9238 167.202C97.1785 167.202 96.4523 165.864 95.707 165.118C96.4906 164.335 97.1976 163.093 98.0958 162.921C98.7838 162.787 99.7584 163.972 101.249 165.042Z" fill="#131313"/>
<path d="M38.7778 131.806C37.1725 132.818 36.2361 133.889 35.3571 133.831C34.6118 133.793 33.2358 132.36 33.3505 131.767C33.5225 130.869 34.6691 129.646 35.5291 129.55C36.3317 129.474 37.249 130.678 38.7778 131.806Z" fill="#131313"/>
<path d="M176.947 232.966C177.96 234.419 179.03 235.317 178.954 236.063C178.858 236.846 177.655 237.515 176.928 238.222C176.221 237.496 174.998 236.827 174.922 236.024C174.845 235.26 175.935 234.4 176.947 232.947V232.966Z" fill="#131313"/>
<path d="M77.9896 153.345C76.9195 151.931 75.7729 151.09 75.8302 150.325C75.8875 149.522 77.0724 148.815 77.7603 148.051C78.5056 148.739 79.7478 149.37 79.8816 150.153C79.9962 150.898 78.9452 151.835 77.9896 153.345Z" fill="#131313"/>
<path d="M46.6687 130.166C47.6625 131.637 48.7326 132.555 48.6371 133.3C48.5415 134.084 47.2994 134.733 46.5732 135.441C45.8661 134.695 44.6622 134.007 44.5857 133.204C44.5093 132.459 45.6368 131.58 46.6687 130.146V130.166Z" fill="#131313"/>
<path d="M185.971 246.211C186.984 247.663 188.054 248.561 187.977 249.307C187.882 250.09 186.678 250.759 185.952 251.466C185.245 250.74 184.022 250.071 183.945 249.268C183.869 248.504 184.958 247.644 185.971 246.191V246.211Z" fill="#131313"/>
<path d="M138.245 192.162C139.277 193.615 140.366 194.494 140.29 195.239C140.213 196.042 138.99 197.265 138.283 197.265C137.557 197.265 136.334 196.042 136.238 195.258C136.162 194.494 137.251 193.615 138.245 192.162Z" fill="#131313"/>
<path d="M129.207 184.727C128.347 183.447 127.43 182.701 127.487 182.051C127.563 181.363 128.538 180.771 129.13 180.121C129.799 180.771 130.812 181.344 130.984 182.109C131.118 182.663 130.105 183.466 129.188 184.708L129.207 184.727Z" fill="#131313"/>
<path d="M57.7563 138.114C56.8581 136.853 55.9217 136.146 55.9791 135.496C56.0364 134.808 57.011 134.177 57.5843 133.527C58.2532 134.158 59.2851 134.712 59.4953 135.477C59.6291 136.012 58.6545 136.853 57.7754 138.133L57.7563 138.114Z" fill="#131313"/>
<path d="M206.661 275.378C205.361 276.218 204.501 277.174 203.966 277.021C203.202 276.811 202.686 275.76 202.074 275.072C202.743 274.518 203.393 273.543 204.081 273.524C204.731 273.505 205.438 274.441 206.661 275.397V275.378Z" fill="#131313"/>
<path d="M6.9415 114.778C5.66112 115.638 4.91582 116.555 4.26607 116.498C3.5781 116.421 2.98569 115.427 2.33594 114.854C2.98569 114.185 3.55899 113.172 4.3234 113C4.8776 112.866 5.68023 113.879 6.92239 114.797L6.9415 114.778Z" fill="#131313"/>
<path d="M195.195 259.744C195.978 261.197 196.781 262.038 196.704 262.764C196.628 263.395 195.309 264.446 194.908 264.312C194.163 264.044 193.322 263.089 193.207 262.305C193.131 261.732 194.163 261.025 195.195 259.744Z" fill="#131313"/>
<path d="M91.7115 152.468C90.412 153.309 89.5329 154.264 89.0169 154.111C88.2525 153.882 87.7365 152.831 87.125 152.143C87.7939 151.589 88.4436 150.633 89.1507 150.595C89.8004 150.557 90.4884 151.531 91.7306 152.468H91.7115Z" fill="#131313"/>
<path d="M167.851 226.163C166.952 224.787 166.016 223.946 166.169 223.411C166.36 222.665 167.373 222.111 168.042 221.48C168.634 222.092 169.685 222.723 169.685 223.334C169.685 224.08 168.787 224.825 167.851 226.163Z" fill="#131313"/>
<path d="M109.218 169.992C108.244 168.673 107.25 167.909 107.365 167.335C107.517 166.571 108.396 165.653 109.161 165.424C109.581 165.309 110.843 166.437 110.881 167.049C110.919 167.794 110.078 168.578 109.218 169.973V169.992Z" fill="#131313"/>
<path d="M161.125 210.108C159.864 210.987 159.119 211.904 158.469 211.847C157.781 211.79 157.169 210.796 156.52 210.223C157.169 209.554 157.723 208.541 158.488 208.331C159.023 208.197 159.845 209.191 161.106 210.089L161.125 210.108Z" fill="#131313"/>
<path d="M28.9754 118.637C27.7523 119.345 26.9879 120.128 26.2808 120.071C25.7075 120.033 24.6947 118.79 24.8284 118.408C25.0769 117.701 25.956 116.898 26.6821 116.784C27.1981 116.707 27.867 117.682 28.9754 118.618V118.637Z" fill="#131313"/>
<path d="M142.875 184.248C141.69 184.993 140.964 185.815 140.276 185.777C139.722 185.758 138.652 184.554 138.766 184.19C138.996 183.483 139.837 182.642 140.544 182.509C141.04 182.413 141.748 183.369 142.875 184.248Z" fill="#131313"/>
<path d="M151.89 197.475C150.686 198.239 149.979 199.061 149.272 199.042C148.698 199.042 147.628 197.838 147.743 197.456C147.972 196.729 148.794 195.889 149.52 195.755C150.036 195.659 150.743 196.596 151.909 197.475H151.89Z" fill="#131313"/>
<path d="M69.0497 140.007C68.1133 138.898 67.1387 138.229 67.2152 137.713C67.3298 136.987 68.1325 136.108 68.8395 135.86C69.2217 135.726 70.4639 136.758 70.5021 137.312C70.5595 138.019 69.7568 138.765 69.0497 139.988V140.007Z" fill="#131313"/>
<path d="M40.0971 120.379C39.0078 121.297 38.3199 122.29 37.823 122.195C37.0968 122.08 36.2177 121.278 35.9884 120.57C35.8546 120.188 36.8866 118.965 37.4408 118.927C38.1288 118.869 38.8932 119.653 40.1162 120.379H40.0971Z" fill="#131313"/>
<path d="M18.0619 116.515C16.6095 117.279 15.8069 118.044 15.1189 117.948C14.5456 117.872 13.6857 116.782 13.7239 116.209C13.7621 115.636 14.7941 114.661 15.3483 114.68C16.0553 114.699 16.7242 115.559 18.0619 116.515Z" fill="#131313"/>
<path d="M122.94 169.363C121.526 170.204 120.781 170.988 120.093 170.949C119.52 170.911 118.602 169.86 118.621 169.268C118.621 168.694 119.596 167.681 120.169 167.662C120.857 167.662 121.583 168.465 122.94 169.363Z" fill="#131313"/>
<path d="M181.187 225.53C179.791 226.351 179.046 227.154 178.358 227.097C177.804 227.058 176.887 226.007 176.887 225.434C176.887 224.861 177.861 223.848 178.435 223.848C179.142 223.848 179.849 224.65 181.206 225.53H181.187Z" fill="#131313"/>
<path d="M190.551 238.222C189.366 239.043 188.602 239.942 188.105 239.827C187.398 239.655 186.901 238.699 186.309 238.088C186.882 237.534 187.474 236.54 188.029 236.559C188.736 236.559 189.404 237.419 190.551 238.241V238.222Z" fill="#131313"/>
<path d="M100.218 151.971C100.964 153.175 101.785 153.901 101.747 154.589C101.728 155.162 100.524 156.233 100.161 156.099C99.4539 155.87 98.6131 155.029 98.4793 154.321C98.3837 153.825 99.3392 153.098 100.218 151.971Z" fill="#131313"/>
<path d="M48.7135 119.842C49.4588 120.95 50.2997 121.638 50.2232 122.193C50.1277 122.785 49.2295 123.511 48.5798 123.645C48.1976 123.722 47.2038 122.709 47.2229 122.212C47.2229 121.562 47.9873 120.931 48.7326 119.842H48.7135Z" fill="#131313"/>
<path d="M197.239 253.741C196.417 252.69 195.615 252.117 195.557 251.486C195.5 250.989 196.417 249.9 196.819 249.957C197.487 250.034 198.462 250.703 198.577 251.276C198.691 251.83 197.908 252.595 197.239 253.741Z" fill="#131313"/>
<path d="M171.824 212.288C170.697 213.014 169.971 213.836 169.416 213.741C168.824 213.626 168.117 212.709 168.002 212.04C167.945 211.657 168.977 210.702 169.474 210.721C170.104 210.74 170.716 211.524 171.805 212.307L171.824 212.288Z" fill="#131313"/>
<path d="M79.9209 141.42C79.1947 140.293 78.373 139.567 78.4686 139.012C78.5832 138.42 79.5005 137.713 80.1694 137.598C80.5516 137.541 81.5071 138.573 81.488 139.07C81.4689 139.7 80.6853 140.312 79.9018 141.401L79.9209 141.42Z" fill="#131313"/>
<path d="M206.168 266.45C205.385 265.38 204.601 264.787 204.563 264.138C204.544 263.622 205.48 262.589 205.862 262.647C206.531 262.742 207.468 263.449 207.582 264.042C207.697 264.596 206.875 265.323 206.168 266.469V266.45Z" fill="#131313"/>
<path d="M113.368 155.962C112.47 156.707 111.916 157.51 111.381 157.51C110.808 157.51 110.253 156.707 109.699 156.267C110.215 155.675 110.617 154.815 111.247 154.624C111.668 154.49 112.394 155.312 113.349 155.981L113.368 155.962Z" fill="#131313"/>
<path d="M215.087 275.262C215.794 276.198 216.634 276.886 216.52 277.307C216.348 277.957 215.507 278.396 214.934 278.931C214.475 278.396 213.653 277.88 213.634 277.307C213.596 276.772 214.379 276.179 215.087 275.262Z" fill="#131313"/>
<path d="M133.509 171.329C132.611 172.074 132.057 172.877 131.522 172.877C130.948 172.877 130.394 172.074 129.84 171.635C130.356 171.042 130.757 170.182 131.388 169.991C131.808 169.857 132.534 170.679 133.49 171.348L133.509 171.329Z" fill="#131313"/>
<path d="M162.627 199.062C161.671 199.731 160.945 200.553 160.544 200.419C159.913 200.228 159.493 199.368 158.977 198.775C159.531 198.316 160.085 197.533 160.639 197.514C161.174 197.514 161.728 198.297 162.627 199.043V199.062Z" fill="#131313"/>
<path d="M122.255 159.844C121.758 159.042 121.184 158.526 121.261 158.124C121.337 157.704 122.025 157.073 122.427 157.092C122.809 157.111 123.439 157.818 123.458 158.258C123.478 158.659 122.847 159.099 122.255 159.844Z" fill="#131313"/>
<path d="M153.134 186.259C152.427 186.794 151.987 187.386 151.586 187.367C151.146 187.348 150.745 186.737 150.344 186.392C150.764 185.953 151.108 185.322 151.605 185.169C151.892 185.074 152.427 185.743 153.134 186.278V186.259Z" fill="#131313"/>
<path d="M191.318 227.098C190.535 227.633 190.038 228.206 189.637 228.149C189.216 228.091 188.566 227.423 188.566 227.021C188.566 226.639 189.254 225.989 189.694 225.951C190.095 225.913 190.554 226.524 191.337 227.098H191.318Z" fill="#131313"/>
<path d="M200.836 240.153C200.129 240.764 199.709 241.414 199.288 241.395C198.849 241.395 198.428 240.764 198.008 240.42C198.352 240 198.658 239.293 199.078 239.216C199.479 239.14 200.014 239.694 200.836 240.153Z" fill="#131313"/>
<path d="M7.97327 103.501C7.2853 104.074 6.78843 104.782 6.50178 104.705C5.9858 104.571 5.6036 103.96 5.16406 103.539C5.56538 103.176 5.92847 102.546 6.3489 102.488C6.75021 102.45 7.22797 103.004 7.97327 103.501Z" fill="#131313"/>
<path d="M19.0983 105.258C18.3721 105.774 17.8179 106.405 17.5121 106.309C17.0153 106.137 16.6904 105.487 16.2891 105.029C16.7095 104.704 17.1299 104.111 17.5694 104.111C17.9708 104.111 18.3912 104.704 19.0983 105.258Z" fill="#131313"/>
<path d="M30.2566 107.226C29.5113 107.8 29.0718 108.431 28.6705 108.411C28.2309 108.392 27.543 107.762 27.5239 107.379C27.5048 106.997 28.1354 106.29 28.5558 106.233C28.9571 106.175 29.4731 106.73 30.2757 107.246L30.2566 107.226Z" fill="#131313"/>
<path d="M59.9887 125.882C59.3963 125.232 58.7657 124.85 58.7466 124.43C58.7274 124.009 59.3008 123.55 59.6065 123.092C60.0843 123.455 60.7531 123.742 60.9442 124.239C61.0589 124.525 60.4474 125.118 59.9887 125.882Z" fill="#131313"/>
<path d="M72.6595 126.418C71.8569 126.953 71.36 127.526 70.9587 127.469C70.5383 127.412 70.1752 126.743 69.793 126.342C70.1943 125.959 70.5765 125.309 70.9969 125.271C71.3982 125.233 71.876 125.845 72.6404 126.399L72.6595 126.418Z" fill="#131313"/>
<path d="M91.1579 139.584C91.6739 140.31 92.3045 140.884 92.209 141.17C92.037 141.667 91.3872 141.992 90.9286 142.393C90.5846 141.973 90.0113 141.533 89.9922 141.113C89.9922 140.692 90.5846 140.272 91.1579 139.584Z" fill="#131313"/>
<path d="M75.2396 183.833C115.106 196.056 145.699 222.208 174.629 251.233C202.468 279.165 230.059 308.593 266.312 325.586C341.054 360.627 428.856 342.848 502.05 312.827C583.848 279.261 660.694 228.76 749.146 214.027C792.53 206.804 838.936 210.272 876.718 234.546C908.019 254.662 924.979 286.503 932.053 322.31C936.069 342.656 937.445 363.309 938.535 384H948C947.694 378.138 947.388 372.275 946.967 366.451C944.616 332.579 940.008 297.385 922.245 267.747C902.053 234.086 866.278 212.705 828.42 204.946C782.224 195.462 734.308 204.505 690.197 219.2C647.692 233.358 607.443 253.321 567.175 272.747C490.31 309.838 405.108 347.465 317.67 331.832C297.211 328.173 277.345 321.448 259.237 311.217C241.34 301.121 225.604 287.863 210.767 273.724C181.741 246.098 155.47 214.678 120.804 193.757C84.972 172.128 41.7785 162.625 0.191206 167.07C0.133844 167.07 0.0764825 167.07 0 167.089V176.802C25.1627 174.005 50.8417 176.4 75.2587 183.872L75.2396 183.833Z" fill="#BF3238"/>
<path d="M125.992 328.529C217.4 362.746 318.056 330.424 386.402 297.279C421.578 280.219 455.837 259.998 488.968 240.429C531.864 215.097 576.211 188.902 622.871 169.429C668.403 150.415 783.962 112.598 873.116 171.765C924.399 205.81 960.053 268.615 979.083 358.438C980.879 366.882 982.484 375.441 984.051 384H986C984.414 375.307 982.771 366.614 980.956 358.036C961.83 267.715 925.908 204.508 874.186 170.176C784.249 110.492 667.963 148.539 622.145 167.667C575.37 187.198 530.947 213.412 487.994 238.783C454.881 258.333 420.661 278.534 385.561 295.556C317.54 328.548 217.419 360.735 126.641 326.729C94.2933 314.608 64.792 294.618 36.2652 275.278C24.3615 267.217 12.324 259.079 0 251.439V253.699C11.961 261.147 23.6354 269.055 35.1952 276.887C63.8175 296.284 93.4144 316.351 125.992 328.548V328.529Z" fill="white"/>
<path d="M368 193C421.019 193 464 150.019 464 97C464 43.9807 421.019 1 368 1C314.981 1 272 43.9807 272 97C272 150.019 314.981 193 368 193Z" stroke="white" stroke-width="0.25" stroke-miterlimit="10"/>
</svg>
