<svg width="59" height="59" viewBox="0 0 59 59" fill="none" xmlns="http://www.w3.org/2000/svg">
<path d="M52.1428 0H48.6858V3.45703H38.9908V0H35.5337V16.7099L23.4645 28.7791V0H20.0075V3.45703H10.3125V0H6.85547V59H10.3125V55.0983H20.0075V59H23.4645V52.2678L52.1428 23.5895V0ZM38.9908 16.2505V13.7975H48.6858V20.2758L38.9908 16.2505ZM48.6858 6.91406V10.3404H38.9908V6.91406H48.6858ZM37.6822 19.4503L47.3705 23.4729L42.1431 28.7003L35.2877 21.8449L37.6822 19.4503ZM20.0075 17.224H10.3125V13.7976H20.0075V17.224ZM20.0075 20.681V24.1074H10.3125V20.681H20.0075ZM20.0075 27.5644V30.9908H10.3125V27.5644H20.0075ZM20.0075 34.4479V37.8743H10.3125V34.4479H20.0075ZM20.0075 41.3313V44.7577H10.3125V41.3313H20.0075ZM23.4645 34.5387L29.8846 40.9588L27.4316 43.4118L23.4645 39.4447V34.5387ZM25.4737 31.6589L27.9241 29.2085L34.7795 36.0639L32.3291 38.5143L25.4737 31.6589ZM30.3686 26.764L32.8431 24.2894L39.6985 31.1449L37.224 33.6194L30.3686 26.764ZM20.0075 6.91406V10.3404H10.3125V6.91406H20.0075ZM10.3125 51.6412V48.2149H20.0075V51.6412H10.3125ZM23.4645 44.3337L24.9871 45.8563L23.4645 47.3788V44.3337Z" fill="black"/>
</svg>
