<svg width="53" height="53" viewBox="0 0 53 53" fill="none" xmlns="http://www.w3.org/2000/svg">
<g clip-path="url(#clip0_3903_2695)">
<path d="M46.2715 3.10547H49.8945V6.72852C49.8945 7.58666 50.5891 8.28125 51.4473 8.28125C52.3054 8.28125 53 7.58666 53 6.72852V1.55273C53 0.695211 52.3048 0 51.4473 0H46.2715C45.414 0 44.7188 0.695211 44.7188 1.55273C44.7188 2.41026 45.414 3.10547 46.2715 3.10547Z" fill="black"/>
<path d="M49.8945 19.9082V33.0899C49.8945 33.946 50.5912 34.6426 51.4473 34.6426C52.3033 34.6426 53 33.946 53 33.0899V19.9082C53 19.0521 52.3033 18.3555 51.4473 18.3555C50.5912 18.3555 49.8945 19.0521 49.8945 19.9082Z" fill="black"/>
<path d="M49.8945 46.2715V49.8945H46.2715C46.2179 49.8945 46.165 49.8972 46.1128 49.9025C46.0861 49.9052 46.0603 49.9105 46.034 49.9145C46.0089 49.9183 45.9833 49.9209 45.9587 49.926C45.9299 49.9319 45.9021 49.9403 45.874 49.9477C45.8527 49.9533 45.8308 49.9577 45.8099 49.9642C45.7865 49.9714 45.7642 49.981 45.7412 49.9893C45.7165 49.9984 45.6913 50.0062 45.6673 50.0164C45.6539 50.0221 45.6414 50.0292 45.6282 50.0352C45.5956 50.0501 45.5628 50.0648 45.5315 50.0818C45.5282 50.0835 45.5253 50.0856 45.5222 50.0874C45.0873 50.3275 44.7794 50.7699 44.7268 51.2884C44.7214 51.3407 44.7188 51.3936 44.7188 51.4473C44.7188 52.3048 45.414 53 46.2715 53H51.4473C52.3048 53 53 52.3048 53 51.4473V46.2715C53 45.414 52.3048 44.7188 51.4473 44.7188C50.5897 44.7188 49.8945 45.414 49.8945 46.2715Z" fill="black"/>
<path d="M33.0908 49.8936H26.7938V27.758C26.7938 26.9005 26.0986 26.2053 25.241 26.2053H3.10547V19.9082C3.10547 19.0521 2.40881 18.3555 1.55273 18.3555C0.69666 18.3555 0 19.0521 0 19.9082V51.4463C0 52.3038 0.695211 52.999 1.55273 52.999H33.0908C33.9469 52.999 34.6436 52.3024 34.6436 51.4463C34.6436 50.5902 33.9469 49.8936 33.0908 49.8936Z" fill="black"/>
<path d="M3.10547 6.72852V3.10547H6.72852C7.58604 3.10547 8.28125 2.41026 8.28125 1.55273C8.28125 0.695211 7.58604 0 6.72852 0H1.55273C0.695211 0 0 0.695211 0 1.55273V6.72852C0 7.58604 0.695211 8.28125 1.55273 8.28125C2.41026 8.28125 3.10547 7.58604 3.10547 6.72852Z" fill="black"/>
<path d="M19.9082 3.10547H33.0899C33.946 3.10547 34.6426 2.40881 34.6426 1.55273C34.6426 0.69666 33.946 0 33.0899 0H19.9082C19.0521 0 18.3555 0.69666 18.3555 1.55273C18.3555 2.40881 19.0521 3.10547 19.9082 3.10547Z" fill="black"/>
<path d="M29.4978 21.3046C29.1946 21.6078 29.043 22.0052 29.043 22.4025C29.043 22.7998 29.1945 23.1973 29.4978 23.5004C30.1042 24.1067 31.0873 24.1067 31.6937 23.5004L42.4436 12.7505V16.3192C42.4436 17.1767 43.1388 17.8719 43.9963 17.8719C44.8538 17.8719 45.5491 17.1767 45.5491 16.3192V9.00195C45.5491 8.14443 44.8538 7.44922 43.9963 7.44922H36.679C35.8215 7.44922 35.1263 8.14443 35.1263 9.00195C35.1263 9.85948 35.8215 10.5547 36.679 10.5547H40.2477L29.4978 21.3046Z" fill="black"/>
</g>
<defs>
<clipPath id="clip0_3903_2695">
<rect width="53" height="53" fill="white"/>
</clipPath>
</defs>
</svg>
