<svg width="128" height="128" viewBox="0 0 128 128" fill="none" xmlns="http://www.w3.org/2000/svg">
<rect width="128" height="128" rx="20" fill="#FFB200"/>
<g clip-path="url(#clip0_4124_2538)">
<path d="M99.3755 69.0572C105.234 69.0572 110 64.291 110 58.4328V53.3582H103.267C101.2 53.3582 99.2024 53.9611 97.49 55.0762C97.2998 54.0248 97.0593 52.9842 96.7672 51.9575L98.7946 50.7907C101.252 49.3718 103.01 47.0808 103.745 44.3396C104.479 41.5984 104.102 38.7352 102.683 36.2775L100.146 31.8828L94.315 35.2494C92.0139 36.5779 90.3062 38.7111 89.5066 41.256C88.7194 43.7613 88.8765 46.4503 89.9484 48.8326L91.1447 51.681C92.2078 54.6568 92.7474 57.7942 92.7474 61.0079C92.7474 76.3077 80.3003 88.7548 65.0007 88.7548C49.701 88.7548 37.2538 76.3077 37.2538 61.0079C37.2538 57.7865 37.7929 54.6489 38.8555 51.6812L40.0516 48.8326C41.1235 46.4501 41.2805 43.7613 40.4934 41.256C39.6938 38.7111 37.9861 36.5779 35.6851 35.2494L29.8537 31.8828L27.3166 36.2775C25.8976 38.7352 25.5207 41.5984 26.2551 44.3396C26.9895 47.0808 28.7476 49.3718 31.2084 50.7924L33.2321 51.9571C32.9402 52.9833 32.6997 54.0237 32.5097 55.0761C30.7973 53.9611 28.7993 53.3582 26.7332 53.3582H20V58.4328C20 64.2912 24.7661 69.0572 30.628 69.0572L32.9737 69.054C33.2358 70.097 33.548 71.1204 33.9069 72.1216C31.8616 72.0077 29.826 72.4827 28.0352 73.5167L22.2042 76.8833L24.7415 81.278C26.707 84.6824 30.2842 86.5877 33.9597 86.5877C35.7615 86.5877 37.5878 86.1292 39.258 85.1649L41.3051 83.9792C42.0495 84.747 42.8308 85.4785 43.6462 86.1714C41.8162 87.0948 40.2881 88.5266 39.2512 90.3223L35.8846 96.1533L40.2793 98.6906C41.9164 99.6357 43.7331 100.119 45.5743 100.119C46.4971 100.119 47.4263 99.9975 48.3413 99.7521C51.0825 99.0177 53.3736 97.2596 54.7944 94.7988L55.9617 92.7703C58.8354 93.5893 61.8677 94.028 65.0007 94.028C68.1332 94.028 71.1653 93.5895 74.0387 92.7707L75.2078 94.802C77.1736 98.2067 80.7519 100.112 84.4266 100.112C86.2278 100.112 88.0521 99.6542 89.7209 98.6908L94.1156 96.1535L90.749 90.3225C89.7125 88.5272 88.1845 87.0955 86.3548 86.172C87.1702 85.4789 87.9516 84.7473 88.6962 83.9795L90.7455 85.1671C92.4147 86.1306 94.2385 86.5884 96.0398 86.5884C99.7142 86.5884 103.293 84.6826 105.259 81.2784L107.796 76.8837L101.965 73.5171C100.174 72.4834 98.1393 72.0082 96.0943 72.122C96.4532 71.1208 96.7652 70.0974 97.0275 69.0543L99.3755 69.0572Z" fill="white"/>
<path d="M65.0011 38.6523C52.7877 38.6523 42.8516 48.5885 42.8516 60.8018C42.8516 73.0152 52.7877 82.9514 65.0011 82.9514C77.2144 82.9514 87.1506 73.0152 87.1506 60.8018C87.1506 48.5885 77.2144 38.6523 65.0011 38.6523ZM67.6372 69.5907H62.3639V60.4148C61.2715 60.8987 60.0637 61.1676 58.794 61.1676V55.8944C60.7624 55.8944 62.3639 54.2929 62.3639 52.3244V52.0131H67.6372V69.5907Z" fill="white"/>
</g>
<defs>
<clipPath id="clip0_4124_2538">
<rect width="90" height="90" fill="white" transform="translate(20 21)"/>
</clipPath>
</defs>
</svg>
