<svg
        width="17"
        height="17"
        viewBox="0 0 17 17"
        fill="currentColor"
        xmlns="http://www.w3.org/2000/svg"
      >
        <mask id="path-1-inside-1_178_202" fill="currentColor">
          <path
            fill-rule="evenodd"
            clip-rule="evenodd"
            d="M15.8995 7.66923L16.6066 8.37633L9.53557 15.4474L8.82847 14.7403L14.6954 8.87332H0.608398L0.608398 7.87332L14.6893 7.87332L8.8283 2.0123L9.5354 1.30519L15.8995 7.66927L15.8995 7.66923Z"
          />
        </mask>
        <path
          fill-rule="evenodd"
          clip-rule="evenodd"
          d="M15.8995 7.66923L16.6066 8.37633L9.53557 15.4474L8.82847 14.7403L14.6954 8.87332H0.608398L0.608398 7.87332L14.6893 7.87332L8.8283 2.0123L9.5354 1.30519L15.8995 7.66927L15.8995 7.66923Z"
          fill="currentColor"
        />
        <path
          d="M16.6066 8.37633L17.3137 9.08344L18.0209 8.37633L17.3137 7.66923L16.6066 8.37633ZM15.8995 7.66923L16.6066 6.96212L15.8959 6.25134L15.1888 6.96579L15.8995 7.66923ZM9.53557 15.4474L8.82847 16.1545L9.53557 16.8616L10.2427 16.1545L9.53557 15.4474ZM8.82847 14.7403L8.12136 14.0332L7.41425 14.7403L8.12136 15.4474L8.82847 14.7403ZM14.6954 8.87332L15.4025 9.58043L17.1097 7.87332H14.6954V8.87332ZM0.608398 8.87332H-0.391602V9.87332H0.608398V8.87332ZM0.608398 7.87332V6.87332H-0.391602V7.87332H0.608398ZM14.6893 7.87332V8.87332H17.1035L15.3964 7.16621L14.6893 7.87332ZM8.8283 2.0123L8.12119 1.30519L7.41408 2.0123L8.12119 2.7194L8.8283 2.0123ZM9.5354 1.30519L10.2425 0.598084L9.5354 -0.109022L8.8283 0.598084L9.5354 1.30519ZM15.8995 7.66927L15.1924 8.37638L15.9032 9.08716L16.6102 8.37271L15.8995 7.66927ZM17.3137 7.66923L16.6066 6.96212L15.1924 8.37634L15.8995 9.08344L17.3137 7.66923ZM10.2427 16.1545L17.3137 9.08344L15.8995 7.66923L8.82847 14.7403L10.2427 16.1545ZM8.12136 15.4474L8.82847 16.1545L10.2427 14.7403L9.53557 14.0332L8.12136 15.4474ZM13.9883 8.16621L8.12136 14.0332L9.53557 15.4474L15.4025 9.58043L13.9883 8.16621ZM0.608398 9.87332H14.6954V7.87332L0.608398 7.87332L0.608398 9.87332ZM-0.391602 7.87332L-0.391602 8.87332H1.6084V7.87332H-0.391602ZM14.6893 6.87332L0.608398 6.87332L0.608398 8.87332H14.6893V6.87332ZM8.12119 2.7194L13.9822 8.58043L15.3964 7.16621L9.5354 1.30519L8.12119 2.7194ZM8.8283 0.598084L8.12119 1.30519L9.5354 2.7194L10.2425 2.0123L8.8283 0.598084ZM16.6066 6.96217L10.2425 0.598084L8.8283 2.0123L15.1924 8.37638L16.6066 6.96217ZM15.1888 6.96579L15.1887 6.96584L16.6102 8.37271L16.6103 8.37266L15.1888 6.96579Z"
          fill="currentColor"
          mask="url(#path-1-inside-1_178_202)"
        />
      </svg>