<svg width="61" height="67" viewBox="0 0 61 67" fill="none" xmlns="http://www.w3.org/2000/svg">
<path d="M52.5687 29.0206C34.9807 32.5382 25.1662 47.3606 13.994 60.0737C7.99363 66.9017 13.7769 54.7929 14.6924 52.7671C19.6114 41.8825 26.3715 28.6939 36.5586 21.7139C52.8909 10.5233 62.7715 39.382 49.0228 45.0307C37.9859 49.5652 27.1461 44.3823 19.0442 36.757C15.8958 33.7938 5.60907 23.3772 6.41874 18.1143C6.7104 16.2186 41.9857 32.8323 41.1789 35.2527C40.7275 36.6069 6.72821 20.1785 1.95955 17.9532C-1.1393 16.507 9.66385 18.0208 9.91088 18.0606C19.3554 19.5839 28.7665 21.2098 38.224 22.681C43.1079 23.4407 44.6285 21.6391 43.4354 16.4489C42.0317 10.343 35.5651 3.88086 29.7892 1.62072C24.1471 -0.587048 23.8166 3.61159 23.5571 8.28264C22.7673 22.4977 21.0672 37.7512 23.0198 51.9075C23.9048 58.3236 27.4378 63.9585 34.0335 65.6074C38.3851 66.6953 38.3508 59.9416 37.6331 57.28C35.2255 48.3518 26.6465 39.8464 20.2798 33.4797C18.5753 31.7752 16.878 29.8329 14.8536 28.4833C12.2007 26.7147 13.4754 29.0298 15.1759 29.9876C27.3934 36.8687 70.3902 39.8319 56.5443 37.6166C48.4051 36.3143 40.0252 34.7174 32.0456 32.6739C27.2122 31.436 20.2267 30.418 16.4653 26.6566C14.8005 24.9918 38.7746 14.7961 41.6625 13.1716C52.2414 7.221 20.0191 24.1941 9.5348 30.31C5.66903 32.565 18.3479 28.6736 22.8049 28.2684C27.5399 27.8379 32.3449 28.0535 37.0958 28.0535" stroke="#F9DB4A" stroke-width="2" stroke-miterlimit="2.3662" stroke-linecap="round"/>
</svg>
