<svg width="70" height="80" viewBox="0 0 70 80" fill="none" xmlns="http://www.w3.org/2000/svg">
<g clip-path="url(#clip0_182_75)">
<path d="M25.3099 31.7417C21.262 31.7417 17.9688 35.8881 17.9688 40.9847C17.9688 46.0812 21.262 50.2276 25.3099 50.2276C29.3578 50.2276 32.6512 46.0812 32.6512 40.9847C32.6512 35.8881 29.3578 31.7417 25.3099 31.7417ZM25.3099 45.5401C23.5236 45.5401 22.0703 43.4965 22.0703 40.9847C22.0703 38.4728 23.5236 36.4292 25.3099 36.4292C27.0962 36.4292 28.5497 38.4728 28.5497 40.9847C28.5497 43.4965 27.0962 45.5401 25.3099 45.5401Z" fill="white"/>
<path d="M44.69 31.7417C40.642 31.7417 37.3486 35.8881 37.3486 40.9847C37.3486 46.0812 40.642 50.2276 44.69 50.2276C48.7378 50.2276 52.0311 46.0812 52.0311 40.9847C52.0311 35.8881 48.7378 31.7417 44.69 31.7417ZM44.69 45.5401C42.9037 45.5401 41.4502 43.4965 41.4502 40.9847C41.4502 38.4728 42.9037 36.4292 44.69 36.4292C46.4762 36.4292 47.9296 38.4728 47.9296 40.9847C47.9296 43.4965 46.4762 45.5401 44.69 45.5401Z" fill="white"/>
<path d="M69.9969 56.653C69.9485 55.6621 68.7221 32.2221 60.9337 18.2004C60.7744 17.9137 60.5624 17.6698 60.3126 17.486C50.6821 10.3987 44.1222 10.419 43.8478 10.4177C43.0522 10.4298 42.3673 10.9585 42.0361 11.7226L38.7277 18.9685C37.4953 18.8763 36.251 18.8285 35 18.8285C33.7493 18.8285 32.5049 18.8763 31.2725 18.9685L27.9678 11.731C27.6382 10.9626 26.9509 10.4299 26.1523 10.4179C25.8763 10.416 19.3172 10.3994 9.6878 17.4862C9.43802 17.6701 9.22597 17.9138 9.06669 18.2005C1.2781 32.2221 0.0515909 55.6621 0.00319247 56.653C-0.0271591 57.2743 0.159872 57.8838 0.523134 58.3474C0.884345 58.808 9.46468 69.5832 21.3246 69.5832C21.3777 69.5832 21.4322 69.5829 21.4854 69.5826C22.1087 69.5774 22.6959 69.2487 23.0816 68.6895L28.5521 60.7552C30.6532 61.0295 32.8113 61.1723 35 61.1723C37.1889 61.1723 39.347 61.0295 41.448 60.7552L46.9185 68.6895C47.3042 69.2487 47.8914 69.5774 48.5147 69.5826C48.5687 69.583 48.6216 69.5832 48.6755 69.5832C60.5343 69.5832 69.116 58.808 69.477 58.3474C69.8401 57.8838 70.0271 57.2743 69.9969 56.653ZM49.5096 64.8737L46.0894 59.913C51.2957 58.689 55.9686 56.6062 59.616 53.8095C60.5566 53.0884 60.8076 51.6323 60.1765 50.5574C59.5457 49.4824 58.2712 49.1952 57.331 49.9168C51.8871 54.091 43.7477 56.4848 35 56.4848C26.2528 56.4848 18.1134 54.091 12.6691 49.9173C11.7283 49.1962 10.4545 49.4832 9.82356 50.558C9.19261 51.633 9.44362 53.089 10.3842 53.8101C14.0319 56.6063 18.7047 58.6893 23.9108 59.9132L20.4908 64.8735C12.4609 64.4477 6.07063 58.0301 4.16245 55.9004C4.481 51.359 6.13393 32.6288 12.2922 21.1474C18.3394 16.7849 22.9029 15.5716 24.9411 15.2344L26.8869 19.4955C22.3121 20.259 18.0261 21.6619 14.3753 23.6263C13.3506 24.1776 12.9111 25.574 13.3934 26.7452C13.8759 27.9162 15.0978 28.4184 16.1223 27.8674C21.3376 25.0613 28.0419 23.516 35 23.516C41.9586 23.516 48.663 25.0616 53.878 27.868C54.1604 28.0199 54.4575 28.0919 54.7503 28.0919C55.5198 28.0919 56.2575 27.5943 56.6071 26.746C57.0894 25.5751 56.6499 24.1785 55.6252 23.6271C51.9742 21.6626 47.6882 20.2593 43.1131 19.4959L45.0589 15.2348C47.0969 15.5719 51.6606 16.7852 57.7081 21.1477C63.8593 32.6171 65.5177 51.3668 65.8375 55.9046C63.9342 58.0388 57.5725 64.4512 49.5096 64.8737Z" fill="white"/>
</g>
<defs>
<clipPath id="clip0_182_75">
<rect width="70" height="80" fill="white"/>
</clipPath>
</defs>
</svg>
