<svg width="33" height="33" viewBox="0 0 33 33" fill="none" xmlns="http://www.w3.org/2000/svg">
<rect x="0.39209" y="0.598358" width="32" height="32" rx="16" fill="#FDDC31"/>
<mask id="path-2-inside-1_178_308" fill="white">
<path fill-rule="evenodd" clip-rule="evenodd" d="M23.6837 15.892L24.3908 16.5991L17.3198 23.6702L16.6126 22.9631L22.4796 17.0961H8.39258V16.0961H22.4735L16.6125 10.2351L17.3196 9.52795L23.6837 15.892L23.6837 15.892Z"/>
</mask>
<path fill-rule="evenodd" clip-rule="evenodd" d="M23.6837 15.892L24.3908 16.5991L17.3198 23.6702L16.6126 22.9631L22.4796 17.0961H8.39258V16.0961H22.4735L16.6125 10.2351L17.3196 9.52795L23.6837 15.892L23.6837 15.892Z" fill="black"/>
<path d="M24.3907 16.599L25.0978 17.3061L25.8049 16.599L25.0978 15.8919L24.3907 16.599ZM23.6836 15.8919L24.3907 15.1848L23.6799 14.474L22.9728 15.1884L23.6836 15.8919ZM17.3196 23.67L16.6125 24.3771L17.3196 25.0843L18.0267 24.3771L17.3196 23.67ZM16.6125 22.9629L15.9054 22.2558L15.1983 22.9629L15.9054 23.67L16.6125 22.9629ZM22.4794 17.0961L23.1865 17.8032L24.8936 16.0961H22.4794V17.0961ZM8.39258 17.0961H7.39258V18.0961H8.39258V17.0961ZM8.39258 16.0961V15.0961H7.39258V16.0961H8.39258ZM22.4735 16.0961V17.0961H24.8877L23.1806 15.389L22.4735 16.0961ZM16.6124 10.2349L15.9052 9.52783L15.1981 10.2349L15.9052 10.942L16.6124 10.2349ZM17.3195 9.52783L18.0266 8.82073L17.3195 8.11362L16.6124 8.82073L17.3195 9.52783ZM23.6835 15.8919L22.9764 16.599L23.6872 17.3098L24.3943 16.5953L23.6835 15.8919ZM25.0978 15.8919L24.3907 15.1848L22.9765 16.599L23.6836 17.3061L25.0978 15.8919ZM18.0267 24.3771L25.0978 17.3061L23.6836 15.8919L16.6125 22.9629L18.0267 24.3771ZM15.9054 23.67L16.6125 24.3771L18.0267 22.9629L17.3196 22.2558L15.9054 23.67ZM21.7723 16.389L15.9054 22.2558L17.3196 23.67L23.1865 17.8032L21.7723 16.389ZM8.39258 18.0961H22.4794V16.0961H8.39258V18.0961ZM7.39258 16.0961V17.0961H9.39258V16.0961H7.39258ZM22.4735 15.0961H8.39258V17.0961H22.4735V15.0961ZM15.9052 10.942L21.7664 16.8032L23.1806 15.389L17.3195 9.52783L15.9052 10.942ZM16.6124 8.82073L15.9052 9.52783L17.3195 10.942L18.0266 10.2349L16.6124 8.82073ZM24.3907 15.1848L18.0266 8.82073L16.6124 10.2349L22.9764 16.599L24.3907 15.1848ZM22.9728 15.1884L22.9728 15.1885L24.3943 16.5953L24.3944 16.5953L22.9728 15.1884Z" fill="black" mask="url(#path-2-inside-1_178_308)"/>
</svg>
