<svg width="33" height="33" viewBox="0 0 33 33" fill="none" xmlns="http://www.w3.org/2000/svg">
<rect x="0.60791" y="0.598358" width="32" height="32" rx="16" fill="#FDDC31"/>
<mask id="path-2-inside-1_178_277" fill="white">
<path fill-rule="evenodd" clip-rule="evenodd" d="M23.8995 15.892L24.6066 16.5991L17.5356 23.6702L16.8285 22.9631L22.6954 17.0961H8.6084V16.0961H22.6893L16.8283 10.2351L17.5354 9.52795L23.8995 15.892L23.8995 15.892Z"/>
</mask>
<path fill-rule="evenodd" clip-rule="evenodd" d="M23.8995 15.892L24.6066 16.5991L17.5356 23.6702L16.8285 22.9631L22.6954 17.0961H8.6084V16.0961H22.6893L16.8283 10.2351L17.5354 9.52795L23.8995 15.892L23.8995 15.892Z" fill="black"/>
<path d="M24.6065 16.599L25.3136 17.3061L26.0207 16.599L25.3136 15.8919L24.6065 16.599ZM23.8994 15.8919L24.6065 15.1848L23.8957 14.474L23.1886 15.1884L23.8994 15.8919ZM17.5354 23.67L16.8283 24.3771L17.5354 25.0843L18.2426 24.3771L17.5354 23.67ZM16.8283 22.9629L16.1212 22.2558L15.4141 22.9629L16.1212 23.67L16.8283 22.9629ZM22.6952 17.0961L23.4023 17.8032L25.1094 16.0961H22.6952V17.0961ZM8.6084 17.0961H7.6084V18.0961H8.6084V17.0961ZM8.6084 16.0961V15.0961H7.6084V16.0961H8.6084ZM22.6893 16.0961V17.0961H25.1035L23.3964 15.389L22.6893 16.0961ZM16.8282 10.2349L16.1211 9.52783L15.414 10.2349L16.1211 10.942L16.8282 10.2349ZM17.5353 9.52783L18.2424 8.82073L17.5353 8.11362L16.8282 8.82073L17.5353 9.52783ZM23.8994 15.8919L23.1923 16.599L23.903 17.3098L24.6101 16.5953L23.8994 15.8919ZM25.3136 15.8919L24.6065 15.1848L23.1923 16.599L23.8994 17.3061L25.3136 15.8919ZM18.2426 24.3771L25.3136 17.3061L23.8994 15.8919L16.8283 22.9629L18.2426 24.3771ZM16.1212 23.67L16.8283 24.3771L18.2426 22.9629L17.5354 22.2558L16.1212 23.67ZM21.9881 16.389L16.1212 22.2558L17.5354 23.67L23.4023 17.8032L21.9881 16.389ZM8.6084 18.0961H22.6952V16.0961H8.6084V18.0961ZM7.6084 16.0961V17.0961H9.6084V16.0961H7.6084ZM22.6893 15.0961H8.6084V17.0961H22.6893V15.0961ZM16.1211 10.942L21.9822 16.8032L23.3964 15.389L17.5353 9.52783L16.1211 10.942ZM16.8282 8.82073L16.1211 9.52783L17.5353 10.942L18.2424 10.2349L16.8282 8.82073ZM24.6065 15.1848L18.2424 8.82073L16.8282 10.2349L23.1923 16.599L24.6065 15.1848ZM23.1886 15.1884L23.1886 15.1885L24.6101 16.5953L24.6102 16.5953L23.1886 15.1884Z" fill="black" mask="url(#path-2-inside-1_178_277)"/>
</svg>
