<svg width="33" height="33" viewBox="0 0 33 33" fill="none" xmlns="http://www.w3.org/2000/svg">
<rect x="0.60791" y="0.640381" width="32" height="32" rx="16" fill="black"/>
<mask id="path-2-inside-1_178_82" fill="white">
<path fill-rule="evenodd" clip-rule="evenodd" d="M17.3131 23.9329L16.606 24.64L9.53491 17.5689L10.242 16.8618L16.109 22.7288V8.64177H17.109V22.7227L22.97 16.8617L23.6771 17.5688L17.313 23.9329L17.3131 23.9329Z"/>
</mask>
<path fill-rule="evenodd" clip-rule="evenodd" d="M17.3131 23.9329L16.606 24.64L9.53491 17.5689L10.242 16.8618L16.109 22.7288V8.64177H17.109V22.7227L22.97 16.8617L23.6771 17.5688L17.313 23.9329L17.3131 23.9329Z" fill="white"/>
<path d="M16.606 24.64L15.8989 25.3471L16.606 26.0542L17.3131 25.3471L16.606 24.64ZM17.3131 23.9329L18.0202 24.64L18.731 23.9292L18.0165 23.2221L17.3131 23.9329ZM9.53491 17.5689L8.82781 16.8618L8.1207 17.5689L8.82781 18.276L9.53491 17.5689ZM10.242 16.8618L10.9491 16.1547L10.242 15.4476L9.53491 16.1547L10.242 16.8618ZM16.109 22.7288L15.4019 23.4359L17.109 25.143V22.7288H16.109ZM16.109 8.64177V7.64177H15.109V8.64177L16.109 8.64177ZM17.109 8.64177H18.109V7.64177H17.109V8.64177ZM17.109 22.7227H16.109V25.1369L17.8161 23.4298L17.109 22.7227ZM22.97 16.8617L23.6771 16.1546L22.97 15.4475L22.2629 16.1546L22.97 16.8617ZM23.6771 17.5688L24.3842 18.2759L25.0913 17.5688L24.3842 16.8617L23.6771 17.5688ZM17.313 23.9329L16.6059 23.2258L15.8952 23.9365L16.6096 24.6436L17.313 23.9329ZM17.3131 25.3471L18.0202 24.64L16.606 23.2258L15.8989 23.9329L17.3131 25.3471ZM8.82781 18.276L15.8989 25.3471L17.3131 23.9329L10.242 16.8618L8.82781 18.276ZM9.53491 16.1547L8.82781 16.8618L10.242 18.276L10.9491 17.5689L9.53491 16.1547ZM16.8161 22.0217L10.9491 16.1547L9.53491 17.5689L15.4019 23.4359L16.8161 22.0217ZM15.109 8.64177L15.109 22.7288H17.109V8.64177L15.109 8.64177ZM17.109 7.64177H16.109V9.64177H17.109V7.64177ZM18.109 22.7227V8.64177H16.109V22.7227H18.109ZM22.2629 16.1546L16.4019 22.0156L17.8161 23.4298L23.6771 17.5688L22.2629 16.1546ZM24.3842 16.8617L23.6771 16.1546L22.2629 17.5688L22.97 18.2759L24.3842 16.8617ZM18.0201 24.64L24.3842 18.2759L22.97 16.8617L16.6059 23.2258L18.0201 24.64ZM18.0165 23.2221L18.0165 23.2221L16.6096 24.6436L16.6097 24.6437L18.0165 23.2221Z" fill="white" mask="url(#path-2-inside-1_178_82)"/>
</svg>
