<svg width="33" height="33" viewBox="0 0 33 33" fill="none" xmlns="http://www.w3.org/2000/svg">
<rect x="0.595215" y="0.375732" width="32" height="32" rx="16" fill="#FDDC31"/>
<mask id="path-2-inside-1_178_251" fill="white">
<path fill-rule="evenodd" clip-rule="evenodd" d="M23.8868 15.6694L24.5939 16.3765L17.5229 23.4475L16.8158 22.7404L22.6827 16.8734H8.5957V15.8734H22.6766L16.8156 10.0124L17.5227 9.30531L23.8868 15.6694L23.8868 15.6694Z"/>
</mask>
<path fill-rule="evenodd" clip-rule="evenodd" d="M23.8868 15.6694L24.5939 16.3765L17.5229 23.4475L16.8158 22.7404L22.6827 16.8734H8.5957V15.8734H22.6766L16.8156 10.0124L17.5227 9.30531L23.8868 15.6694L23.8868 15.6694Z" fill="black"/>
<path d="M24.5938 16.3763L25.3009 17.0834L26.008 16.3763L25.3009 15.6692L24.5938 16.3763ZM23.8867 15.6692L24.5938 14.9621L23.883 14.2513L23.176 14.9658L23.8867 15.6692ZM17.5228 23.4474L16.8156 24.1545L17.5228 24.8616L18.2299 24.1545L17.5228 23.4474ZM16.8156 22.7403L16.1085 22.0332L15.4014 22.7403L16.1085 23.4474L16.8156 22.7403ZM22.6825 16.8734L23.3896 17.5806L25.0967 15.8734H22.6825V16.8734ZM8.5957 16.8734H7.5957V17.8734H8.5957V16.8734ZM8.5957 15.8734V14.8734H7.5957V15.8734H8.5957ZM22.6766 15.8734V16.8734H25.0908L23.3837 15.1663L22.6766 15.8734ZM16.8155 10.0123L16.1084 9.30519L15.4013 10.0123L16.1084 10.7194L16.8155 10.0123ZM17.5226 9.30519L18.2297 8.59808L17.5226 7.89098L16.8155 8.59808L17.5226 9.30519ZM23.8867 15.6693L23.1796 16.3764L23.8903 17.0872L24.5974 16.3727L23.8867 15.6693ZM25.3009 15.6692L24.5938 14.9621L23.1796 16.3763L23.8867 17.0834L25.3009 15.6692ZM18.2299 24.1545L25.3009 17.0834L23.8867 15.6692L16.8156 22.7403L18.2299 24.1545ZM16.1085 23.4474L16.8156 24.1545L18.2299 22.7403L17.5228 22.0332L16.1085 23.4474ZM21.9754 16.1663L16.1085 22.0332L17.5228 23.4474L23.3896 17.5806L21.9754 16.1663ZM8.5957 17.8734H22.6825V15.8734H8.5957V17.8734ZM7.5957 15.8734V16.8734H9.5957V15.8734H7.5957ZM22.6766 14.8734H8.5957V16.8734H22.6766V14.8734ZM16.1084 10.7194L21.9695 16.5806L23.3837 15.1663L17.5226 9.30519L16.1084 10.7194ZM16.8155 8.59808L16.1084 9.30519L17.5226 10.7194L18.2297 10.0123L16.8155 8.59808ZM24.5938 14.9622L18.2297 8.59808L16.8155 10.0123L23.1796 16.3764L24.5938 14.9622ZM23.176 14.9658L23.1759 14.9658L24.5974 16.3727L24.5975 16.3727L23.176 14.9658Z" fill="black" mask="url(#path-2-inside-1_178_251)"/>
</svg>
