<svg width="33" height="33" viewBox="0 0 33 33" fill="none" xmlns="http://www.w3.org/2000/svg">
<rect x="0.60791" y="0.375732" width="32" height="32" rx="16" fill="#FDDC31"/>
<mask id="path-2-inside-1_178_201" fill="white">
<path fill-rule="evenodd" clip-rule="evenodd" d="M23.8995 15.6694L24.6066 16.3765L17.5356 23.4475L16.8285 22.7404L22.6954 16.8734H8.6084V15.8734H22.6893L16.8283 10.0124L17.5354 9.30531L23.8995 15.6694L23.8995 15.6694Z"/>
</mask>
<path fill-rule="evenodd" clip-rule="evenodd" d="M23.8995 15.6694L24.6066 16.3765L17.5356 23.4475L16.8285 22.7404L22.6954 16.8734H8.6084V15.8734H22.6893L16.8283 10.0124L17.5354 9.30531L23.8995 15.6694L23.8995 15.6694Z" fill="black"/>
<path d="M24.6066 16.3763L25.3137 17.0834L26.0209 16.3763L25.3137 15.6692L24.6066 16.3763ZM23.8995 15.6692L24.6066 14.9621L23.8959 14.2513L23.1888 14.9658L23.8995 15.6692ZM17.5356 23.4474L16.8285 24.1545L17.5356 24.8616L18.2427 24.1545L17.5356 23.4474ZM16.8285 22.7403L16.1214 22.0332L15.4143 22.7403L16.1214 23.4474L16.8285 22.7403ZM22.6954 16.8733L23.4025 17.5804L25.1097 15.8733H22.6954V16.8733ZM8.6084 16.8733H7.6084V17.8733H8.6084V16.8733ZM8.6084 15.8733V14.8733H7.6084V15.8733H8.6084ZM22.6893 15.8733V16.8733H25.1035L23.3964 15.1662L22.6893 15.8733ZM16.8283 10.0123L16.1212 9.30519L15.4141 10.0123L16.1212 10.7194L16.8283 10.0123ZM17.5354 9.30519L18.2425 8.59808L17.5354 7.89098L16.8283 8.59808L17.5354 9.30519ZM23.8995 15.6693L23.1924 16.3764L23.9032 17.0872L24.6102 16.3727L23.8995 15.6693ZM25.3137 15.6692L24.6066 14.9621L23.1924 16.3763L23.8995 17.0834L25.3137 15.6692ZM18.2427 24.1545L25.3137 17.0834L23.8995 15.6692L16.8285 22.7403L18.2427 24.1545ZM16.1214 23.4474L16.8285 24.1545L18.2427 22.7403L17.5356 22.0332L16.1214 23.4474ZM21.9883 16.1662L16.1214 22.0332L17.5356 23.4474L23.4025 17.5804L21.9883 16.1662ZM8.6084 17.8733H22.6954V15.8733H8.6084V17.8733ZM7.6084 15.8733V16.8733H9.6084V15.8733H7.6084ZM22.6893 14.8733H8.6084V16.8733H22.6893V14.8733ZM16.1212 10.7194L21.9822 16.5804L23.3964 15.1662L17.5354 9.30519L16.1212 10.7194ZM16.8283 8.59808L16.1212 9.30519L17.5354 10.7194L18.2425 10.0123L16.8283 8.59808ZM24.6066 14.9622L18.2425 8.59808L16.8283 10.0123L23.1924 16.3764L24.6066 14.9622ZM23.1888 14.9658L23.1887 14.9658L24.6102 16.3727L24.6103 16.3727L23.1888 14.9658Z" fill="black" mask="url(#path-2-inside-1_178_201)"/>
</svg>
