<svg width="33" height="33" viewBox="0 0 33 33" fill="none" xmlns="http://www.w3.org/2000/svg">
<rect x="0.595215" y="0.964203" width="32" height="32" rx="16" fill="#FDDC31"/>
<mask id="path-2-inside-1_178_320" fill="white">
<path fill-rule="evenodd" clip-rule="evenodd" d="M23.8868 16.2578L24.5939 16.9649L17.5229 24.036L16.8158 23.3289L22.6827 17.4619H8.5957V16.4619H22.6766L16.8156 10.6009L17.5227 9.8938L23.8868 16.2579L23.8868 16.2578Z"/>
</mask>
<path fill-rule="evenodd" clip-rule="evenodd" d="M23.8868 16.2578L24.5939 16.9649L17.5229 24.036L16.8158 23.3289L22.6827 17.4619H8.5957V16.4619H22.6766L16.8156 10.6009L17.5227 9.8938L23.8868 16.2579L23.8868 16.2578Z" fill="black"/>
<path d="M24.5938 16.9648L25.3009 17.6719L26.008 16.9648L25.3009 16.2577L24.5938 16.9648ZM23.8867 16.2577L24.5938 15.5506L23.883 14.8398L23.176 15.5543L23.8867 16.2577ZM17.5228 24.0359L16.8156 24.743L17.5228 25.4501L18.2299 24.743L17.5228 24.0359ZM16.8156 23.3288L16.1085 22.6217L15.4014 23.3288L16.1085 24.0359L16.8156 23.3288ZM22.6825 17.4619L23.3896 18.169L25.0967 16.4619H22.6825V17.4619ZM8.5957 17.4619H7.5957V18.4619H8.5957V17.4619ZM8.5957 16.4619V15.4619H7.5957V16.4619H8.5957ZM22.6766 16.4619V17.4619H25.0908L23.3837 15.7548L22.6766 16.4619ZM16.8155 10.6008L16.1084 9.89368L15.4013 10.6008L16.1084 11.3079L16.8155 10.6008ZM17.5226 9.89368L18.2297 9.18657L17.5226 8.47946L16.8155 9.18657L17.5226 9.89368ZM23.8867 16.2578L23.1796 16.9649L23.8903 17.6756L24.5974 16.9612L23.8867 16.2578ZM25.3009 16.2577L24.5938 15.5506L23.1796 16.9648L23.8867 17.6719L25.3009 16.2577ZM18.2299 24.743L25.3009 17.6719L23.8867 16.2577L16.8156 23.3288L18.2299 24.743ZM16.1085 24.0359L16.8156 24.743L18.2299 23.3288L17.5228 22.6217L16.1085 24.0359ZM21.9754 16.7548L16.1085 22.6217L17.5228 24.0359L23.3896 18.169L21.9754 16.7548ZM8.5957 18.4619H22.6825V16.4619H8.5957V18.4619ZM7.5957 16.4619V17.4619H9.5957V16.4619H7.5957ZM22.6766 15.4619H8.5957V17.4619H22.6766V15.4619ZM16.1084 11.3079L21.9695 17.169L23.3837 15.7548L17.5226 9.89368L16.1084 11.3079ZM16.8155 9.18657L16.1084 9.89368L17.5226 11.3079L18.2297 10.6008L16.8155 9.18657ZM24.5938 15.5507L18.2297 9.18657L16.8155 10.6008L23.1796 16.9649L24.5938 15.5507ZM23.176 15.5543L23.1759 15.5543L24.5974 16.9612L24.5975 16.9611L23.176 15.5543Z" fill="black" mask="url(#path-2-inside-1_178_320)"/>
</svg>
