<svg width="506" height="506" viewBox="0 0 506 506" fill="none" xmlns="http://www.w3.org/2000/svg">
<path d="M429.007 346.798H292.1L284.61 206.997H147.703L140.213 67.1824H3.30615L10.7969 206.997L18.2876 346.798L25.7783 486.612H162.685H299.591H436.498L429.007 346.798Z" fill="#D8D2C4"/>
<path d="M69.2371 20.626L3.17969 67.2139H140.263L206.327 20.626H69.2371Z" fill="#4DAAA9"/>
<path d="M213.634 160.441L147.577 207.022H284.66L350.724 160.441H213.634Z" fill="#4DAAA9"/>
<path d="M358.032 300.242L291.974 346.83H429.058L495.121 300.242H358.032Z" fill="#4DAAA9"/>
<path d="M140.168 67.1257L147.671 207.117L213.729 160.529L206.232 20.5378L140.168 67.1257Z" fill="#4DAAA9"/>
<path d="M284.565 206.953L292.062 346.9L358.126 300.312L350.623 160.365L284.565 206.953Z" fill="#4DAAA9"/>
<path d="M495.026 300.154L428.962 346.741L436.466 486.733L502.523 440.145L495.026 300.154Z" fill="#4DAAA9"/>
<path d="M206.194 20.658L140.212 67.1826L147.703 206.997L213.659 160.466L206.194 20.658ZM212.073 136.799L201.497 144.258L200.296 121.849L210.872 114.415L212.073 136.799ZM176.743 113.562L166.168 121.015L164.986 98.6121L175.561 91.1593L176.743 113.562ZM175.915 90.8938L186.478 83.441L187.679 105.837L177.103 113.296L175.915 90.8938ZM176.781 114.352L177.982 136.761L167.413 144.214L166.212 121.805L176.781 114.352ZM177.16 114.087L187.742 106.634L188.943 129.036L178.368 136.496L177.16 114.087ZM188.109 106.368L198.678 98.9091L199.879 121.318L189.304 128.777L188.109 106.368ZM188.065 105.572L186.863 83.1755L197.439 75.7164L198.64 98.119L188.065 105.572ZM186.8 82.379L185.599 59.9764L196.175 52.5172L197.376 74.9262L186.8 82.379ZM186.427 82.6445L175.852 90.1036L174.651 67.6946L185.226 60.2355L186.427 82.6445ZM175.498 90.3944L164.929 97.8472L163.721 75.4129L174.29 67.9601L175.498 90.3944ZM164.556 98.1127L153.98 105.565L152.779 83.1565L163.355 75.7037L164.556 98.1127ZM164.594 98.9028L165.795 121.305L155.219 128.758L154.018 106.362L164.594 98.9028ZM165.858 122.096L167.059 144.505L156.483 151.964L155.282 129.555L165.858 122.096ZM167.122 145.295L168.323 167.704L157.754 175.163L156.553 152.754L167.122 145.295ZM167.501 145.036L178.071 137.576L179.272 159.985L168.702 167.438L167.501 145.036ZM178.444 137.317L189.006 129.833L190.207 152.242L179.632 159.695L178.444 137.317ZM189.348 129.586L199.923 122.134L201.124 144.536L190.549 151.995L189.348 129.586ZM210.84 113.619L200.252 121.053L199.057 98.65L209.626 91.1909L210.84 113.619ZM209.576 90.4133L199 97.8725L197.799 75.4761L208.375 68.017L209.576 90.4133ZM208.312 67.2205L197.736 74.6797L196.592 52.2517L207.167 44.799L208.312 67.2205ZM205.865 21.6125L207.066 44.0214L196.529 51.4616L195.328 29.0779L205.865 21.6125ZM194.948 29.3181L196.149 51.7208L185.58 59.1799L184.379 36.7709L194.948 29.3181ZM184 37.0364L185.214 59.4201L174.644 66.8729L173.443 44.4702L184 37.0364ZM173.051 44.761L174.253 67.1637L163.683 74.5912L162.457 52.2138L173.051 44.761ZM162.109 52.4667L163.31 74.8693L152.735 82.3284L151.534 59.9195L162.109 52.4667ZM140.617 67.6378L151.192 60.1786L152.394 82.5876L141.786 90.0593L140.617 67.6378ZM141.881 90.8369L152.457 83.3777L153.658 105.787L143.082 113.246L141.881 90.8369ZM143.145 114.036L153.721 106.583L154.922 128.979L144.347 136.439L143.145 114.036ZM144.41 137.229L154.871 129.795L156.073 152.198L145.497 159.657L144.41 137.229ZM145.674 160.434L156.136 152.975L157.337 175.384L146.768 182.837L145.674 160.434ZM148 206.074L146.799 183.665L157.4 176.193L158.601 198.602L148 206.074ZM158.949 198.349L157.748 175.94L168.323 168.488L169.524 190.896L158.949 198.349ZM169.897 190.631L168.696 168.222L179.272 160.769L180.473 183.172L169.897 190.631ZM180.846 182.913L179.645 160.504L190.22 153.045L191.421 175.454L180.846 182.913ZM191.794 175.188L190.593 152.785L201.169 145.326L202.363 167.735L191.794 175.188ZM201.542 145.061L212.117 137.608L213.312 160.011L202.743 167.47L201.542 145.061Z" fill="#D8D2C4"/>
<path d="M69.2872 20.658L3.30566 67.1826H140.212L206.194 20.658H69.2872ZM182.438 20.8918L171.869 28.351H149.941L160.51 20.8918H182.438ZM104.168 44.053L93.5989 51.5058H71.664L82.2332 44.053H104.168ZM82.6062 43.7875L93.1817 36.3347H115.117L104.547 43.7875H82.6062ZM104.946 44.053H126.887L116.311 51.5058H94.3764L104.946 44.053ZM105.319 43.7875L115.894 36.3347H137.835L127.266 43.7875H105.319ZM116.267 36.0693L126.843 28.6101H148.784L138.215 36.0693H116.267ZM115.496 36.0693H93.5547L104.124 28.6101H126.059L115.496 36.0693ZM92.7835 36.0693H70.836L81.4115 28.6101H103.353L92.7835 36.0693ZM92.4042 36.3347L81.835 43.7875H59.8875L70.463 36.3347H92.4042ZM81.4557 44.053L70.8865 51.5058H48.9453L59.5145 44.053H81.4557ZM70.5136 51.7713L59.9381 59.2304H37.9969L48.5724 51.7713H70.5136ZM71.2911 51.7713H93.226L82.6504 59.2304H60.7156L71.2911 51.7713ZM94.0035 51.7713H115.945L105.369 59.2304H83.4406L94.0035 51.7713ZM116.722 51.7713H138.663L128.088 59.2304H106.147L116.722 51.7713ZM117.095 51.5058L127.69 44.053H149.637L139.068 51.5058H117.095ZM128.044 43.7875L138.613 36.3347H160.56L149.985 43.7875H128.044ZM138.992 36.0693L149.561 28.6101H171.502L160.933 36.0693H138.992ZM159.732 20.8982L149.182 28.351H127.216L137.804 20.8918L159.732 20.8982ZM137.014 20.8982L126.425 28.351H104.49L115.066 20.8918L137.014 20.8982ZM114.301 20.8982L103.732 28.351H81.7844L92.3599 20.8918L114.301 20.8982ZM69.6412 20.8982H91.5824L81.0069 28.3573H59.0657L69.6412 20.8982ZM58.6928 28.6101H80.6339L70.0584 36.0693H48.1173L58.6928 28.6101ZM47.7443 36.3347H69.6855L59.11 43.7875H37.1688L47.7443 36.3347ZM36.7958 44.053H58.737L48.1678 51.5058H26.2266L36.7958 44.053ZM25.8537 51.7713H47.7949L37.2194 59.2304H15.2782L25.8537 51.7713ZM4.36132 66.9424L14.9052 59.4959H36.8464L26.2709 66.9487L4.36132 66.9424ZM27.08 66.9424L37.6239 59.4959H59.5651L48.9896 66.9487L27.08 66.9424ZM49.7987 66.9424L60.3426 59.4959H82.2775L71.702 66.9487L49.7987 66.9424ZM72.5111 66.9424L83.0866 59.4896H104.996L94.4207 66.9424H72.5111ZM95.2298 66.9424L105.805 59.4896H127.69L117.114 66.9424H95.2298ZM139.89 66.9424H117.917L128.492 59.4896H150.446L139.89 66.9424ZM150.807 59.2304H128.865L139.441 51.7713H161.382L150.807 59.2304ZM161.755 51.5058H139.814L150.383 44.053H172.331L161.755 51.5058ZM172.703 43.7875H150.762L161.331 36.3347H183.279L172.703 43.7875ZM183.652 36.0693H161.711L172.28 28.6101H194.227L183.652 36.0693ZM172.659 28.351L183.228 20.8918H205.176L194.6 28.351H172.659Z" fill="#D8D2C4"/>
<path d="M213.659 160.466L147.703 206.997H284.61L350.591 160.466H213.659ZM349.567 160.7L338.998 168.146H317.057L327.626 160.687L349.567 160.7ZM316.279 168.146H294.338L304.907 160.687H326.855L316.279 168.146ZM248.566 183.867L237.996 191.32H216.062L226.631 183.867H248.566ZM227.01 183.602L237.579 176.143H259.514L248.945 183.602H227.01ZM249.343 183.867H271.284L260.715 191.32H238.774L249.343 183.867ZM249.716 183.602L260.292 176.143H282.233L271.664 183.602H249.716ZM260.671 175.877L271.24 168.424H293.181L282.612 175.877H260.671ZM259.893 175.877H237.958L248.528 168.424H270.462L259.893 175.877ZM237.181 175.877H215.233L225.809 168.424H247.75L237.181 175.877ZM236.802 176.143L226.232 183.602H204.285L214.86 176.143H236.802ZM225.853 183.867L215.284 191.32H193.343L203.912 183.867H225.853ZM214.924 191.585L204.348 199.038H182.394L192.97 191.585H214.924ZM215.701 191.585H237.636L227.061 199.038H205.126L215.701 191.585ZM238.414 191.585H260.355L249.779 199.038H227.825L238.414 191.585ZM261.132 191.585H283.073L272.498 199.038H250.544L261.132 191.585ZM261.505 191.32L272.074 183.867H294.022L283.446 191.32H261.505ZM272.447 183.602L283.017 176.143H304.964L294.389 183.602H272.447ZM283.396 175.877L293.94 168.424H315.887L305.318 175.877H283.396ZM293.56 168.146H271.613L282.188 160.687H304.13L293.56 168.146ZM270.842 168.146H248.901L259.476 160.687H281.411L270.842 168.146ZM248.129 168.146H226.182L236.757 160.687H258.699L248.129 168.146ZM214.039 160.687H235.98L225.404 168.146H203.463L214.039 160.687ZM203.09 168.412H225.038L214.462 175.864H192.515L203.09 168.412ZM192.167 176.143H214.108L203.533 183.602H181.566L192.167 176.143ZM181.219 183.867H203.16L192.591 191.32H170.624L181.219 183.867ZM170.276 191.585H192.167L181.592 199.038H159.676L170.276 191.585ZM159.296 199.304H181.238L170.675 206.763H148.727L159.296 199.304ZM182.015 199.304H203.956L193.381 206.763H171.446L182.015 199.304ZM204.734 199.304H226.669L216.093 206.763H194.158L204.734 199.304ZM227.446 199.304H249.387L238.812 206.763H216.877L227.446 199.304ZM250.165 199.304H272.106L261.531 206.763H239.577L250.165 199.304ZM284.249 206.763H262.333L272.909 199.304H294.85L284.249 206.763ZM295.204 199.038H273.263L283.826 191.585H305.767L295.204 199.038ZM306.152 191.32H284.211L294.787 183.867H316.728L306.152 191.32ZM317.101 183.602H295.16L305.735 176.143H327.676L317.101 183.602ZM328.075 175.877H306.108L316.696 168.424H338.644L328.075 175.877Z" fill="#D8D2C4"/>
<path d="M350.591 160.466L284.61 206.997L292.101 346.798L358.082 300.261L350.591 160.466ZM357.709 299.787L347.134 307.214L345.933 284.818L356.521 277.384L357.709 299.787ZM345.888 284.047L344.694 261.651L355.257 254.192L356.458 276.594L345.888 284.047ZM321.122 253.37L310.565 260.823L309.364 238.426L319.933 230.973L321.122 253.37ZM320.306 230.727L330.882 223.274L332.083 245.664L321.507 253.123L320.306 230.727ZM321.179 254.179L322.38 276.582L311.804 284.015L310.609 261.613L321.179 254.179ZM321.551 253.913L332.127 246.461L333.328 268.857L322.752 276.316L321.551 253.913ZM332.5 246.176L343.075 238.717L344.276 261.12L333.701 268.572L332.5 246.176ZM332.456 245.38L331.236 222.99L341.83 215.556L343.031 237.952L332.456 245.38ZM331.191 222.193L329.99 199.797L340.566 192.338L341.761 214.74L331.191 222.193ZM330.818 222.459L320.243 229.918L319.042 207.515L329.617 200.062L330.818 222.459ZM319.87 230.183L309.294 237.636L308.093 215.233L318.669 207.781L319.87 230.183ZM308.922 237.902L298.365 245.354L297.164 222.958L307.739 215.499L308.922 237.902ZM308.966 238.692L310.167 261.088L299.629 268.541L298.428 246.151L308.966 238.692ZM310.23 261.878L311.431 284.281L300.856 291.734L299.661 269.337L310.23 261.878ZM311.494 285.071L312.695 307.474L302.101 314.926L300.894 292.53L311.494 285.071ZM311.867 284.806L322.436 277.353L323.65 299.755L313.049 307.214L311.867 284.806ZM322.816 277.087L333.385 269.634L334.586 292.031L324.01 299.49L322.816 277.087ZM333.764 269.369L344.333 261.91L345.534 284.312L334.959 291.772L333.764 269.369ZM344.668 260.854L343.467 238.452L354.043 230.999L355.244 253.395L344.668 260.854ZM343.404 237.661L342.203 215.265L352.779 207.812L353.98 230.202L343.404 237.661ZM342.14 214.475L340.939 192.072L351.514 184.619L352.728 207.016L342.14 214.475ZM350.269 161.427L351.47 183.823L340.895 191.282L339.694 168.879L350.269 161.427ZM339.321 169.145L340.522 191.548L329.971 199L328.77 176.604L339.321 169.145ZM328.372 176.863L329.573 199.266L319.023 206.706L317.822 184.303L328.372 176.863ZM317.449 184.582L318.65 206.978L308.081 214.437L306.88 192.034L317.449 184.582ZM306.507 192.3L307.702 214.696L297.132 222.155L295.931 199.753L306.507 192.3ZM295.558 200.018L296.753 222.421L286.184 229.874L284.983 207.477L295.558 200.018ZM296.823 223.211L298.024 245.614L287.448 253.073L286.247 230.67L296.823 223.211ZM298.087 246.41L299.288 268.8L288.668 276.24L287.467 253.844L298.087 246.41ZM299.351 269.59L300.552 291.993L289.977 299.452L288.782 277.049L299.351 269.59ZM300.615 292.789L301.816 315.186L291.241 322.645L289.951 300.261L300.615 292.789ZM292.486 345.838L291.285 323.435L301.854 315.982L303.055 338.378L292.486 345.838ZM303.435 338.119L302.158 315.723L312.727 308.264L313.928 330.666L303.435 338.119ZM314.383 330.395L313.182 307.998L323.65 300.546L324.851 322.948L314.383 330.395ZM325.325 322.676L324.036 300.261L334.611 292.802L335.812 315.205L325.325 322.676ZM336.274 314.958L335.073 292.555L345.56 285.09L346.761 307.493L336.274 314.958Z" fill="#D8D2C4"/>
<path d="M358.082 300.261L292.101 346.798H429.007L494.989 300.261H358.082ZM493.99 300.501L483.414 307.954H461.454L472.023 300.501H493.99ZM460.696 307.954H438.735L449.305 300.501H471.246L460.696 307.954ZM392.963 323.649L382.394 331.102H360.459L371.06 323.649H392.963ZM371.401 323.384L381.977 315.925H403.93L393.361 323.384H371.401ZM393.741 323.649H415.682L405.113 331.102H383.171L393.741 323.649ZM394.113 323.384L404.689 315.925H426.63L416.061 323.384H394.113ZM405.062 315.666L415.637 308.207H437.579L427.009 315.666H405.062ZM404.291 315.666H382.35L392.925 308.207H414.86L404.291 315.666ZM381.578 315.666H359.631L370.206 308.207H392.148L381.578 315.666ZM381.199 315.925L370.63 323.384H348.682L359.258 315.925H381.199ZM370.251 323.649L359.681 331.121H337.74L348.303 323.649H370.251ZM359.308 331.368L348.733 338.821H326.811L337.386 331.361L359.308 331.368ZM360.086 331.368H382.021L371.445 338.821H349.51L360.086 331.368ZM382.798 331.368H404.74L394.164 338.821H372.223L382.798 331.368ZM405.517 331.368H427.458L416.883 338.821H394.942L405.517 331.368ZM405.89 331.102L416.459 323.649H438.407L427.831 331.102H405.89ZM416.839 323.384L427.408 315.925H449.355L438.78 323.384H416.839ZM427.787 315.666L438.356 308.207H460.297L449.728 315.666H427.787ZM437.958 307.941H416.01L426.586 300.488H448.527L437.958 307.941ZM415.201 307.941H393.266L403.842 300.488H425.777L415.201 307.941ZM392.489 307.941H370.579L381.174 300.507H403.115L392.489 307.941ZM358.417 300.507H380.358L369.796 307.96H347.861L358.417 300.507ZM347.488 308.226H369.429L358.853 315.685H336.925L347.488 308.226ZM336.539 315.944H358.48L347.905 323.403H325.964L336.539 315.944ZM325.591 323.649H347.532L336.963 331.102H315.022L325.591 323.649ZM314.649 331.368H336.59L326.014 338.821H304.054L314.649 331.368ZM303.694 339.086H325.641L315.066 346.545H293.125L303.694 339.086ZM326.419 339.086H348.36L337.785 346.545H315.843L326.419 339.086ZM349.138 339.086H371.06L360.484 346.545H338.549L349.138 339.086ZM371.85 339.086H393.816L383.241 346.545H361.274L371.85 339.086ZM394.569 339.086H416.51L405.934 346.545H383.993L394.569 339.086ZM428.653 346.545H406.712L417.287 339.086H439.229L428.653 346.545ZM439.601 338.821H417.66L428.236 331.361H450.177L439.601 338.821ZM450.55 331.096H428.583L439.178 323.649H461.125L450.55 331.096ZM461.498 323.378H439.557L450.126 315.919H472.074L461.498 323.378ZM472.447 315.659H450.506L461.075 308.2H483.022L472.447 315.659Z" fill="#D8D2C4"/>
<path d="M494.988 300.261L429.007 346.798L436.498 486.612L502.479 440.081L494.988 300.261ZM502.106 439.607L491.537 447.066L490.336 424.657L500.911 417.205L502.106 439.607ZM490.292 423.861L489.091 401.458L499.666 393.999L500.867 416.408L490.292 423.861ZM465.538 393.184L454.962 400.643L453.761 378.24L464.337 370.787L465.538 393.184ZM464.709 370.522L475.285 363.063L476.486 385.465L465.911 392.924L464.709 370.522ZM465.575 393.98L466.777 416.389L456.207 423.829L455.006 401.401L465.575 393.98ZM465.955 393.715L476.524 386.23L477.725 408.639L467.143 416.111L465.955 393.715ZM476.903 385.996L487.472 378.537L488.673 400.946L478.098 408.399L476.903 385.996ZM476.859 385.2L475.658 362.804L486.233 355.344L487.434 377.747L476.859 385.2ZM475.595 362.007L474.394 339.598L484.969 332.145L486.17 354.548L475.595 362.007ZM475.222 362.273L464.646 369.725L463.445 347.323L474.021 339.864L475.222 362.273ZM464.273 369.991L453.704 377.444L452.503 355.041L463.072 347.582L464.273 369.991ZM453.344 377.696L442.775 385.156L441.574 362.747L452.149 355.294L453.344 377.696ZM453.388 378.493L454.589 400.889L444.014 408.355L442.813 385.952L453.388 378.493ZM454.652 401.686L455.853 424.095L445.278 431.548L444.077 409.145L454.652 401.686ZM455.917 424.885L457.118 447.294L446.548 454.753L445.303 432.376L455.917 424.885ZM456.296 424.619L466.865 417.167L468.066 439.576L457.497 447.028L456.296 424.619ZM467.238 416.901L477.813 409.448L479.015 431.851L468.407 439.329L467.238 416.901ZM478.186 409.183L488.762 401.724L489.9 424.158L479.324 431.617L478.186 409.183ZM489.091 400.668L487.89 378.259L498.465 370.806L499.666 393.209L489.091 400.668ZM487.826 377.469L486.625 355.066L497.201 347.613L498.402 370.01L487.826 377.469ZM486.562 354.276L485.361 331.867L495.937 324.408L497.138 346.817L486.562 354.276ZM494.691 301.177L495.892 323.586L485.323 331.039L484.122 308.636L494.691 301.177ZM483.743 308.896L484.944 331.305L474.375 338.821L473.174 316.412L483.743 308.896ZM472.794 316.62L473.995 339.029L463.426 346.482L462.225 324.073L472.794 316.62ZM461.846 324.339L463.047 346.747L452.478 354.232L451.277 331.823L461.846 324.339ZM450.904 332.057L452.105 354.466L441.529 361.925L440.328 339.516L450.904 332.057ZM439.962 339.813L441.163 362.216L430.587 369.675L429.386 347.266L439.962 339.813ZM441.226 363.012L442.421 385.421L431.851 392.874L430.65 370.471L441.226 363.012ZM442.49 386.211L443.691 408.614L433.065 416.067L431.864 393.67L442.49 386.211ZM443.754 409.404L444.955 431.813L434.38 439.272L433.179 416.863L443.754 409.404ZM445.019 432.609L446.22 455.012L435.537 462.471L434.336 440.062L445.019 432.609ZM436.801 485.67L435.6 463.268L446.175 455.809L447.376 478.218L436.801 485.67ZM447.749 477.952L446.548 455.543L457.124 448.09L458.293 470.493L447.749 477.952ZM458.698 470.227L457.497 447.825L468.072 440.366L469.267 462.775L458.698 470.227ZM469.672 462.509L468.471 440.107L479.046 432.647L480.241 455.056L469.672 462.509ZM480.62 454.791L479.387 432.376L489.963 424.923L491.164 447.332L480.62 454.791Z" fill="#D8D2C4"/>
</svg>
