<svg width="248" height="223" viewBox="0 0 248 223" fill="none" xmlns="http://www.w3.org/2000/svg">
<g clip-path="url(#clip0_59_30672)">
<path d="M83.6647 210.394C90.0643 206.677 80.7655 178.722 62.8951 147.955C45.0247 117.188 25.35 95.2598 18.9503 98.9769C12.5507 102.694 21.8496 130.649 39.72 161.416C57.5904 192.183 77.2651 214.111 83.6647 210.394Z" stroke="#D8D2C4" stroke-width="4.49" stroke-linecap="round" stroke-linejoin="round"/>
<path d="M102.097 199.688C108.496 195.971 99.1976 168.016 81.3272 137.249C63.4568 106.482 43.7821 84.5538 37.3825 88.2709C30.9828 91.988 40.2817 119.943 58.1521 150.71C76.0225 181.477 95.6972 203.405 102.097 199.688Z" stroke="#D8D2C4" stroke-width="4.49" stroke-linecap="round" stroke-linejoin="round"/>
<path d="M120.529 188.982C126.929 185.265 117.63 157.31 99.7593 126.543C81.889 95.776 62.2142 73.8478 55.8146 77.5649C49.415 81.282 58.7139 109.237 76.5842 140.004C94.4546 170.771 114.129 192.699 120.529 188.982Z" stroke="#D8D2C4" stroke-width="4.49" stroke-linecap="round" stroke-linejoin="round"/>
<path d="M138.961 178.276C145.361 174.558 136.062 146.604 118.191 115.837C100.321 85.0699 80.6463 63.1417 74.2467 66.8588C67.8471 70.5759 77.146 98.5307 95.0164 129.298C112.887 160.065 132.561 181.993 138.961 178.276Z" stroke="#D8D2C4" stroke-width="4.49" stroke-linecap="round" stroke-linejoin="round"/>
<path d="M157.394 167.57C163.793 163.852 154.494 135.898 136.624 105.131C118.754 74.3639 99.079 52.4357 92.6793 56.1528C86.2797 59.8699 95.5786 87.8247 113.449 118.592C131.319 149.359 150.994 171.287 157.394 167.57Z" stroke="#D8D2C4" stroke-width="4.49" stroke-linecap="round" stroke-linejoin="round"/>
<path d="M175.826 156.864C182.225 153.146 172.927 125.192 155.056 94.4248C137.186 63.6579 117.511 41.7297 111.111 45.4468C104.712 49.1639 114.011 77.1187 131.881 107.886C149.752 138.653 169.426 160.581 175.826 156.864Z" stroke="#D8D2C4" stroke-width="4.49" stroke-linecap="round" stroke-linejoin="round"/>
<path d="M194.258 146.158C200.658 142.44 191.359 114.486 173.488 83.7187C155.618 52.9519 135.943 31.0237 129.544 34.7408C123.144 38.4579 132.443 66.4127 150.313 97.1796C168.184 127.946 187.858 149.875 194.258 146.158Z" stroke="#D8D2C4" stroke-width="4.49" stroke-linecap="round" stroke-linejoin="round"/>
<path d="M212.69 135.452C219.09 131.734 209.791 103.78 191.92 73.0127C174.05 42.2459 154.375 20.3177 147.976 24.0348C141.576 27.7519 150.875 55.7067 168.745 86.4736C186.616 117.24 206.29 139.169 212.69 135.452Z" stroke="#D8D2C4" stroke-width="4.49" stroke-linecap="round" stroke-linejoin="round"/>
<path d="M231.122 124.746C237.522 121.028 228.223 93.0736 210.353 62.3068C192.482 31.5399 172.807 9.61169 166.408 13.3288C160.008 17.0459 169.307 45.0007 187.178 75.7676C205.048 106.534 224.723 128.463 231.122 124.746Z" stroke="#D8D2C4" stroke-width="4.49" stroke-linecap="round" stroke-linejoin="round"/>
</g>
<defs>
<clipPath id="clip0_59_30672">
<rect width="206.403" height="137.215" fill="white" transform="translate(0.5 104.053) rotate(-30.1494)"/>
</clipPath>
</defs>
</svg>
