<svg width="70" height="76" viewBox="0 0 70 76" fill="none" xmlns="http://www.w3.org/2000/svg">
<path d="M1.37955 61.629C7.86038 66.0156 15.4029 68.3334 23.1904 68.3334C34.5946 68.3334 45.045 63.6605 52.6196 55.1765C59.8675 47.0565 63.8546 36.1458 63.6562 25.0734C66.4037 22.5658 69.6354 17.7778 69.6354 13.1112C69.6354 11.3223 67.8154 10.1867 66.3396 11.0983C63.7583 12.7161 61.4046 13.1392 58.9837 12.4143C54.04 7.27474 46.6812 6.19207 40.4804 9.7574C35.0612 12.8685 32.0483 18.5618 32.3196 24.7841C23.1641 23.5925 14.7058 18.6956 8.8083 11.0858C7.83997 9.84451 6.00247 9.99074 5.23247 11.397C2.39163 16.5863 2.4208 22.6001 4.89122 27.4565C3.7158 27.6774 2.98955 28.7321 2.98955 29.8738C2.98955 34.7552 5.04872 39.2414 8.36497 42.3027C7.74664 42.9374 7.54247 43.8801 7.80497 44.7201C9.2633 49.393 12.565 53.0454 16.6921 54.8747C12.2033 57.1614 7.23913 57.9236 2.82038 57.345C0.533718 57.0152 -0.595033 60.2943 1.37955 61.629ZM23.7883 55.6743C25.4246 54.3334 24.5554 51.5396 22.5021 51.493C18.8854 51.4121 15.5925 49.5112 13.5421 46.5214C14.5308 46.453 15.5546 46.2912 16.5287 46.0112C18.7483 45.3703 18.6433 41.9543 16.3887 41.4721C12.2966 40.5947 9.08538 37.4152 7.8808 33.321C8.98038 33.6103 10.1004 33.7721 11.2175 33.7938C13.4312 33.8063 14.2683 30.7792 12.4629 29.513C8.39413 26.6538 6.65872 21.6045 7.80789 16.857C14.9129 24.5352 24.5525 29.1614 34.7491 29.6841C36.2104 29.7805 37.3071 28.3152 36.9862 26.8312C35.6008 20.4254 38.955 15.9361 42.5571 13.8672C46.1212 11.8138 51.8437 11.173 56.2304 16.0823C57.5341 17.5476 61.9325 17.6036 64.1696 17.0467C63.1662 19.0627 61.6233 20.9761 60.1796 22.0525C59.5641 22.513 59.2112 23.2783 59.2491 24.0778C59.7187 34.2978 56.1487 44.4587 49.455 51.9534C42.7116 59.5041 33.3871 63.6636 23.1933 63.6636C19.1391 63.6636 15.1637 62.9605 11.4071 61.6041C15.8987 60.677 20.1658 58.6485 23.7883 55.6743Z" fill="white"/>
</svg>
