<svg width="15" height="15" viewBox="0 0 15 15" fill="none" xmlns="http://www.w3.org/2000/svg">
<path d="M10.9425 4.12787L6 8.86955L3.3075 6.29364L2.25 7.30817L6 10.9058L12 5.1496L10.9425 4.12787ZM7.5 0.112915C3.36 0.112915 0 3.33639 0 7.30817C0 11.28 3.36 14.5034 7.5 14.5034C11.64 14.5034 15 11.28 15 7.30817C15 3.33639 11.64 0.112915 7.5 0.112915ZM7.5 13.0644C4.185 13.0644 1.5 10.4885 1.5 7.30817C1.5 4.12787 4.185 1.55197 7.5 1.55197C10.815 1.55197 13.5 4.12787 13.5 7.30817C13.5 10.4885 10.815 13.0644 7.5 13.0644Z" fill="black"/>
</svg>
