<svg width="15" height="15" viewBox="0 0 15 15" fill="none" xmlns="http://www.w3.org/2000/svg">
<path d="M10.9425 4.24298L6 8.98466L3.3075 6.40876L2.25 7.42329L6 11.0209L12 5.26471L10.9425 4.24298ZM7.5 0.228027C3.36 0.228027 0 3.4515 0 7.42329C0 11.3951 3.36 14.6185 7.5 14.6185C11.64 14.6185 15 11.3951 15 7.42329C15 3.4515 11.64 0.228027 7.5 0.228027ZM7.5 13.1795C4.185 13.1795 1.5 10.6036 1.5 7.42329C1.5 4.24298 4.185 1.66708 7.5 1.66708C10.815 1.66708 13.5 4.24298 13.5 7.42329C13.5 10.6036 10.815 13.1795 7.5 13.1795Z" fill="black"/>
</svg>
