<svg width="15" height="15" viewBox="0 0 15 15" fill="none" xmlns="http://www.w3.org/2000/svg">
<path d="M10.9425 4.39874L6 9.14042L3.3075 6.56452L2.25 7.57905L6 11.1767L12 5.42047L10.9425 4.39874ZM7.5 0.383789C3.36 0.383789 0 3.60727 0 7.57905C0 11.5508 3.36 14.7743 7.5 14.7743C11.64 14.7743 15 11.5508 15 7.57905C15 3.60727 11.64 0.383789 7.5 0.383789ZM7.5 13.3353C4.185 13.3353 1.5 10.7594 1.5 7.57905C1.5 4.39874 4.185 1.82284 7.5 1.82284C10.815 1.82284 13.5 4.39874 13.5 7.57905C13.5 10.7594 10.815 13.3353 7.5 13.3353Z" fill="black"/>
</svg>
