<svg width="15" height="16" viewBox="0 0 15 16" fill="none" xmlns="http://www.w3.org/2000/svg">
<path d="M10.9425 5.00592L6 9.7476L3.3075 7.17169L2.25 8.18623L6 11.7839L12 6.02765L10.9425 5.00592ZM7.5 0.990967C3.36 0.990967 0 4.21444 0 8.18623C0 12.158 3.36 15.3815 7.5 15.3815C11.64 15.3815 15 12.158 15 8.18623C15 4.21444 11.64 0.990967 7.5 0.990967ZM7.5 13.9424C4.185 13.9424 1.5 11.3665 1.5 8.18623C1.5 5.00592 4.185 2.43002 7.5 2.43002C10.815 2.43002 13.5 5.00592 13.5 8.18623C13.5 11.3665 10.815 13.9424 7.5 13.9424Z" fill="black"/>
</svg>
