<svg width="15" height="15" viewBox="0 0 15 15" fill="none" xmlns="http://www.w3.org/2000/svg">
<path d="M10.9425 4.20233L6 8.94401L3.3075 6.36811L2.25 7.38264L6 10.9803L12 5.22406L10.9425 4.20233ZM7.5 0.187378C3.36 0.187378 0 3.41085 0 7.38264C0 11.3544 3.36 14.5779 7.5 14.5779C11.64 14.5779 15 11.3544 15 7.38264C15 3.41085 11.64 0.187378 7.5 0.187378ZM7.5 13.1388C4.185 13.1388 1.5 10.5629 1.5 7.38264C1.5 4.20233 4.185 1.62643 7.5 1.62643C10.815 1.62643 13.5 4.20233 13.5 7.38264C13.5 10.5629 10.815 13.1388 7.5 13.1388Z" fill="black"/>
</svg>
