<svg width="138" height="129" viewBox="0 0 138 129" fill="none" xmlns="http://www.w3.org/2000/svg">
<path d="M116.714 18.8145C116.073 20.0958 114.304 20.2645 113.131 20.9043C104.493 25.6161 97.1378 33.0504 90.8901 40.5331C72.6827 62.3397 57.7393 87.6143 47.7516 114.197C46.322 118.002 44.8261 121.927 44.3184 125.989C43.6855 131.052 52.0217 119.145 54.9165 114.943C75.7747 84.6653 94.4558 52.9136 115.221 22.5462C116.231 21.0695 130.003 -2.80346 133.432 7.17159C136.398 15.8016 136.865 28.6782 130.596 35.9804C119.552 48.8425 94.6513 48.9411 80.5906 42.3243C68.0622 36.4286 56.8756 26.7444 47.1545 17.0233C28.5999 -1.5313 87.0777 51.1995 105.369 70.0136C114.577 79.4849 103.037 71.755 97.7565 68.6702C83.0731 60.0927 68.4377 51.1303 52.5282 44.9365C48.941 43.54 44.6222 41.7928 40.6613 42.0257C34.1944 42.4062 42.9491 52.7682 43.7213 53.8179C59.2769 74.9638 79.8097 94.3084 101.339 109.271C103.405 110.707 128.683 127.976 131.416 125.243C132.449 124.211 128.907 123.749 127.61 123.078C122.074 120.215 119.815 119.25 113.654 116.436C96.4684 108.588 79.5221 100.363 62.8277 91.5082C44.0445 81.5459 23.1874 71.6496 6.40424 58.3706C0.226888 53.4831 0.395507 50.0796 8.56863 49.7877C31.1271 48.982 51.9326 50.8177 72.6794 60.6097C91.611 69.545 110.493 81.3593 126.938 94.4189C127.961 95.2308 130.258 97.8342 128.954 97.7775C120.611 97.4147 109.743 87.2514 103.876 82.4028C85.4069 67.1381 70.3306 44.4718 62.5291 21.8745C61.9035 20.0624 58.6045 2.23482 56.2599 1.64866C47.9987 -0.416629 46.4669 41.5832 46.3335 44.2648C45.1018 69.0351 44.5182 95.3095 60.2901 115.988C66.3001 123.868 75.4868 128.876 81.0384 117.63C91.5674 96.3023 92.4402 66.9353 92.5321 43.5931C92.5714 33.5952 94.0976 14.4943 86.7106 6.05208C85.1266 4.24178 87.4249 10.8206 88.054 13.1423C91.1486 24.5628 94.3011 35.914 96.8609 47.474C100.159 62.3708 102.185 77.702 107.011 92.1799C109.34 99.1664 97.0538 81.2712 92.8306 75.238C88.3389 68.8213 85.3284 62.7978 84.4716 55.0867" stroke="black" stroke-width="3" stroke-linecap="round"/>
</svg>
