<svg width="61" height="67" viewBox="0 0 61 67" fill="none" xmlns="http://www.w3.org/2000/svg">
<path d="M53.0687 29.0206C35.4807 32.5382 25.6662 47.3606 14.494 60.0737C8.49363 66.9017 14.2769 54.7929 15.1924 52.7671C20.1114 41.8825 26.8715 28.6939 37.0586 21.7139C53.3909 10.5233 63.2715 39.382 49.5228 45.0307C38.4859 49.5652 27.6461 44.3823 19.5442 36.757C16.3958 33.7938 6.10907 23.3772 6.91874 18.1143C7.2104 16.2186 42.4857 32.8323 41.6789 35.2527C41.2275 36.6069 7.22821 20.1785 2.45955 17.9532C-0.639297 16.507 10.1638 18.0208 10.4109 18.0606C19.8554 19.5839 29.2665 21.2098 38.724 22.681C43.6079 23.4407 45.1285 21.6391 43.9354 16.4489C42.5317 10.343 36.0651 3.88086 30.2892 1.62072C24.6471 -0.587048 24.3166 3.61159 24.0571 8.28264C23.2673 22.4977 21.5672 37.7512 23.5198 51.9075C24.4048 58.3236 27.9378 63.9585 34.5335 65.6074C38.8851 66.6953 38.8508 59.9416 38.1331 57.28C35.7255 48.3518 27.1465 39.8464 20.7798 33.4797C19.0753 31.7752 17.378 29.8329 15.3536 28.4833C12.7007 26.7147 13.9754 29.0298 15.6759 29.9876C27.8934 36.8687 70.8902 39.8319 57.0443 37.6166C48.9051 36.3143 40.5252 34.7174 32.5456 32.6739C27.7122 31.436 20.7267 30.418 16.9653 26.6566C15.3005 24.9918 39.2746 14.7961 42.1625 13.1716C52.7414 7.221 20.5191 24.1941 10.0348 30.31C6.16903 32.565 18.8479 28.6736 23.3049 28.2684C28.0399 27.8379 32.8449 28.0535 37.5958 28.0535" stroke="#F9DB4A" stroke-width="2" stroke-miterlimit="2.3662" stroke-linecap="round"/>
</svg>
