<svg width="70" height="76" viewBox="0 0 70 76" fill="none" xmlns="http://www.w3.org/2000/svg">
<g clip-path="url(#clip0_182_73)">
<path d="M34.9975 65.1238C34.9917 65.1238 34.9852 65.1238 34.9788 65.1238C32.8666 65.1084 14.1938 64.9267 8.90342 63.4006C5.20614 62.3404 2.28751 59.2306 1.29095 55.2863C-0.0933271 49.7429 -0.00520744 39.0703 0.00440562 38.2181C-0.00467337 37.3698 -0.0938612 26.6089 1.28668 21.02C1.28828 21.0148 1.28935 21.0091 1.29095 21.004C2.27629 17.1047 5.26061 13.8986 8.89435 12.8356C8.90342 12.8328 8.91304 12.8305 8.92212 12.8276C14.1527 11.3613 32.8624 11.1819 34.9788 11.1665H35.0168C37.1343 11.1819 55.8568 11.3636 61.0986 12.892C64.7862 13.9493 67.7027 17.0551 68.702 20.9943C70.1381 26.5873 70.0051 37.3715 69.9907 38.2819C70.0008 39.1785 70.0846 49.7554 68.7084 55.3267C68.7073 55.3324 68.7057 55.3376 68.7046 55.3427C67.7075 59.287 64.7895 62.3968 61.0879 63.4581C61.0831 63.4598 61.0777 63.4609 61.0729 63.4626C55.8429 64.9284 37.1327 65.1078 35.0168 65.1238C35.0103 65.1238 35.0039 65.1238 34.9975 65.1238ZM6.57279 22.5159C5.35727 27.4492 5.4721 38.0728 5.47317 38.1799V38.2568C5.43685 41.2031 5.56449 49.7355 6.57333 53.7767C7.06252 55.7118 8.50181 57.2448 10.3272 57.7683C14.2307 58.8945 29.439 59.2489 34.9975 59.2904C40.5704 59.2489 55.8012 58.9042 59.6758 57.823C61.4954 57.2978 62.9299 55.7699 63.4223 53.8325C64.4322 49.7321 64.5587 41.2413 64.5219 38.3138C64.5219 38.283 64.5219 38.2522 64.5224 38.2215C64.5726 35.2399 64.4738 26.6078 63.4271 22.5341C63.426 22.5301 63.4249 22.5261 63.4244 22.5222C62.9331 20.5785 61.4932 19.0455 59.6678 18.522C55.8023 17.3946 40.5694 17.0414 34.9975 16.9998C29.4284 17.0414 14.2125 17.3855 10.3262 18.4656C8.53546 18.9954 7.06359 20.583 6.57279 22.5159ZM28.0275 49.9571V26.3326L47.1682 38.1451L28.0275 49.9571Z" fill="white"/>
</g>
<defs>
<clipPath id="clip0_182_73">
<rect width="70" height="74.6667" fill="white" transform="translate(0 0.666504)"/>
</clipPath>
</defs>
</svg>
